{
.appVersion = "1286";
copyright = "Copyright \\(c\\) 2017 by Ricky Rinaldi | Aiyari. All rights reserved.";
customParameters = (
{
name = description;
value = "Copyright (c) 2017 by Ricky Rinaldi | Aiyari. All rights reserved.";
},
{
name = trademark;
value = "Winter is Coming Serif is a trademark of Ricky Rinaldi | Aiyari.";
},
{
name = panose;
value = (
0,
0,
0,
0,
0,
0,
0,
0,
0,
0
);
},
{
name = unicodeRanges;
value = (
0,
1,
2,
5,
31,
33,
62
);
},
{
name = fsType;
value = (
2
);
},
{
name = glyphOrder;
value = (
.notdef,
A,
B,
C,
D,
E,
F,
G,
H,
I,
J,
K,
L,
M,
N,
O,
P,
Q,
R,
S,
T,
U,
V,
W,
X,
Y,
Z,
a,
b,
c,
d,
e,
f,
g,
h,
i,
j,
k,
l,
m,
n,
o,
p,
q,
r,
s,
t,
u,
v,
w,
x,
y,
z,
one,
two,
three,
four,
five,
six,
seven,
eight,
nine,
zero,
exclam,
at,
numbersign,
dollar,
percent,
ampersand,
quotesingle,
parenleft,
parenright,
asterisk,
plus,
equal,
hyphen,
comma,
period,
slash,
fraction,
colon,
semicolon,
less,
greater,
question,
bracketleft,
bracketright,
backslash,
asciicircum,
underscore,
grave,
braceleft,
braceright,
bar,
asciitilde,
Euro,
quotesinglbase,
quotedblbase,
ellipsis,
circumflex,
guilsinglleft,
quoteleft,
quoteright,
quotedblleft,
quotedblright,
bullet,
endash,
emdash,
tilde,
guilsinglright,
cent,
yen,
sterling,
dieresis,
acute,
mu,
cedilla,
ogonek,
caron,
hungarumlaut,
ring,
dotaccent,
breve,
quotedbl,
space,
thorn,
Thorn,
odieresis,
a_a,
b_b,
c_c,
d_d,
e_e,
f_f,
g_g,
h_h,
i_i,
j_j,
k_k,
l_l,
m_m,
n_n,
o_o,
p_p,
q_q,
r_r,
s_s,
t_t,
x_x,
z_z,
Agrave,
Aacute,
Acircumflex,
Atilde,
Adieresis,
Aring,
Ccedilla,
Egrave,
Eacute,
Ecircumflex,
Edieresis,
Igrave,
Iacute,
Icircumflex,
Idieresis,
Eth,
Ntilde,
Ograve,
Oacute,
Ocircumflex,
Otilde,
Odieresis,
Oslash,
Ugrave,
Uacute,
Ucircumflex,
Udieresis,
Yacute,
agrave,
aacute,
acircumflex,
atilde,
adieresis,
aring,
ccedilla,
egrave,
eacute,
ecircumflex,
edieresis,
igrave,
iacute,
icircumflex,
idieresis,
ntilde,
ograve,
oacute,
ocircumflex,
otilde,
oslash,
ugrave,
uacute,
ucircumflex,
udieresis,
yacute,
ydieresis,

glyphs = (
{
glyphname = A;
layers = (
{
hints = (
{
horizontal = 1;
place = "{-64, 20}";
type = Stem;
},
{
horizontal = 1;
place = "{0, 21}";
target = up;
type = BottomGhost;
},
{
horizontal = 1;
place = "{157, 35}";
type = Stem;
},
{
horizontal = 1;
place = "{589, 22}";
type = Stem;
},
{
place = "{110, 92}";
type = Stem;
},
{
place = "{208, 159}";
type = Stem;
},
{
horizontal = 1;
place = "{9, 20}";
type = Stem;
},
{
place = "{-5, 130}";
type = Stem;
}
);
layerId = "D8F0BABD-30A0-4B34-9C55-2C8E337B4047";
paths = (
{
closed = 1;
nodes = (
"208 -73 LINE",
"208 -73 OFFCURVE",
"257 -64 OFFCURVE",
"287 -64 CURVE SMOOTH",
"318 -64 OFFCURVE",
"367 -73 OFFCURVE",
"367 -73 CURVE",
"367 -44 LINE",
"367 -44 OFFCURVE",
"319 -40 OFFCURVE",
"315 -29 CURVE",
"202 604 LINE",
"202 618 LINE",
"202 618 OFFCURVE",
"172 611 OFFCURVE",
"156 611 CURVE SMOOTH",
"140 611 OFFCURVE",
"110 618 OFFCURVE",
"110 618 CURVE",
"110 589 LINE",
"140 589 LINE",
"43 44 LINE",
"39 32 OFFCURVE",
"-5 29 OFFCURVE",
"-5 29 CURVE",
"-5 0 LINE",
"-5 0 OFFCURVE",
"36 9 OFFCURVE",
"60 9 CURVE SMOOTH",
"84 9 OFFCURVE",
"125 2 OFFCURVE",
"125 2 CURVE",
"125 29 LINE",
"125 29 OFFCURVE",
"77 33 OFFCURVE",
"74 45 CURVE",
"94 157 LINE",
"223 157 LINE",
"256 -26 LINE",
"256 -27 LINE SMOOTH",
"254 -40 OFFCURVE",
"208 -44 OFFCURVE",
"208 -44 CURVE"
);
},
{
closed = 1;
nodes = (
"217 192 LINE",
"100 192 LINE",
"158 520 LINE"
);
}
);
width = 336;
}
);
leftKerningGroup = Agrave;
note = A;
rightKerningGroup = Agrave;
unicode = 0041;
},
{
glyphname = B;
layers = (
{
layerId = "D8F0BABD-30A0-4B34-9C55-2C8E337B4047";
paths = (
{
closed = 1;
nodes = (
"15 0 LINE",
"15 0 OFFCURVE",
"60 8 OFFCURVE",
"88 8 CURVE SMOOTH",
"102 8 OFFCURVE",
"162 6 OFFCURVE",
"176 6 CURVE",
"176 6 OFFCURVE",
"176 6 OFFCURVE",
"176 6 CURVE",
"210 6 OFFCURVE",
"248 8 OFFCURVE",
"277 25 CURVE SMOOTH",
"307 42 OFFCURVE",
"321 73 OFFCURVE",
"321 118 CURVE SMOOTH",
"321 185 OFFCURVE",
"277 206 OFFCURVE",
"232 214 CURVE",
"276 240 OFFCURVE",
"296 292 OFFCURVE",
"296 373 CURVE SMOOTH",
"296 514 OFFCURVE",
"289 610 OFFCURVE",
"120 610 CURVE SMOOTH",
"72 610 OFFCURVE",
"21 616 OFFCURVE",
"21 616 CURVE",
"21 589 LINE",
"21 589 OFFCURVE",
"64 586 OFFCURVE",
"68 573 CURVE",
"68 44 LINE",
"65 33 OFFCURVE",
"15 29 OFFCURVE",
"15 29 CURVE"
);
},
{
closed = 1;
nodes = (
"128 34 OFFCURVE",
"127 34 OFFCURVE",
"126 34 CURVE",
"126 190 LINE",
"131 190 OFFCURVE",
"135 190 OFFCURVE",
"139 190 CURVE SMOOTH",
"256 187 OFFCURVE",
"265 159 OFFCURVE",
"265 118 CURVE SMOOTH",
"265 61 OFFCURVE",
"228 33 OFFCURVE",
"154 33 CURVE SMOOTH",
"144 33 OFFCURVE",
"135 33 OFFCURVE",
"128 34 CURVE"
);
},
{
closed = 1;
nodes = (
"126 585 LINE",
"235 584 OFFCURVE",
"240 510 OFFCURVE",
"240 373 CURVE SMOOTH",
"240 280 OFFCURVE",
"221 222 OFFCURVE",
"126 220 CURVE"
);
}
);
width = 336;
}
);
note = B;
unicode = 0042;
},
{
glyphname = C;
layers = (
{
hints = (
{
horizontal = 1;
place = "{-41, 28}";
type = Stem;
},
{
horizontal = 1;
place = "{584, 32}";
type = Stem;
},
{
place = "{5, 61}";
type = Stem;
},
{
place = "{228, 23}";
type = Stem;
},
{
horizontal = 1;
place = "{0, 21}";
target = up;
type = BottomGhost;
},
{
horizontal = 1;
place = "{612, 8}";
type = Stem;
}
);
layerId = "D8F0BABD-30A0-4B34-9C55-2C8E337B4047";
paths = (
{
closed = 1;
nodes = (
"175 -41 OFFCURVE",
"209 -8 OFFCURVE",
"228 57 CURVE",
"228 0 LINE",
"257 0 LINE",
"256 7 LINE SMOOTH",
"256 8 OFFCURVE",
"251 59 OFFCURVE",
"251 105 CURVE SMOOTH",
"251 152 OFFCURVE",
"257 222 OFFCURVE",
"257 222 CURVE",
"257 222 OFFCURVE",
"241 218 OFFCURVE",
"235 218 CURVE SMOOTH",
"234 218 OFFCURVE",
"215 219 OFFCURVE",
"215 219 CURVE",
"215 219 OFFCURVE",
"223 -13 OFFCURVE",
"125 -13 CURVE SMOOTH",
"98 -13 OFFCURVE",
"66 41 OFFCURVE",
"66 300 CURVE SMOOTH",
"66 489 OFFCURVE",
"88 584 OFFCURVE",
"131 584 CURVE SMOOTH",
"220 584 OFFCURVE",
"212 360 OFFCURVE",
"212 360 CURVE",
"212 360 OFFCURVE",
"230 363 OFFCURVE",
"234 363 CURVE SMOOTH",
"238 363 OFFCURVE",
"257 360 OFFCURVE",
"257 360 CURVE",
"257 360 OFFCURVE",
"251 428 OFFCURVE",
"251 474 CURVE SMOOTH",
"251 521 OFFCURVE",
"256 612 OFFCURVE",
"256 612 CURVE",
"257 620 LINE",
"228 620 LINE",
"228 525 LINE",
"210 586 OFFCURVE",
"178 616 OFFCURVE",
"129 616 CURVE SMOOTH",
"50 616 OFFCURVE",
"5 501 OFFCURVE",
"5 300 CURVE SMOOTH",
"5 135 OFFCURVE",
"37 -41 OFFCURVE",
"125 -41 CURVE SMOOTH"
);
}
);
width = 272;
}
);
leftKerningGroup = C;
note = C;
rightKerningGroup = C;
unicode = 0043;
},
{
glyphname = D;
layers = (
{
hints = (
{
horizontal = 1;
place = "{0, 21}";
target = up;
type = BottomGhost;
},
{
horizontal = 1;
place = "{590, 21}";
type = Stem;
},
{
place = "{68, 59}";
type = Stem;
},
{
place = "{241, 56}";
type = Stem;
},
{
horizontal = 1;
place = "{7, 23}";
type = Stem;
}
);
layerId = "D8F0BABD-30A0-4B34-9C55-2C8E337B4047";
paths = (
{
closed = 1;
nodes = (
"15 0 LINE",
"15 0 OFFCURVE",
"60 9 OFFCURVE",
"88 9 CURVE SMOOTH",
"97 9 OFFCURVE",
"107 8 OFFCURVE",
"120 7 CURVE SMOOTH",
"234 7 OFFCURVE",
"297 107 OFFCURVE",
"297 290 CURVE SMOOTH",
"297 470 OFFCURVE",
"295 611 OFFCURVE",
"92 611 CURVE SMOOTH",
"66 611 OFFCURVE",
"21 618 OFFCURVE",
"21 618 CURVE",
"21 590 LINE",
"21 590 OFFCURVE",
"65 587 OFFCURVE",
"68 575 CURVE",
"68 45 LINE",
"65 33 OFFCURVE",
"15 29 OFFCURVE",
"15 29 CURVE"
);
},
{
closed = 1;
nodes = (
"127 590 LINE",
"230 586 OFFCURVE",
"241 474 OFFCURVE",
"241 290 CURVE SMOOTH",
"241 129 OFFCURVE",
"199 35 OFFCURVE",
"127 30 CURVE"
);
}
);
width = 312;
}
);
leftKerningGroup = D;
note = D;
rightKerningGroup = D;
unicode = 0044;
},
{
glyphname = E;
layers = (
{
hints = (
{
horizontal = 1;
place = "{-34, 28}";
type = Stem;
},
{
horizontal = 1;
place = "{151, 21}";
type = Stem;
},
{
horizontal = 1;
place = "{211, 35}";
type = Stem;
},
{
horizontal = 1;
place = "{582, 27}";
type = Stem;
},
{
place = "{68, 58}";
type = Stem;
},
{
place = "{261, 24}";
type = Stem;
},
{
place = "{261, 33}";
type = Stem;
},
{
place = "{214, 21}";
type = Stem;
},
{
horizontal = 1;
place = "{582, 81}";
type = Stem;
}
);
layerId = "D8F0BABD-30A0-4B34-9C55-2C8E337B4047";
paths = (
{
closed = 1;
nodes = (
"299 -59 LINE",
"299 -59 OFFCURVE",
"294 9 OFFCURVE",
"294 56 CURVE SMOOTH",
"294 103 OFFCURVE",
"299 172 OFFCURVE",
"299 172 CURVE",
"261 172 LINE",
"261 -6 LINE",
"126 -6 LINE",
"126 211 LINE",
"197 211 LINE",
"208 209 OFFCURVE",
"214 151 OFFCURVE",
"214 151 CURVE",
"243 151 LINE",
"243 151 OFFCURVE",
"235 200 OFFCURVE",
"235 231 CURVE SMOOTH",
"235 261 OFFCURVE",
"243 310 OFFCURVE",
"243 310 CURVE",
"214 310 LINE",
"214 310 OFFCURVE",
"208 249 OFFCURVE",
"198 246 CURVE",
"126 246 LINE",
"126 582 LINE",
"261 582 LINE",
"261 397 LINE",
"291 397 LINE",
"291 397 OFFCURVE",
"285 466 OFFCURVE",
"285 513 CURVE SMOOTH",
"285 560 OFFCURVE",
"291 663 OFFCURVE",
"291 663 CURVE",
"261 663 LINE",
"261 615 LINE",
"246 614 OFFCURVE",
"203 609 OFFCURVE",
"160 609 CURVE SMOOTH",
"108 609 OFFCURVE",
"21 616 OFFCURVE",
"21 616 CURVE",
"21 588 LINE",
"21 588 OFFCURVE",
"64 586 OFFCURVE",
"68 573 CURVE",
"68 3 LINE",
"65 -9 OFFCURVE",
"15 -13 OFFCURVE",
"15 -13 CURVE",
"15 -41 LINE",
"15 -41 OFFCURVE",
"93 -34 OFFCURVE",
"149 -34 CURVE SMOOTH",
"192 -34 OFFCURVE",
"240 -38 OFFCURVE",
"261 -40 CURVE",
"261 -59 LINE"
);
}
);
width = 314;
}
);
leftKerningGroup = E;
note = E;
rightKerningGroup = E;
unicode = 0045;
},
{
glyphname = F;
layers = (
{
hints = (
{
horizontal = 1;
place = "{0, 29}";
type = Stem;
},
{
horizontal = 1;
place = "{212, 34}";
type = Stem;
},
{
horizontal = 1;
place = "{582, 27}";
type = Stem;
},
{
place = "{68, 58}";
type = Stem;
},
{
place = "{271, 23}";
type = Stem;
},
{
place = "{231, 21}";
type = Stem;
},
{
horizontal = 1;
place = "{582, 81}";
type = Stem;
}
);
layerId = "D8F0BABD-30A0-4B34-9C55-2C8E337B4047";
paths = (
{
closed = 1;
nodes = (
"129 9 OFFCURVE",
"179 0 OFFCURVE",
"179 0 CURVE",
"179 29 LINE",
"179 29 OFFCURVE",
"129 33 OFFCURVE",
"126 46 CURVE",
"126 212 LINE",
"214 212 LINE",
"225 209 OFFCURVE",
"231 151 OFFCURVE",
"231 151 CURVE",
"260 152 LINE",
"260 152 OFFCURVE",
"252 200 OFFCURVE",
"252 231 CURVE SMOOTH",
"252 262 OFFCURVE",
"260 310 OFFCURVE",
"260 310 CURVE",
"231 310 LINE",
"231 310 OFFCURVE",
"225 249 OFFCURVE",
"215 246 CURVE",
"126 246 LINE",
"126 582 LINE",
"271 582 LINE",
"271 397 LINE",
"299 397 LINE",
"299 397 OFFCURVE",
"294 466 OFFCURVE",
"294 513 CURVE SMOOTH",
"294 560 OFFCURVE",
"299 663 OFFCURVE",
"299 663 CURVE",
"271 663 LINE",
"271 616 LINE",
"253 614 OFFCURVE",
"203 609 OFFCURVE",
"160 609 CURVE SMOOTH",
"108 609 OFFCURVE",
"21 616 OFFCURVE",
"21 616 CURVE",
"21 589 LINE",
"21 589 OFFCURVE",
"64 586 OFFCURVE",
"68 573 CURVE",
"68 45 LINE",
"65 33 OFFCURVE",
"15 29 OFFCURVE",
"15 29 CURVE",
"15 0 LINE",
"15 0 OFFCURVE",
"65 9 OFFCURVE",
"97 9 CURVE SMOOTH"
);
}
);
width = 314;
}
);
note = F;
unicode = 0046;
},
{
glyphname = G;
layers = (
{
hints = (
{
horizontal = 1;
place = "{-15, 28}";
type = Stem;
},
{
horizontal = 1;
place = "{232, 25}";
type = Stem;
},
{
horizontal = 1;
place = "{584, 32}";
type = Stem;
},
{
place = "{5, 61}";
type = Stem;
},
{
place = "{229, 23}";
type = Stem;
},
{
place = "{214, 32}";
type = Stem;
}
);
layerId = "D8F0BABD-30A0-4B34-9C55-2C8E337B4047";
paths = (
{
closed = 1;
nodes = (
"204 -15 OFFCURVE",
"245 68 OFFCURVE",
"246 232 CURVE",
"269 232 LINE",
"268 260 LINE",
"268 260 OFFCURVE",
"231 257 OFFCURVE",
"197 257 CURVE SMOOTH",
"162 257 OFFCURVE",
"109 260 OFFCURVE",
"109 260 CURVE",
"109 232 LINE",
"214 232 LINE",
"207 82 OFFCURVE",
"179 13 OFFCURVE",
"126 13 CURVE SMOOTH",
"72 13 OFFCURVE",
"66 174 OFFCURVE",
"66 296 CURVE SMOOTH",
"66 487 OFFCURVE",
"88 584 OFFCURVE",
"131 584 CURVE SMOOTH",
"229 584 OFFCURVE",
"212 357 OFFCURVE",
"212 357 CURVE",
"212 357 OFFCURVE",
"230 360 OFFCURVE",
"234 360 CURVE SMOOTH",
"238 360 OFFCURVE",
"257 357 OFFCURVE",
"257 357 CURVE",
"257 357 OFFCURVE",
"252 425 OFFCURVE",
"252 473 CURVE SMOOTH",
"252 520 OFFCURVE",
"256 608 OFFCURVE",
"257 609 CURVE",
"257 616 LINE",
"229 616 LINE",
"229 524 LINE",
"211 586 OFFCURVE",
"178 616 OFFCURVE",
"130 616 CURVE SMOOTH",
"51 616 OFFCURVE",
"5 500 OFFCURVE",
"5 296 CURVE SMOOTH",
"5 95 OFFCURVE",
"48 -15 OFFCURVE",
"126 -15 CURVE SMOOTH"
);
}
);
width = 274;
}
);
note = G;
unicode = 0047;
},
{
glyphname = H;
layers = (
{
hints = (
{
horizontal = 1;
place = "{-75, 21}";
type = Stem;
},
{
horizontal = 1;
place = "{0, 29}";
type = Stem;
},
{
horizontal = 1;
place = "{262, 35}";
type = Stem;
},
{
horizontal = 1;
place = "{560, 21}";
type = Stem;
},
{
horizontal = 1;
place = "{663, -20}";
target = down;
type = TopGhost;
},
{
place = "{68, 58}";
type = Stem;
},
{
place = "{267, 59}";
type = Stem;
},
{
horizontal = 1;
place = "{634, 21}";
type = Stem;
}
);
layerId = "D8F0BABD-30A0-4B34-9C55-2C8E337B4047";
paths = (
{
closed = 1;
nodes = (
"379 -54 OFFCURVE",
"328 -50 OFFCURVE",
"326 -38 CURVE",
"326 545 LINE",
"329 558 OFFCURVE",
"373 560 OFFCURVE",
"373 560 CURVE",
"373 590 LINE",
"373 590 OFFCURVE",
"329 581 OFFCURVE",
"301 581 CURVE SMOOTH",
"272 581 OFFCURVE",
"221 589 OFFCURVE",
"221 589 CURVE",
"221 560 LINE",
"221 560 OFFCURVE",
"264 558 OFFCURVE",
"267 545 CURVE",
"267 297 LINE",
"126 297 LINE",
"126 618 LINE",
"129 631 OFFCURVE",
"173 634 OFFCURVE",
"173 634 CURVE",
"173 663 LINE",
"173 663 OFFCURVE",
"130 655 OFFCURVE",
"101 655 CURVE SMOOTH",
"73 655 OFFCURVE",
"21 661 OFFCURVE",
"21 661 CURVE",
"21 634 LINE",
"21 634 OFFCURVE",
"64 631 OFFCURVE",
"68 618 CURVE",
"68 45 LINE",
"65 33 OFFCURVE",
"15 29 OFFCURVE",
"15 29 CURVE",
"15 0 LINE",
"15 0 OFFCURVE",
"65 9 OFFCURVE",
"97 9 CURVE SMOOTH",
"129 9 OFFCURVE",
"179 0 OFFCURVE",
"179 0 CURVE",
"179 29 LINE",
"179 29 OFFCURVE",
"129 33 OFFCURVE",
"126 46 CURVE",
"126 262 LINE",
"267 262 LINE",
"267 -38 LINE",
"264 -50 OFFCURVE",
"215 -54 OFFCURVE",
"215 -54 CURVE",
"215 -83 LINE",
"215 -83 OFFCURVE",
"265 -75 OFFCURVE",
"297 -75 CURVE SMOOTH",
"329 -75 OFFCURVE",
"379 -83 OFFCURVE",
"379 -83 CURVE",
"379 -54 LINE"
);
}
);
width = 355;
}
);
note = H;
unicode = 0048;
},
{
glyphname = I;
layers = (
{
hints = (
{
horizontal = 1;
place = "{0, 29}";
type = Stem;
},
{
horizontal = 1;
place = "{589, 20}";
type = Stem;
},
{
place = "{58, 58}";
type = Stem;
}
);
layerId = "D8F0BABD-30A0-4B34-9C55-2C8E337B4047";
paths = (
{
closed = 1;
nodes = (
"5 0 LINE",
"5 0 OFFCURVE",
"55 9 OFFCURVE",
"87 9 CURVE SMOOTH",
"119 9 OFFCURVE",
"169 0 OFFCURVE",
"169 0 CURVE",
"169 29 LINE",
"169 29 OFFCURVE",
"118 33 OFFCURVE",
"116 46 CURVE",
"116 573 LINE",
"119 586 OFFCURVE",
"163 589 OFFCURVE",
"163 589 CURVE",
"163 618 LINE",
"163 618 OFFCURVE",
"120 609 OFFCURVE",
"91 609 CURVE SMOOTH",
"63 609 OFFCURVE",
"11 616 OFFCURVE",
"11 616 CURVE",
"11 589 LINE",
"11 589 OFFCURVE",
"54 586 OFFCURVE",
"58 573 CURVE",
"58 45 LINE",
"55 33 OFFCURVE",
"5 29 OFFCURVE",
"5 29 CURVE"
);
}
);
width = 174;
}
);
note = I;
rightKerningGroup = I;
unicode = 0049;
},
{
glyphname = J;
layers = (
{
hints = (
{
horizontal = 1;
place = "{-199, 25}";
type = Stem;
},
{
horizontal = 1;
place = "{589, 20}";
type = Stem;
},
{
place = "{-94, 23}";
type = Stem;
},
{
place = "{44, 59}";
type = Stem;
}
);
layerId = "D8F0BABD-30A0-4B34-9C55-2C8E337B4047";
paths = (
{
closed = 1;
nodes = (
"-71 -245 LINE",
"-71 -193 LINE",
"-62 -197 OFFCURVE",
"-53 -199 OFFCURVE",
"-44 -199 CURVE SMOOTH",
"56 -199 OFFCURVE",
"103 -115 OFFCURVE",
"103 65 CURVE",
"103 65 OFFCURVE",
"103 572 OFFCURVE",
"103 574 CURVE",
"107 586 OFFCURVE",
"150 589 OFFCURVE",
"150 589 CURVE",
"150 618 LINE",
"150 618 OFFCURVE",
"107 609 OFFCURVE",
"78 609 CURVE SMOOTH",
"49 609 OFFCURVE",
"-2 616 OFFCURVE",
"-2 616 CURVE",
"-2 589 LINE",
"-2 589 OFFCURVE",
"41 586 OFFCURVE",
"44 573 CURVE",
"44 68 LINE SMOOTH",
"42 -100 OFFCURVE",
"13 -174 OFFCURVE",
"-48 -174 CURVE SMOOTH",
"-57 -174 OFFCURVE",
"-65 -172 OFFCURVE",
"-71 -169 CURVE",
"-71 -88 LINE",
"-100 -88 LINE",
"-100 -88 OFFCURVE",
"-94 -121 OFFCURVE",
"-94 -156 CURVE SMOOTH",
"-94 -192 OFFCURVE",
"-100 -245 OFFCURVE",
"-100 -245 CURVE"
);
}
);
width = 165;
}
);
note = J;
unicode = 004A;
},
{
glyphname = K;
layers = (
{
hints = (
{
horizontal = 1;
place = "{-67, 21}";
type = Stem;
},
{
horizontal = 1;
place = "{0, 29}";
type = Stem;
},
{
horizontal = 1;
place = "{588, 21}";
type = Stem;
},
{
horizontal = 1;
place = "{663, -20}";
target = down;
type = TopGhost;
},
{
place = "{58, 58}";
type = Stem;
},
{
place = "{199, 158}";
type = Stem;
},
{
place = "{223, 134}";
type = Stem;
},
{
horizontal = 1;
place = "{634, 21}";
type = Stem;
}
);
layerId = "D8F0BABD-30A0-4B34-9C55-2C8E337B4047";
paths = (
{
closed = 1;
nodes = (
"199 -75 LINE",
"199 -75 OFFCURVE",
"247 -67 OFFCURVE",
"278 -67 CURVE SMOOTH",
"309 -67 OFFCURVE",
"357 -75 OFFCURVE",
"357 -75 CURVE",
"357 -46 LINE",
"357 -46 OFFCURVE",
"300 -42 OFFCURVE",
"293 -33 CURVE",
"158 260 LINE",
"304 571 LINE SMOOTH",
"310 585 OFFCURVE",
"357 588 OFFCURVE",
"357 588 CURVE",
"357 618 LINE",
"357 618 OFFCURVE",
"316 609 OFFCURVE",
"290 609 CURVE SMOOTH",
"265 609 OFFCURVE",
"223 616 OFFCURVE",
"223 616 CURVE",
"223 588 LINE",
"223 588 OFFCURVE",
"273 584 OFFCURVE",
"275 575 CURVE",
"116 238 LINE",
"116 618 LINE",
"120 631 OFFCURVE",
"163 634 OFFCURVE",
"163 634 CURVE",
"163 663 LINE",
"163 663 OFFCURVE",
"120 655 OFFCURVE",
"92 655 CURVE SMOOTH",
"63 655 OFFCURVE",
"11 661 OFFCURVE",
"11 661 CURVE",
"11 634 LINE",
"11 634 OFFCURVE",
"54 631 OFFCURVE",
"58 618 CURVE",
"58 45 LINE",
"55 33 OFFCURVE",
"5 29 OFFCURVE",
"5 29 CURVE",
"5 0 LINE",
"5 0 OFFCURVE",
"55 9 OFFCURVE",
"87 9 CURVE SMOOTH",
"119 9 OFFCURVE",
"169 0 OFFCURVE",
"169 0 CURVE",
"169 29 LINE",
"169 29 OFFCURVE",
"119 33 OFFCURVE",
"116 46 CURVE",
"116 171 LINE",
"130 199 LINE",
"237 -39 LINE",
"226 -45 OFFCURVE",
"199 -46 OFFCURVE",
"199 -46 CURVE"
);
}
);
width = 292;
}
);
note = K;
unicode = 004B;
},
{
glyphname = L;
layers = (
{
hints = (
{
horizontal = 1;
place = "{7, 28}";
type = Stem;
},
{
horizontal = 1;
place = "{663, -20}";
target = down;
type = TopGhost;
},
{
place = "{52, 58}";
type = Stem;
},
{
place = "{218, 22}";
type = Stem;
},
{
horizontal = 1;
place = "{634, 21}";
type = Stem;
},
{
horizontal = 1;
place = "{0, 28}";
type = Stem;
},
{
horizontal = 1;
place = "{0, 35}";
type = Stem;
}
);
layerId = "D8F0BABD-30A0-4B34-9C55-2C8E337B4047";
paths = (
{
closed = 1;
nodes = (
"245 -18 LINE",
"245 -18 OFFCURVE",
"240 50 OFFCURVE",
"240 97 CURVE SMOOTH",
"240 144 OFFCURVE",
"245 213 OFFCURVE",
"245 213 CURVE",
"218 213 LINE",
"218 35 LINE",
"110 35 LINE",
"110 618 LINE",
"114 631 OFFCURVE",
"157 634 OFFCURVE",
"157 634 CURVE",
"157 663 LINE",
"157 663 OFFCURVE",
"114 655 OFFCURVE",
"86 655 CURVE SMOOTH",
"57 655 OFFCURVE",
"5 661 OFFCURVE",
"5 661 CURVE",
"5 634 LINE",
"12 634 LINE SMOOTH",
"22 634 OFFCURVE",
"48 631 OFFCURVE",
"52 618 CURVE",
"52 44 LINE",
"49 32 OFFCURVE",
"-1 28 OFFCURVE",
"-1 28 CURVE",
"-1 0 LINE",
"-1 0 OFFCURVE",
"68 7 OFFCURVE",
"116 7 CURVE SMOOTH",
"154 7 OFFCURVE",
"201 3 OFFCURVE",
"218 1 CURVE",
"218 -18 LINE"
);
}
);
width = 260;
}
);
note = L;
unicode = 004C;
},
{
glyphname = M;
layers = (
{
hints = (
{
horizontal = 1;
place = "{-75, 21}";
type = Stem;
},
{
horizontal = 1;
place = "{1, 29}";
type = Stem;
},
{
horizontal = 1;
place = "{70, 21}";
type = Stem;
},
{
horizontal = 1;
place = "{587, 21}";
type = Stem;
},
{
horizontal = 1;
place = "{663, -20}";
target = down;
type = TopGhost;
},
{
place = "{37, 36}";
type = Stem;
},
{
place = "{118, 129}";
type = Stem;
},
{
place = "{280, 59}";
type = Stem;
},
{
horizontal = 1;
place = "{633, 21}";
type = Stem;
}
);
layerId = "D8F0BABD-30A0-4B34-9C55-2C8E337B4047";
paths = (
{
closed = 1;
nodes = (
"126 1 LINE",
"126 30 LINE",
"126 30 OFFCURVE",
"76 34 OFFCURVE",
"73 46 CURVE",
"73 495 LINE",
"152 103 LINE",
"145 95 OFFCURVE",
"118 90 OFFCURVE",
"118 90 CURVE",
"119 63 LINE",
"119 63 OFFCURVE",
"159 70 OFFCURVE",
"184 70 CURVE SMOOTH",
"208 70 OFFCURVE",
"248 61 OFFCURVE",
"248 61 CURVE",
"248 91 LINE",
"248 91 OFFCURVE",
"217 92 OFFCURVE",
"207 99 CURVE",
"280 458 LINE",
"280 -38 LINE",
"277 -50 OFFCURVE",
"227 -54 OFFCURVE",
"227 -54 CURVE",
"227 -83 LINE",
"227 -83 OFFCURVE",
"277 -75 OFFCURVE",
"310 -75 CURVE SMOOTH",
"342 -75 OFFCURVE",
"392 -83 OFFCURVE",
"392 -83 CURVE",
"392 -54 LINE",
"392 -54 OFFCURVE",
"341 -50 OFFCURVE",
"339 -38 CURVE",
"339 571 LINE",
"342 584 OFFCURVE",
"386 587 OFFCURVE",
"386 587 CURVE",
"386 617 LINE",
"386 617 OFFCURVE",
"354 608 OFFCURVE",
"335 608 CURVE SMOOTH",
"317 608 OFFCURVE",
"280 617 OFFCURVE",
"280 617 CURVE",
"190 147 LINE",
"87 662 LINE",
"87 662 OFFCURVE",
"54 654 OFFCURVE",
"37 654 CURVE SMOOTH",
"18 654 OFFCURVE",
"-16 663 OFFCURVE",
"-16 663 CURVE",
"-16 633 LINE",
"-16 633 OFFCURVE",
"34 629 OFFCURVE",
"37 618 CURVE",
"37 45 LINE",
"34 34 OFFCURVE",
"-16 30 OFFCURVE",
"-16 30 CURVE",
"-16 1 LINE",
"-16 1 OFFCURVE",
"28 9 OFFCURVE",
"55 9 CURVE SMOOTH",
"82 9 OFFCURVE",
"117 2 OFFCURVE",
"118 2 CURVE SMOOTH"
);
}
);
width = 383;
}
);
note = M;
unicode = 004D;
},
{
glyphname = N;
layers = (
{
hints = (
{
horizontal = 1;
place = "{-75, 20}";
type = Stem;
},
{
horizontal = 1;
place = "{0, 29}";
type = Stem;
},
{
horizontal = 1;
place = "{560, 20}";
type = Stem;
},
{
horizontal = 1;
place = "{663, -20}";
target = down;
type = TopGhost;
},
{
place = "{37, 36}";
type = Stem;
},
{
place = "{227, 36}";
type = Stem;
},
{
horizontal = 1;
place = "{633, 21}";
type = Stem;
}
);
layerId = "D8F0BABD-30A0-4B34-9C55-2C8E337B4047";
paths = (
{
closed = 1;
nodes = (
"-16 0 LINE",
"-16 0 OFFCURVE",
"27 8 OFFCURVE",
"55 8 CURVE SMOOTH",
"82 8 OFFCURVE",
"126 0 OFFCURVE",
"126 0 CURVE",
"126 29 LINE",
"126 29 OFFCURVE",
"76 33 OFFCURVE",
"73 45 CURVE",
"73 540 LINE",
"206 -45 LINE",
"198 -51 OFFCURVE",
"175 -55 OFFCURVE",
"175 -55 CURVE",
"174 -82 LINE",
"174 -82 OFFCURVE",
"216 -75 OFFCURVE",
"240 -75 CURVE SMOOTH",
"264 -75 OFFCURVE",
"305 -84 OFFCURVE",
"305 -84 CURVE",
"305 -55 LINE",
"305 -55 OFFCURVE",
"273 -53 OFFCURVE",
"263 -47 CURVE",
"263 544 LINE",
"266 556 OFFCURVE",
"316 560 OFFCURVE",
"316 560 CURVE",
"316 587 LINE",
"316 587 OFFCURVE",
"271 580 OFFCURVE",
"245 580 CURVE SMOOTH",
"219 580 OFFCURVE",
"174 587 OFFCURVE",
"174 587 CURVE",
"175 560 LINE",
"175 560 OFFCURVE",
"224 556 OFFCURVE",
"227 544 CURVE",
"227 90 LINE",
"87 662 LINE",
"87 662 OFFCURVE",
"54 654 OFFCURVE",
"37 654 CURVE SMOOTH",
"18 654 OFFCURVE",
"-16 663 OFFCURVE",
"-16 663 CURVE",
"-16 633 LINE",
"-16 633 OFFCURVE",
"34 629 OFFCURVE",
"37 618 CURVE",
"37 44 LINE",
"34 33 OFFCURVE",
"-16 29 OFFCURVE",
"-16 29 CURVE"
);
}
);
width = 305;
}
);
leftKerningGroup = N;
note = N;
rightKerningGroup = N;
unicode = 004E;
},
{
glyphname = O;
layers = (
{
hints = (
{
horizontal = 1;
place = "{2, 27}";
type = Stem;
},
{
horizontal = 1;
place = "{560, 32}";
type = Stem;
},
{
place = "{5, 58}";
type = Stem;
},
{
place = "{253, 58}";
type = Stem;
}
);
layerId = "D8F0BABD-30A0-4B34-9C55-2C8E337B4047";
paths = (
{
closed = 1;
nodes = (
"263 2 OFFCURVE",
"311 150 OFFCURVE",
"311 287 CURVE SMOOTH",
"311 464 OFFCURVE",
"246 592 OFFCURVE",
"156 592 CURVE SMOOTH",
"67 592 OFFCURVE",
"5 466 OFFCURVE",
"5 287 CURVE SMOOTH",
"5 90 OFFCURVE",
"81 2 OFFCURVE",
"156 2 CURVE SMOOTH"
);
},
{
closed = 1;
nodes = (
"203 560 OFFCURVE",
"253 465 OFFCURVE",
"253 287 CURVE SMOOTH",
"253 99 OFFCURVE",
"194 29 OFFCURVE",
"156 29 CURVE SMOOTH",
"110 29 OFFCURVE",
"63 118 OFFCURVE",
"63 287 CURVE SMOOTH",
"63 467 OFFCURVE",
"110 560 OFFCURVE",
"156 560 CURVE SMOOTH"
);
}
);
width = 316;
}
);
leftKerningGroup = O;
note = O;
rightKerningGroup = O;
unicode = 004F;
},
{
glyphname = P;
layers = (
{
hints = (
{
horizontal = 1;
place = "{0, 29}";
type = Stem;
},
{
horizontal = 1;
place = "{219, 29}";
type = Stem;
},
{
horizontal = 1;
place = "{635, 28}";
type = Stem;
},
{
place = "{43, 59}";
type = Stem;
},
{
place = "{216, 56}";
type = Stem;
},
{
horizontal = 1;
place = "{635, 23}";
type = Stem;
}
);
layerId = "D8F0BABD-30A0-4B34-9C55-2C8E337B4047";
paths = (
{
closed = 1;
nodes = (
"105 9 OFFCURVE",
"155 0 OFFCURVE",
"155 0 CURVE",
"155 29 LINE",
"155 29 OFFCURVE",
"104 33 OFFCURVE",
"102 45 CURVE",
"102 219 LINE",
"191 220 OFFCURVE",
"272 291 OFFCURVE",
"272 448 CURVE SMOOTH",
"272 593 OFFCURVE",
"248 656 OFFCURVE",
"102 658 CURVE",
"102 658 OFFCURVE",
"75 656 OFFCURVE",
"67 656 CURVE SMOOTH",
"41 656 OFFCURVE",
"-4 663 OFFCURVE",
"-4 663 CURVE",
"-4 635 LINE",
"-4 635 OFFCURVE",
"40 632 OFFCURVE",
"43 620 CURVE",
"43 45 LINE",
"40 33 OFFCURVE",
"-10 29 OFFCURVE",
"-10 29 CURVE",
"-10 0 LINE",
"-10 0 OFFCURVE",
"40 9 OFFCURVE",
"72 9 CURVE SMOOTH"
);
},
{
closed = 1;
nodes = (
"102 635 LINE",
"204 634 OFFCURVE",
"216 594 OFFCURVE",
"216 448 CURVE SMOOTH",
"216 355 OFFCURVE",
"196 251 OFFCURVE",
"102 248 CURVE"
);
}
);
width = 287;
}
);
note = P;
unicode = 0050;
},
{
glyphname = Q;
layers = (
{
hints = (
{
horizontal = 1;
place = "{-65, 28}";
type = Stem;
},
{
horizontal = 1;
place = "{2, 27}";
type = Stem;
},
{
horizontal = 1;
place = "{588, 31}";
type = Stem;
},
{
place = "{5, 58}";
type = Stem;
},
{
place = "{253, 58}";
type = Stem;
}
);
layerId = "D8F0BABD-30A0-4B34-9C55-2C8E337B4047";
paths = (
{
closed = 1;
nodes = (
"341 -65 LINE",
"341 -37 LINE",
"341 -37 OFFCURVE",
"337 -37 OFFCURVE",
"319 -37 CURVE SMOOTH",
"270 -37 OFFCURVE",
"234 -19 OFFCURVE",
"199 -2 CURVE SMOOTH",
"194 1 OFFCURVE",
"189 3 OFFCURVE",
"184 6 CURVE",
"251 25 OFFCURVE",
"311 115 OFFCURVE",
"311 287 CURVE SMOOTH",
"311 473 OFFCURVE",
"243 619 OFFCURVE",
"156 619 CURVE SMOOTH",
"71 619 OFFCURVE",
"5 473 OFFCURVE",
"5 287 CURVE SMOOTH",
"5 168 OFFCURVE",
"35 74 OFFCURVE",
"86 29 CURVE",
"21 29 LINE",
"21 2 LINE",
"108 2 OFFCURVE",
"229 -65 OFFCURVE",
"310 -65 CURVE SMOOTH"
);
},
{
closed = 1;
nodes = (
"203 588 OFFCURVE",
"253 467 OFFCURVE",
"253 287 CURVE SMOOTH",
"253 99 OFFCURVE",
"194 29 OFFCURVE",
"156 29 CURVE SMOOTH",
"110 29 OFFCURVE",
"63 118 OFFCURVE",
"63 287 CURVE SMOOTH",
"63 467 OFFCURVE",
"111 588 OFFCURVE",
"156 588 CURVE SMOOTH"
);
}
);
width = 311;
}
);
leftKerningGroup = O;
note = Q;
rightKerningGroup = O;
unicode = 0051;
},
{
glyphname = R;
layers = (
{
hints = (
{
horizontal = 1;
place = "{-70, 21}";
type = Stem;
},
{
horizontal = 1;
place = "{0, 29}";
type = Stem;
},
{
horizontal = 1;
place = "{175, 30}";
type = Stem;
},
{
horizontal = 1;
place = "{589, 23}";
type = Stem;
},
{
place = "{41, 58}";
type = Stem;
},
{
place = "{213, 56}";
type = Stem;
},
{
place = "{184, 158}";
type = Stem;
}
);
layerId = "D8F0BABD-30A0-4B34-9C55-2C8E337B4047";
paths = (
{
closed = 1;
nodes = (
"294 -70 OFFCURVE",
"342 -78 OFFCURVE",
"342 -78 CURVE",
"342 -49 LINE",
"342 -49 OFFCURVE",
"286 -45 OFFCURVE",
"278 -36 CURVE",
"174 190 LINE",
"237 218 OFFCURVE",
"269 312 OFFCURVE",
"269 412 CURVE SMOOTH",
"269 560 OFFCURVE",
"245 610 OFFCURVE",
"99 612 CURVE",
"99 612 OFFCURVE",
"73 610 OFFCURVE",
"65 610 CURVE SMOOTH",
"38 610 OFFCURVE",
"-6 617 OFFCURVE",
"-6 617 CURVE",
"-6 590 LINE",
"-6 590 OFFCURVE",
"37 587 OFFCURVE",
"41 574 CURVE",
"41 45 LINE",
"38 33 OFFCURVE",
"-12 29 OFFCURVE",
"-12 29 CURVE",
"-12 0 LINE",
"-12 0 OFFCURVE",
"38 9 OFFCURVE",
"70 9 CURVE SMOOTH",
"102 9 OFFCURVE",
"152 0 OFFCURVE",
"152 0 CURVE",
"152 29 LINE",
"152 29 OFFCURVE",
"102 33 OFFCURVE",
"99 45 CURVE",
"99 175 LINE",
"107 175 OFFCURVE",
"115 176 OFFCURVE",
"123 177 CURVE",
"222 -43 LINE",
"211 -48 OFFCURVE",
"184 -49 OFFCURVE",
"184 -49 CURVE",
"184 -78 LINE",
"184 -78 OFFCURVE",
"232 -70 OFFCURVE",
"263 -70 CURVE SMOOTH"
);
},
{
closed = 1;
nodes = (
"99 589 LINE",
"203 588 OFFCURVE",
"213 555 OFFCURVE",
"213 412 CURVE SMOOTH",
"213 308 OFFCURVE",
"182 220 OFFCURVE",
"120 207 CURVE",
"120 207 OFFCURVE",
"103 205 OFFCURVE",
"99 205 CURVE"
);
}
);
width = 277;
}
);
note = R;
unicode = 0052;
},
{
glyphname = S;
layers = (
{
hints = (
{
horizontal = 1;
place = "{2, 27}";
type = Stem;
},
{
horizontal = 1;
place = "{590, 28}";
type = Stem;
},
{
place = "{21, 22}";
type = Stem;
},
{
place = "{183, 23}";
type = Stem;
},
{
place = "{35, 44}";
type = Stem;
},
{
place = "{177, 62}";
type = Stem;
}
);
layerId = "D8F0BABD-30A0-4B34-9C55-2C8E337B4047";
paths = (
{
closed = 1;
nodes = (
"174 2 OFFCURVE",
"239 54 OFFCURVE",
"239 141 CURVE SMOOTH",
"239 233 OFFCURVE",
"189 290 OFFCURVE",
"146 341 CURVE SMOOTH",
"112 381 OFFCURVE",
"82 445 OFFCURVE",
"79 489 CURVE SMOOTH",
"76 531 OFFCURVE",
"83 563 OFFCURVE",
"97 579 CURVE SMOOTH",
"104 586 OFFCURVE",
"113 590 OFFCURVE",
"124 590 CURVE SMOOTH",
"197 590 OFFCURVE",
"183 427 OFFCURVE",
"183 427 CURVE",
"211 427 LINE",
"211 427 OFFCURVE",
"206 495 OFFCURVE",
"206 542 CURVE SMOOTH",
"206 589 OFFCURVE",
"211 649 OFFCURVE",
"211 649 CURVE",
"183 649 LINE",
"183 590 LINE",
"169 609 OFFCURVE",
"150 618 OFFCURVE",
"124 618 CURVE SMOOTH",
"91 618 OFFCURVE",
"35 601 OFFCURVE",
"35 489 CURVE SMOOTH",
"35 420 OFFCURVE",
"73 340 OFFCURVE",
"109 290 CURVE SMOOTH",
"144 242 OFFCURVE",
"177 196 OFFCURVE",
"177 137 CURVE SMOOTH",
"177 63 OFFCURVE",
"157 29 OFFCURVE",
"113 29 CURVE SMOOTH",
"70 29 OFFCURVE",
"43 76 OFFCURVE",
"43 153 CURVE SMOOTH",
"43 233 LINE",
"15 233 LINE",
"15 233 OFFCURVE",
"21 164 OFFCURVE",
"21 117 CURVE SMOOTH",
"21 70 OFFCURVE",
"15 2 OFFCURVE",
"15 2 CURVE",
"43 2 LINE",
"43 36 LINE",
"58 13 OFFCURVE",
"81 2 OFFCURVE",
"112 2 CURVE SMOOTH"
);
}
);
width = 240;
}
);
leftKerningGroup = S;
note = S;
rightKerningGroup = S;
unicode = 0053;
},
{
glyphname = T;
layers = (
{
hints = (
{
horizontal = 1;
place = "{-1, 28}";
type = Stem;
},
{
horizontal = 1;
place = "{520, 33}";
type = Stem;
},
{
place = "{7, 22}";
type = Stem;
},
{
place = "{122, 58}";
type = Stem;
},
{
place = "{272, 23}";
type = Stem;
}
);
layerId = "D8F0BABD-30A0-4B34-9C55-2C8E337B4047";
paths = (
{
closed = 1;
nodes = (
"182 6 OFFCURVE",
"233 -1 OFFCURVE",
"233 -1 CURVE",
"233 27 LINE",
"233 27 OFFCURVE",
"182 31 OFFCURVE",
"180 43 CURVE",
"180 520 LINE",
"257 520 LINE",
"269 517 OFFCURVE",
"272 503 OFFCURVE",
"272 461 CURVE",
"301 461 LINE",
"301 461 OFFCURVE",
"295 491 OFFCURVE",
"295 518 CURVE SMOOTH",
"295 545 OFFCURVE",
"301 587 OFFCURVE",
"301 587 CURVE",
"279 587 LINE",
"272 587 LINE",
"272 587 OFFCURVE",
"272 557 OFFCURVE",
"257 553 CURVE",
"45 553 LINE",
"30 557 OFFCURVE",
"29 587 OFFCURVE",
"29 587 CURVE",
"1 587 LINE",
"1 587 OFFCURVE",
"7 545 OFFCURVE",
"7 518 CURVE SMOOTH",
"7 491 OFFCURVE",
"1 461 OFFCURVE",
"1 461 CURVE",
"29 461 LINE",
"29 503 OFFCURVE",
"33 517 OFFCURVE",
"45 520 CURVE",
"122 520 LINE",
"122 42 LINE",
"119 31 OFFCURVE",
"69 27 OFFCURVE",
"69 27 CURVE",
"69 -1 LINE",
"69 -1 OFFCURVE",
"120 6 OFFCURVE",
"151 6 CURVE SMOOTH"
);
}
);
width = 301;
}
);
note = T;
unicode = 0054;
},
{
glyphname = U;
layers = (
{
hints = (
{
horizontal = 1;
place = "{2, 27}";
type = Stem;
},
{
horizontal = 1;
place = "{562, 21}";
type = Stem;
},
{
horizontal = 1;
place = "{631, 22}";
type = Stem;
},
{
place = "{41, 59}";
type = Stem;
},
{
place = "{216, 36}";
type = Stem;
}
);
layerId = "D8F0BABD-30A0-4B34-9C55-2C8E337B4047";
paths = (
{
closed = 1;
nodes = (
"240 2 OFFCURVE",
"252 78 OFFCURVE",
"252 160 CURVE SMOOTH",
"252 616 LINE",
"255 628 OFFCURVE",
"305 632 OFFCURVE",
"305 632 CURVE",
"305 661 LINE",
"305 661 OFFCURVE",
"261 653 OFFCURVE",
"234 653 CURVE SMOOTH",
"207 653 OFFCURVE",
"163 661 OFFCURVE",
"163 661 CURVE",
"163 631 LINE",
"163 631 OFFCURVE",
"213 628 OFFCURVE",
"216 616 CURVE",
"216 160 LINE SMOOTH",
"216 71 OFFCURVE",
"195 29 OFFCURVE",
"151 29 CURVE SMOOTH",
"109 29 OFFCURVE",
"100 100 OFFCURVE",
"100 160 CURVE SMOOTH",
"100 546 LINE",
"103 559 OFFCURVE",
"147 562 OFFCURVE",
"147 562 CURVE",
"147 591 LINE",
"147 591 OFFCURVE",
"104 583 OFFCURVE",
"75 583 CURVE SMOOTH",
"47 583 OFFCURVE",
"-5 590 OFFCURVE",
"-5 590 CURVE",
"-5 562 LINE",
"-5 562 OFFCURVE",
"37 559 OFFCURVE",
"41 548 CURVE",
"41 160 LINE SMOOTH",
"41 84 OFFCURVE",
"50 2 OFFCURVE",
"151 2 CURVE SMOOTH"
);
}
);
width = 281;
}
);
leftKerningGroup = U;
note = U;
rightKerningGroup = U;
unicode = 0055;
},
{
glyphname = V;
layers = (
{
hints = (
{
horizontal = 1;
place = "{-34, 21}";
type = Stem;
},
{
horizontal = 1;
place = "{560, 22}";
type = Stem;
},
{
horizontal = 1;
place = "{663, -20}";
target = down;
type = TopGhost;
},
{
place = "{-52, 158}";
type = Stem;
},
{
place = "{204, 130}";
type = Stem;
},
{
place = "{51, 165}";
type = Stem;
},
{
horizontal = 1;
place = "{634, 20}";
type = Stem;
}
);
layerId = "D8F0BABD-30A0-4B34-9C55-2C8E337B4047";
paths = (
{
closed = 1;
nodes = (
"51 -42 LINE",
"51 -42 OFFCURVE",
"101 -34 OFFCURVE",
"134 -34 CURVE SMOOTH",
"166 -34 OFFCURVE",
"216 -42 OFFCURVE",
"216 -42 CURVE",
"216 -13 LINE",
"216 -13 OFFCURVE",
"173 -10 OFFCURVE",
"169 2 CURVE",
"282 599 LINE",
"282 596 LINE",
"286 617 LINE SMOOTH",
"288 630 OFFCURVE",
"334 634 OFFCURVE",
"334 634 CURVE",
"334 663 LINE",
"334 663 OFFCURVE",
"294 654 OFFCURVE",
"270 654 CURVE SMOOTH",
"245 654 OFFCURVE",
"204 661 OFFCURVE",
"204 661 CURVE",
"204 634 LINE",
"211 634 LINE SMOOTH",
"224 634 OFFCURVE",
"251 630 OFFCURVE",
"256 619 CURVE",
"150 57 LINE",
"58 545 LINE",
"62 557 OFFCURVE",
"106 560 OFFCURVE",
"106 560 CURVE",
"106 590 LINE",
"106 590 OFFCURVE",
"58 582 OFFCURVE",
"27 582 CURVE SMOOTH",
"-4 582 OFFCURVE",
"-52 590 OFFCURVE",
"-52 590 CURVE",
"-52 561 LINE",
"-52 561 OFFCURVE",
"-3 557 OFFCURVE",
"-1 545 CURVE SMOOTH",
"101 2 LINE",
"98 -9 OFFCURVE",
"51 -13 OFFCURVE",
"51 -13 CURVE"
);
}
);
width = 265;
}
);
note = V;
unicode = 0056;
},
{
glyphname = W;
layers = (
{
hints = (
{
horizontal = 1;
place = "{-71, 21}";
type = Stem;
},
{
horizontal = 1;
place = "{0, 29}";
type = Stem;
},
{
horizontal = 1;
place = "{515, 21}";
type = Stem;
},
{
horizontal = 1;
place = "{663, -20}";
target = down;
type = TopGhost;
},
{
place = "{-1, 159}";
type = Stem;
},
{
place = "{228, 130}";
type = Stem;
},
{
place = "{469, 130}";
type = Stem;
},
{
place = "{318, 165}";
type = Stem;
},
{
horizontal = 1;
place = "{634, 20}";
type = Stem;
},
{
horizontal = 1;
place = "{559, 21}";
type = Stem;
},
{
place = "{107, 165}";
type = Stem;
}
);
layerId = "D8F0BABD-30A0-4B34-9C55-2C8E337B4047";
paths = (
{
closed = 1;
nodes = (
"318 -79 LINE",
"318 -79 OFFCURVE",
"368 -71 OFFCURVE",
"400 -71 CURVE SMOOTH",
"433 -71 OFFCURVE",
"483 -79 OFFCURVE",
"483 -79 CURVE",
"483 -50 LINE",
"483 -50 OFFCURVE",
"440 -48 OFFCURVE",
"436 -35 CURVE",
"550 617 LINE SMOOTH",
"552 630 OFFCURVE",
"599 634 OFFCURVE",
"599 634 CURVE",
"599 663 LINE",
"599 663 OFFCURVE",
"558 654 OFFCURVE",
"534 654 CURVE SMOOTH",
"510 654 OFFCURVE",
"469 661 OFFCURVE",
"469 661 CURVE",
"469 634 LINE",
"469 634 OFFCURVE",
"509 630 OFFCURVE",
"514 619 CURVE",
"411 23 LINE",
"332 513 LINE",
"342 515 OFFCURVE",
"358 515 OFFCURVE",
"358 515 CURVE",
"358 545 LINE",
"358 545 OFFCURVE",
"318 536 OFFCURVE",
"294 536 CURVE SMOOTH",
"269 536 OFFCURVE",
"228 543 OFFCURVE",
"228 543 CURVE",
"228 515 LINE",
"228 515 OFFCURVE",
"276 511 OFFCURVE",
"280 500 CURVE",
"205 100 LINE",
"110 544 LINE",
"114 556 OFFCURVE",
"157 560 OFFCURVE",
"157 560 CURVE",
"158 566 LINE",
"158 589 LINE",
"158 589 OFFCURVE",
"109 580 OFFCURVE",
"78 580 CURVE SMOOTH",
"47 580 OFFCURVE",
"-1 589 OFFCURVE",
"-1 589 CURVE",
"-1 559 LINE",
"-1 559 OFFCURVE",
"49 556 OFFCURVE",
"51 543 CURVE SMOOTH",
"158 44 LINE",
"154 33 OFFCURVE",
"107 29 OFFCURVE",
"107 29 CURVE",
"107 0 LINE",
"107 0 OFFCURVE",
"157 9 OFFCURVE",
"190 9 CURVE SMOOTH",
"222 9 OFFCURVE",
"272 0 OFFCURVE",
"272 0 CURVE",
"272 29 LINE",
"272 29 OFFCURVE",
"229 32 OFFCURVE",
"226 45 CURVE",
"293 405 LINE",
"369 -34 LINE",
"366 -46 OFFCURVE",
"318 -50 OFFCURVE",
"318 -50 CURVE"
);
}
);
width = 530;
}
);
note = W;
unicode = 0057;
},
{
glyphname = X;
layers = (
{
hints = (
{
horizontal = 1;
place = "{-57, 20}";
type = Stem;
},
{
horizontal = 1;
place = "{0, 21}";
target = up;
type = BottomGhost;
},
{
horizontal = 1;
place = "{561, 20}";
type = Stem;
},
{
horizontal = 1;
place = "{663, -20}";
target = down;
type = TopGhost;
},
{
place = "{3, 130}";
type = Stem;
},
{
place = "{206, 130}";
type = Stem;
},
{
horizontal = 1;
place = "{8, 21}";
type = Stem;
},
{
place = "{189, 164}";
type = Stem;
},
{
horizontal = 1;
place = "{634, 20}";
type = Stem;
},
{
place = "{-8, 152}";
type = Stem;
}
);
layerId = "D8F0BABD-30A0-4B34-9C55-2C8E337B4047";
paths = (
{
closed = 1;
nodes = (
"3 0 LINE",
"3 0 OFFCURVE",
"44 8 OFFCURVE",
"68 8 CURVE SMOOTH",
"92 8 OFFCURVE",
"133 2 OFFCURVE",
"133 2 CURVE",
"133 29 LINE",
"133 29 OFFCURVE",
"91 32 OFFCURVE",
"87 44 CURVE",
"152 228 LINE",
"232 -23 LINE",
"227 -34 OFFCURVE",
"189 -37 OFFCURVE",
"189 -37 CURVE",
"189 -66 LINE",
"189 -66 OFFCURVE",
"238 -57 OFFCURVE",
"271 -57 CURVE SMOOTH",
"303 -57 OFFCURVE",
"353 -66 OFFCURVE",
"353 -66 CURVE",
"353 -37 LINE",
"353 -37 OFFCURVE",
"293 -31 OFFCURVE",
"290 -20 CURVE SMOOTH",
"183 316 LINE",
"284 620 LINE",
"290 630 OFFCURVE",
"336 634 OFFCURVE",
"336 634 CURVE",
"336 663 LINE",
"336 663 OFFCURVE",
"296 654 OFFCURVE",
"272 654 CURVE SMOOTH",
"247 654 OFFCURVE",
"206 661 OFFCURVE",
"206 661 CURVE",
"206 634 LINE",
"206 634 OFFCURVE",
"249 631 OFFCURVE",
"253 619 CURVE",
"167 362 LINE",
"107 546 LINE",
"112 560 OFFCURVE",
"144 560 OFFCURVE",
"144 560 CURVE",
"144 590 LINE",
"144 590 OFFCURVE",
"101 581 OFFCURVE",
"72 581 CURVE SMOOTH",
"44 581 OFFCURVE",
"-8 588 OFFCURVE",
"-8 588 CURVE",
"-8 561 LINE",
"-8 561 OFFCURVE",
"45 555 OFFCURVE",
"49 544 CURVE SMOOTH",
"137 274 LINE",
"56 43 LINE",
"50 33 OFFCURVE",
"3 29 OFFCURVE",
"3 29 CURVE"
);
}
);
width = 351;
}
);
note = X;
unicode = 0058;
},
{
glyphname = Y;
layers = (
{
hints = (
{
horizontal = 1;
place = "{-1, 29}";
type = Stem;
},
{
horizontal = 1;
place = "{561, 20}";
type = Stem;
},
{
horizontal = 1;
place = "{663, -20}";
target = down;
type = TopGhost;
},
{
place = "{57, 59}";
type = Stem;
},
{
horizontal = 1;
place = "{634, 20}";
type = Stem;
},
{
place = "{143, 130}";
type = Stem;
},
{
place = "{-75, 152}";
type = Stem;
}
);
layerId = "D8F0BABD-30A0-4B34-9C55-2C8E337B4047";
paths = (
{
closed = 1;
nodes = (
"4 -1 LINE",
"4 -1 OFFCURVE",
"54 7 OFFCURVE",
"86 7 CURVE SMOOTH",
"119 7 OFFCURVE",
"169 -1 OFFCURVE",
"169 -1 CURVE",
"169 28 LINE",
"169 28 OFFCURVE",
"118 32 OFFCURVE",
"116 44 CURVE",
"116 316 LINE",
"221 620 LINE",
"226 630 OFFCURVE",
"273 634 OFFCURVE",
"273 634 CURVE",
"273 663 LINE",
"273 663 OFFCURVE",
"232 654 OFFCURVE",
"208 654 CURVE SMOOTH",
"184 654 OFFCURVE",
"143 661 OFFCURVE",
"143 661 CURVE",
"143 634 LINE",
"143 634 OFFCURVE",
"185 631 OFFCURVE",
"189 619 CURVE",
"101 362 LINE",
"40 546 LINE",
"45 560 OFFCURVE",
"77 560 OFFCURVE",
"77 560 CURVE",
"77 590 LINE",
"77 590 OFFCURVE",
"34 581 OFFCURVE",
"6 581 CURVE SMOOTH",
"-23 581 OFFCURVE",
"-75 588 OFFCURVE",
"-75 588 CURVE",
"-75 561 LINE",
"-75 561 OFFCURVE",
"-22 555 OFFCURVE",
"-18 544 CURVE SMOOTH",
"57 315 LINE",
"57 44 LINE",
"54 32 OFFCURVE",
"4 28 OFFCURVE",
"4 28 CURVE"
);
}
);
width = 203;
}
);
leftKerningGroup = Y;
note = Y;
rightKerningGroup = Y;
unicode = 0059;
},
{
glyphname = Z;
layers = (
{
hints = (
{
horizontal = 1;
place = "{1, 35}";
type = Stem;
},
{
horizontal = 1;
place = "{206, 8}";
type = Stem;
},
{
horizontal = 1;
place = "{558, 28}";
type = Stem;
},
{
place = "{43, 27}";
type = Stem;
},
{
place = "{271, 22}";
type = Stem;
},
{
horizontal = 1;
place = "{1, 28}";
type = Stem;
},
{
horizontal = 1;
place = "{9, 27}";
type = Stem;
}
);
layerId = "D8F0BABD-30A0-4B34-9C55-2C8E337B4047";
paths = (
{
closed = 1;
nodes = (
"137 586 OFFCURVE",
"87 591 OFFCURVE",
"70 592 CURVE",
"70 618 LINE",
"37 618 LINE",
"37 618 OFFCURVE",
"43 537 OFFCURVE",
"43 490 CURVE SMOOTH",
"43 442 OFFCURVE",
"37 374 OFFCURVE",
"37 374 CURVE",
"70 374 LINE",
"70 558 LINE",
"236 558 LINE",
"66 46 LINE",
"64 33 OFFCURVE",
"15 29 OFFCURVE",
"15 29 CURVE",
"15 1 LINE",
"15 1 OFFCURVE",
"93 9 OFFCURVE",
"149 9 CURVE SMOOTH",
"196 9 OFFCURVE",
"254 4 OFFCURVE",
"271 2 CURVE",
"271 -17 LINE",
"299 -17 LINE",
"299 -17 OFFCURVE",
"293 51 OFFCURVE",
"293 98 CURVE SMOOTH",
"293 146 OFFCURVE",
"298 206 OFFCURVE",
"298 206 CURVE",
"299 214 LINE",
"271 214 LINE",
"271 36 LINE",
"123 36 LINE",
"294 555 LINE",
"299 565 OFFCURVE",
"319 565 OFFCURVE",
"319 565 CURVE",
"319 593 LINE",
"319 593 OFFCURVE",
"233 586 OFFCURVE",
"180 586 CURVE SMOOTH"
);
}
);
width = 334;
}
);
leftKerningGroup = Z;
note = Z;
rightKerningGroup = Z;
unicode = 005A;
},
{
glyphname = a;
layers = (
{
hints = (
{
horizontal = 1;
place = "{0, 30}";
type = Stem;
},
{
horizontal = 1;
place = "{240, 30}";
type = Stem;
},
{
horizontal = 1;
place = "{382, 31}";
type = Stem;
},
{
place = "{5, 50}";
type = Stem;
},
{
place = "{163, 62}";
type = Stem;
},
{
horizontal = 1;
place = "{-33, 21}";
type = Stem;
},
{
place = "{46, 22}";
type = Stem;
}
);
layerId = "D8F0BABD-30A0-4B34-9C55-2C8E337B4047";
paths = (
{
closed = 1;
nodes = (
"167 -39 LINE",
"167 -39 OFFCURVE",
"189 -33 OFFCURVE",
"206 -33 CURVE SMOOTH",
"223 -33 OFFCURVE",
"245 -40 OFFCURVE",
"245 -40 CURVE",
"245 -12 LINE",
"245 -12 OFFCURVE",
"228 -12 OFFCURVE",
"225 3 CURVE",
"225 228 LINE SMOOTH",
"225 343 OFFCURVE",
"221 413 OFFCURVE",
"131 413 CURVE SMOOTH",
"105 413 OFFCURVE",
"83 402 OFFCURVE",
"68 381 CURVE",
"68 418 LINE",
"39 418 LINE",
"39 418 OFFCURVE",
"46 383 OFFCURVE",
"46 362 CURVE SMOOTH",
"46 341 OFFCURVE",
"39 305 OFFCURVE",
"39 305 CURVE",
"78 305 LINE",
"78 305 OFFCURVE",
"75 382 OFFCURVE",
"131 382 CURVE SMOOTH",
"182 382 OFFCURVE",
"167 258 OFFCURVE",
"167 258 CURVE",
"152 266 OFFCURVE",
"135 270 OFFCURVE",
"114 270 CURVE SMOOTH",
"42 270 OFFCURVE",
"5 220 OFFCURVE",
"5 121 CURVE SMOOTH",
"5 62 OFFCURVE",
"33 0 OFFCURVE",
"112 0 CURVE SMOOTH",
"132 0 OFFCURVE",
"151 4 OFFCURVE",
"167 12 CURVE"
);
},
{
closed = 1;
nodes = (
"139 240 OFFCURVE",
"163 225 OFFCURVE",
"163 121 CURVE SMOOTH",
"163 60 OFFCURVE",
"146 30 OFFCURVE",
"112 30 CURVE SMOOTH",
"83 30 OFFCURVE",
"55 62 OFFCURVE",
"55 121 CURVE SMOOTH",
"55 222 OFFCURVE",
"90 240 OFFCURVE",
"114 240 CURVE SMOOTH"
);
}
);
width = 240;
}
);
leftKerningGroup = a;
note = a;
rightKerningGroup = a;
unicode = 0061;
},
{
glyphname = b;
layers = (
{
hints = (
{
horizontal = 1;
place = "{-2, 35}";
type = Stem;
},
{
horizontal = 1;
place = "{383, 34}";
type = Stem;
},
{
horizontal = 1;
place = "{586, 20}";
type = Stem;
},
{
place = "{42, 59}";
type = Stem;
},
{
place = "{204, 59}";
type = Stem;
},
{
horizontal = 1;
place = "{-4, 21}";
target = up;
type = BottomGhost;
}
);
layerId = "D8F0BABD-30A0-4B34-9C55-2C8E337B4047";
paths = (
{
closed = 1;
nodes = (
"79 6 OFFCURVE",
"101 -6 OFFCURVE",
"101 -6 CURVE",
"101 15 LINE",
"116 3 OFFCURVE",
"133 -2 OFFCURVE",
"154 -2 CURVE SMOOTH",
"227 -2 OFFCURVE",
"263 67 OFFCURVE",
"263 211 CURVE SMOOTH",
"263 348 OFFCURVE",
"226 417 OFFCURVE",
"154 417 CURVE SMOOTH",
"133 417 OFFCURVE",
"116 412 OFFCURVE",
"101 401 CURVE",
"101 570 LINE",
"104 585 OFFCURVE",
"128 586 OFFCURVE",
"128 586 CURVE",
"128 616 LINE",
"128 616 OFFCURVE",
"97 606 OFFCURVE",
"72 606 CURVE SMOOTH",
"47 606 OFFCURVE",
"15 616 OFFCURVE",
"15 616 CURVE",
"15 586 LINE",
"15 586 OFFCURVE",
"39 585 OFFCURVE",
"42 570 CURVE",
"42 42 LINE",
"39 27 OFFCURVE",
"15 26 OFFCURVE",
"15 26 CURVE",
"15 -4 LINE",
"15 -4 OFFCURVE",
"43 6 OFFCURVE",
"61 6 CURVE SMOOTH"
);
},
{
closed = 1;
nodes = (
"169 383 OFFCURVE",
"204 340 OFFCURVE",
"204 211 CURVE SMOOTH",
"204 94 OFFCURVE",
"187 33 OFFCURVE",
"154 33 CURVE SMOOTH",
"117 33 OFFCURVE",
"104 79 OFFCURVE",
"104 211 CURVE SMOOTH",
"104 322 OFFCURVE",
"122 383 OFFCURVE",
"154 383 CURVE SMOOTH"
);
}
);
width = 278;
}
);
leftKerningGroup = b;
note = b;
rightKerningGroup = b;
unicode = 0062;
},
{
glyphname = c;
layers = (
{
hints = (
{
horizontal = 1;
place = "{-23, 35}";
type = Stem;
},
{
horizontal = 1;
place = "{403, 35}";
type = Stem;
},
{
place = "{15, 60}";
type = Stem;
},
{
place = "{192, 23}";
type = Stem;
}
);
layerId = "D8F0BABD-30A0-4B34-9C55-2C8E337B4047";
paths = (
{
closed = 1;
nodes = (
"216 -23 OFFCURVE",
"227 96 OFFCURVE",
"227 96 CURVE",
"195 96 LINE",
"195 96 OFFCURVE",
"181 12 OFFCURVE",
"124 12 CURVE SMOOTH",
"92 12 OFFCURVE",
"75 73 OFFCURVE",
"75 185 CURVE SMOOTH",
"75 335 OFFCURVE",
"101 403 OFFCURVE",
"124 403 CURVE SMOOTH",
"181 403 OFFCURVE",
"173 279 OFFCURVE",
"173 279 CURVE",
"221 279 LINE",
"221 279 OFFCURVE",
"215 327 OFFCURVE",
"215 358 CURVE SMOOTH",
"215 389 OFFCURVE",
"221 437 OFFCURVE",
"221 437 CURVE",
"192 437 LINE",
"192 395 LINE",
"181 420 OFFCURVE",
"161 438 OFFCURVE",
"124 438 CURVE SMOOTH",
"55 438 OFFCURVE",
"15 346 OFFCURVE",
"15 185 CURVE SMOOTH",
"15 47 OFFCURVE",
"52 -23 OFFCURVE",
"124 -23 CURVE SMOOTH"
);
}
);
width = 242;
}
);
leftKerningGroup = c;
note = c;
rightKerningGroup = c;
unicode = 0063;
},
{
glyphname = d;
layers = (
{
hints = (
{
horizontal = 1;
place = "{0, 35}";
type = Stem;
},
{
horizontal = 1;
place = "{383, 34}";
type = Stem;
},
{
horizontal = 1;
place = "{586, 20}";
type = Stem;
},
{
place = "{15, 59}";
type = Stem;
},
{
place = "{177, 59}";
type = Stem;
},
{
horizontal = 1;
place = "{-28, 21}";
type = Stem;
}
);
layerId = "D8F0BABD-30A0-4B34-9C55-2C8E337B4047";
paths = (
{
closed = 1;
nodes = (
"177 -39 LINE",
"177 -39 OFFCURVE",
"199 -28 OFFCURVE",
"217 -28 CURVE SMOOTH",
"235 -28 OFFCURVE",
"263 -38 OFFCURVE",
"263 -38 CURVE",
"263 -7 LINE",
"263 -7 OFFCURVE",
"239 -7 OFFCURVE",
"236 8 CURVE",
"236 570 LINE",
"239 585 OFFCURVE",
"263 586 OFFCURVE",
"263 586 CURVE",
"263 616 LINE",
"263 616 OFFCURVE",
"231 606 OFFCURVE",
"206 606 CURVE SMOOTH",
"181 606 OFFCURVE",
"150 616 OFFCURVE",
"150 616 CURVE",
"150 586 LINE",
"150 586 OFFCURVE",
"174 585 OFFCURVE",
"177 570 CURVE",
"177 401 LINE",
"162 412 OFFCURVE",
"144 417 OFFCURVE",
"124 417 CURVE SMOOTH",
"52 417 OFFCURVE",
"15 348 OFFCURVE",
"15 211 CURVE SMOOTH",
"15 67 OFFCURVE",
"49 0 OFFCURVE",
"122 0 CURVE SMOOTH",
"143 0 OFFCURVE",
"162 6 OFFCURVE",
"177 18 CURVE"
);
},
{
closed = 1;
nodes = (
"156 383 OFFCURVE",
"173 322 OFFCURVE",
"173 211 CURVE SMOOTH",
"173 83 OFFCURVE",
"159 35 OFFCURVE",
"122 35 CURVE SMOOTH",
"90 35 OFFCURVE",
"74 93 OFFCURVE",
"74 211 CURVE SMOOTH",
"74 340 OFFCURVE",
"109 383 OFFCURVE",
"124 383 CURVE SMOOTH"
);
}
);
width = 266;
}
);
leftKerningGroup = d;
note = d;
rightKerningGroup = d;
unicode = 0064;
},
{
glyphname = e;
layers = (
{
hints = (
{
horizontal = 1;
place = "{-23, 35}";
type = Stem;
},
{
horizontal = 1;
place = "{157, 35}";
type = Stem;
},
{
horizontal = 1;
place = "{402, 36}";
type = Stem;
},
{
place = "{3, 60}";
type = Stem;
},
{
place = "{162, 59}";
type = Stem;
}
);
layerId = "D8F0BABD-30A0-4B34-9C55-2C8E337B4047";
paths = (
{
closed = 1;
nodes = (
"201 -23 OFFCURVE",
"214 98 OFFCURVE",
"214 98 CURVE",
"183 98 LINE",
"183 98 OFFCURVE",
"174 12 OFFCURVE",
"112 12 CURVE SMOOTH",
"93 12 OFFCURVE",
"70 37 OFFCURVE",
"64 157 CURVE",
"218 157 LINE",
"218 157 OFFCURVE",
"221 200 OFFCURVE",
"221 219 CURVE SMOOTH",
"221 366 OFFCURVE",
"185 438 OFFCURVE",
"112 438 CURVE SMOOTH",
"39 438 OFFCURVE",
"3 366 OFFCURVE",
"3 219 CURVE SMOOTH",
"3 68 OFFCURVE",
"44 -23 OFFCURVE",
"112 -23 CURVE SMOOTH"
);
},
{
closed = 1;
nodes = (
"63 192 LINE",
"63 326 OFFCURVE",
"79 402 OFFCURVE",
"112 402 CURVE SMOOTH",
"145 402 OFFCURVE",
"162 346 OFFCURVE",
"162 192 CURVE"
);
}
);
width = 236;
}
);
leftKerningGroup = e;
note = e;
rightKerningGroup = e;
unicode = 0065;
},
{
glyphname = f;
layers = (
{
hints = (
{
horizontal = 1;
place = "{-3, 21}";
target = up;
type = BottomGhost;
},
{
horizontal = 1;
place = "{383, 35}";
type = Stem;
},
{
horizontal = 1;
place = "{582, 31}";
type = Stem;
},
{
horizontal = 1;
place = "{662, -20}";
target = down;
type = TopGhost;
},
{
place = "{42, 59}";
type = Stem;
},
{
place = "{162, 23}";
type = Stem;
},
{
horizontal = 1;
place = "{6, 20}";
type = Stem;
}
);
layerId = "D8F0BABD-30A0-4B34-9C55-2C8E337B4047";
paths = (
{
closed = 1;
nodes = (
"15 -4 LINE",
"15 -4 OFFCURVE",
"42 6 OFFCURVE",
"67 6 CURVE SMOOTH",
"93 6 OFFCURVE",
"128 -3 OFFCURVE",
"128 -3 CURVE",
"128 26 LINE",
"128 26 OFFCURVE",
"104 27 OFFCURVE",
"101 42 CURVE",
"101 383 LINE",
"139 383 LINE",
"139 418 LINE",
"101 418 LINE",
"101 439 LINE SMOOTH",
"99 534 OFFCURVE",
"111 582 OFFCURVE",
"132 582 CURVE SMOOTH",
"167 582 OFFCURVE",
"162 505 OFFCURVE",
"162 505 CURVE",
"191 505 LINE",
"191 505 OFFCURVE",
"185 553 OFFCURVE",
"185 584 CURVE SMOOTH",
"185 614 OFFCURVE",
"191 662 OFFCURVE",
"191 662 CURVE",
"162 662 LINE",
"162 604 LINE",
"154 610 OFFCURVE",
"143 613 OFFCURVE",
"131 613 CURVE SMOOTH",
"61 613 OFFCURVE",
"45 560 OFFCURVE",
"43 461 CURVE SMOOTH",
"42 418 LINE",
"19 418 LINE",
"19 383 LINE",
"42 383 LINE",
"42 42 LINE",
"39 27 OFFCURVE",
"15 26 OFFCURVE",
"15 26 CURVE"
);
}
);
width = 187;
}
);
leftKerningGroup = f;
note = f;
rightKerningGroup = f;
unicode = 0066;
},
{
glyphname = g;
layers = (
{
hints = (
{
horizontal = 1;
place = "{-172, 28}";
type = Stem;
},
{
horizontal = 1;
place = "{122, 28}";
type = Stem;
},
{
horizontal = 1;
place = "{390, 28}";
type = Stem;
},
{
place = "{55, 55}";
type = Stem;
},
{
place = "{221, 23}";
type = Stem;
},
{
horizontal = 1;
place = "{64, 30}";
type = Stem;
},
{
place = "{11, 55}";
type = Stem;
},
{
place = "{239, 50}";
type = Stem;
},
{
place = "{44, 25}";
type = Stem;
},
{
place = "{198, 54}";
type = Stem;
}
);
layerId = "D8F0BABD-30A0-4B34-9C55-2C8E337B4047";
paths = (
{
closed = 1;
nodes = (
"206 -172 OFFCURVE",
"289 -137 OFFCURVE",
"289 -38 CURVE SMOOTH",
"289 59 OFFCURVE",
"217 94 OFFCURVE",
"150 94 CURVE SMOOTH",
"136 94 OFFCURVE",
"69 87 OFFCURVE",
"69 107 CURVE SMOOTH",
"69 127 OFFCURVE",
"138 122 OFFCURVE",
"153 122 CURVE SMOOTH",
"219 122 OFFCURVE",
"252 171 OFFCURVE",
"252 268 CURVE SMOOTH",
"252 282 OFFCURVE",
"251 296 OFFCURVE",
"250 308 CURVE",
"250 308 LINE",
"250 308 OFFCURVE",
"244 356 OFFCURVE",
"244 387 CURVE SMOOTH",
"244 417 OFFCURVE",
"250 451 OFFCURVE",
"250 451 CURVE",
"221 451 LINE",
"221 389 LINE",
"205 408 OFFCURVE",
"182 418 OFFCURVE",
"153 418 CURVE SMOOTH",
"87 418 OFFCURVE",
"55 369 OFFCURVE",
"55 268 CURVE SMOOTH",
"55 212 OFFCURVE",
"66 172 OFFCURVE",
"88 149 CURVE",
"52 142 OFFCURVE",
"44 121 OFFCURVE",
"44 109 CURVE SMOOTH",
"44 91 OFFCURVE",
"50 75 OFFCURVE",
"63 70 CURVE",
"36 53 OFFCURVE",
"11 21 OFFCURVE",
"11 -38 CURVE SMOOTH",
"11 -144 OFFCURVE",
"98 -172 OFFCURVE",
"150 -172 CURVE SMOOTH"
);
},
{
closed = 1;
nodes = (
"177 64 OFFCURVE",
"239 54 OFFCURVE",
"239 -38 CURVE SMOOTH",
"239 -142 OFFCURVE",
"154 -144 OFFCURVE",
"150 -144 CURVE SMOOTH",
"112 -144 OFFCURVE",
"66 -125 OFFCURVE",
"66 -38 CURVE SMOOTH",
"66 51 OFFCURVE",
"118 64 OFFCURVE",
"150 64 CURVE SMOOTH"
);
},
{
closed = 1;
nodes = (
"174 390 OFFCURVE",
"198 376 OFFCURVE",
"198 268 CURVE SMOOTH",
"198 186 OFFCURVE",
"175 150 OFFCURVE",
"154 150 CURVE",
"154 150 OFFCURVE",
"151 150 OFFCURVE",
"146 151 CURVE SMOOTH",
"130 154 OFFCURVE",
"110 170 OFFCURVE",
"110 268 CURVE SMOOTH",
"110 370 OFFCURVE",
"125 390 OFFCURVE",
"153 390 CURVE SMOOTH"
);
}
);
width = 292;
}
);
leftKerningGroup = g;
note = g;
rightKerningGroup = g;
unicode = 0067;
},
{
glyphname = h;
layers = (
{
hints = (
{
horizontal = 1;
place = "{-3, 21}";
target = up;
type = BottomGhost;
},
{
horizontal = 1;
place = "{383, 34}";
type = Stem;
},
{
horizontal = 1;
place = "{586, 20}";
type = Stem;
},
{
place = "{42, 58}";
type = Stem;
},
{
place = "{203, 59}";
type = Stem;
},
{
horizontal = 1;
place = "{-29, 20}";
type = Stem;
},
{
horizontal = 1;
place = "{6, 20}";
type = Stem;
}
);
layerId = "D8F0BABD-30A0-4B34-9C55-2C8E337B4047";
paths = (
{
closed = 1;
nodes = (
"176 -39 LINE",
"176 -39 OFFCURVE",
"203 -29 OFFCURVE",
"228 -29 CURVE SMOOTH",
"254 -29 OFFCURVE",
"289 -38 OFFCURVE",
"289 -38 CURVE",
"289 -9 LINE",
"289 -9 OFFCURVE",
"266 -8 OFFCURVE",
"262 6 CURVE",
"262 213 LINE SMOOTH",
"262 336 OFFCURVE",
"243 417 OFFCURVE",
"153 417 CURVE SMOOTH",
"133 417 OFFCURVE",
"115 412 OFFCURVE",
"100 401 CURVE",
"100 570 LINE",
"104 585 OFFCURVE",
"128 586 OFFCURVE",
"128 586 CURVE",
"128 616 LINE",
"128 616 OFFCURVE",
"96 606 OFFCURVE",
"71 606 CURVE SMOOTH",
"46 606 OFFCURVE",
"15 616 OFFCURVE",
"15 616 CURVE",
"15 586 LINE",
"15 586 OFFCURVE",
"39 585 OFFCURVE",
"42 570 CURVE",
"42 42 LINE",
"38 27 OFFCURVE",
"15 26 OFFCURVE",
"15 26 CURVE",
"15 -4 LINE",
"15 -4 OFFCURVE",
"41 6 OFFCURVE",
"67 6 CURVE SMOOTH",
"93 6 OFFCURVE",
"128 -3 OFFCURVE",
"128 -3 CURVE",
"128 26 LINE",
"128 26 OFFCURVE",
"104 27 OFFCURVE",
"100 42 CURVE",
"100 213 LINE SMOOTH",
"101 367 OFFCURVE",
"124 383 OFFCURVE",
"153 383 CURVE SMOOTH",
"188 383 OFFCURVE",
"203 334 OFFCURVE",
"203 213 CURVE SMOOTH",
"203 6 LINE",
"200 -8 OFFCURVE",
"176 -9 OFFCURVE",
"176 -9 CURVE"
);
}
);
width = 304;
}
);
leftKerningGroup = h;
note = h;
rightKerningGroup = h;
unicode = 0068;
},
{
glyphname = i;
layers = (
{
hints = (
{
horizontal = 1;
place = "{0, 21}";
target = up;
type = BottomGhost;
},
{
horizontal = 1;
place = "{389, 21}";
type = Stem;
},
{
horizontal = 1;
place = "{442, 98}";
type = Stem;
},
{
place = "{42, 54}";
type = Stem;
},
{
horizontal = 1;
place = "{10, 20}";
type = Stem;
},
{
place = "{31, 76}";
type = Stem;
}
);
layerId = "D8F0BABD-30A0-4B34-9C55-2C8E337B4047";
paths = (
{
closed = 1;
nodes = (
"15 0 LINE",
"15 0 OFFCURVE",
"41 10 OFFCURVE",
"67 10 CURVE SMOOTH",
"92 10 OFFCURVE",
"123 0 OFFCURVE",
"123 0 CURVE",
"123 30 LINE",
"123 30 OFFCURVE",
"99 31 OFFCURVE",
"96 46 CURVE",
"97 410 LINE",
"97 410 OFFCURVE",
"97 410 OFFCURVE",
"76 410 CURVE SMOOTH",
"50 410 OFFCURVE",
"15 419 OFFCURVE",
"15 419 CURVE",
"15 389 LINE",
"15 389 OFFCURVE",
"38 389 OFFCURVE",
"42 374 CURVE",
"42 46 LINE",
"38 31 OFFCURVE",
"15 30 OFFCURVE",
"15 30 CURVE"
);
},
{
closed = 1;
nodes = (
"90 442 OFFCURVE",
"107 464 OFFCURVE",
"107 491 CURVE SMOOTH",
"107 518 OFFCURVE",
"90 540 OFFCURVE",
"69 540 CURVE SMOOTH",
"48 540 OFFCURVE",
"31 518 OFFCURVE",
"31 491 CURVE SMOOTH",
"31 464 OFFCURVE",
"48 442 OFFCURVE",
"69 442 CURVE SMOOTH"
);
}
);
width = 138;
}
);
leftKerningGroup = i;
note = i;
rightKerningGroup = i;
unicode = 0069;
},
{
glyphname = j;
layers = (
{
hints = (
{
horizontal = 1;
place = "{-205, 113}";
type = Stem;
},
{
horizontal = 1;
place = "{429, 98}";
type = Stem;
},
{
place = "{-85, 23}";
type = Stem;
},
{
place = "{51, 58}";
type = Stem;
},
{
horizontal = 1;
place = "{379, 21}";
type = Stem;
},
{
place = "{42, 77}";
type = Stem;
}
);
layerId = "D8F0BABD-30A0-4B34-9C55-2C8E337B4047";
paths = (
{
closed = 1;
nodes = (
"-62 -205 LINE",
"-62 -174 LINE",
"5 -171 OFFCURVE",
"108 -129 OFFCURVE",
"109 106 CURVE SMOOTH",
"110 364 LINE",
"113 379 OFFCURVE",
"137 379 OFFCURVE",
"137 379 CURVE",
"137 410 LINE",
"137 410 OFFCURVE",
"110 400 OFFCURVE",
"85 400 CURVE SMOOTH",
"59 400 OFFCURVE",
"24 409 OFFCURVE",
"24 409 CURVE",
"24 379 LINE",
"24 379 OFFCURVE",
"48 379 OFFCURVE",
"51 364 CURVE",
"51 106 LINE SMOOTH",
"50 -50 OFFCURVE",
"10 -139 OFFCURVE",
"-62 -145 CURVE",
"-62 -92 LINE",
"-91 -92 LINE",
"-91 -92 OFFCURVE",
"-85 -114 OFFCURVE",
"-85 -139 CURVE SMOOTH",
"-85 -165 OFFCURVE",
"-91 -205 OFFCURVE",
"-91 -205 CURVE"
);
},
{
closed = 1;
nodes = (
"101 429 OFFCURVE",
"119 451 OFFCURVE",
"119 478 CURVE SMOOTH",
"119 505 OFFCURVE",
"101 527 OFFCURVE",
"80 527 CURVE SMOOTH",
"59 527 OFFCURVE",
"42 505 OFFCURVE",
"42 478 CURVE SMOOTH",
"42 451 OFFCURVE",
"59 429 OFFCURVE",
"80 429 CURVE SMOOTH"
);
}
);
width = 135;
}
);
leftKerningGroup = j;
note = j;
rightKerningGroup = j;
unicode = 006A;
},
{
glyphname = k;
layers = (
{
hints = (
{
horizontal = 1;
place = "{-3, 21}";
target = up;
type = BottomGhost;
},
{
horizontal = 1;
place = "{390, 21}";
type = Stem;
},
{
horizontal = 1;
place = "{586, 20}";
type = Stem;
},
{
place = "{26, 59}";
type = Stem;
},
{
horizontal = 1;
place = "{-29, 20}";
type = Stem;
},
{
place = "{131, 113}";
type = Stem;
},
{
horizontal = 1;
place = "{-9, 21}";
target = up;
type = BottomGhost;
},
{
horizontal = 1;
place = "{6, 20}";
type = Stem;
},
{
place = "{144, 100}";
type = Stem;
}
);
layerId = "D8F0BABD-30A0-4B34-9C55-2C8E337B4047";
paths = (
{
closed = 1;
nodes = (
"131 -39 LINE",
"131 -39 OFFCURVE",
"158 -29 OFFCURVE",
"183 -29 CURVE SMOOTH",
"209 -29 OFFCURVE",
"244 -38 OFFCURVE",
"244 -38 CURVE",
"245 -9 LINE",
"245 -9 OFFCURVE",
"229 -7 OFFCURVE",
"222 0 CURVE",
"119 264 LINE",
"210 371 LINE SMOOTH",
"224 389 OFFCURVE",
"244 390 OFFCURVE",
"244 390 CURVE",
"244 420 LINE",
"244 420 OFFCURVE",
"212 411 OFFCURVE",
"195 411 CURVE SMOOTH",
"177 411 OFFCURVE",
"144 418 OFFCURVE",
"144 418 CURVE",
"144 390 LINE",
"144 390 OFFCURVE",
"178 390 OFFCURVE",
"181 378 CURVE",
"85 263 LINE",
"85 570 LINE",
"88 585 OFFCURVE",
"112 586 OFFCURVE",
"112 586 CURVE",
"112 616 LINE",
"112 616 OFFCURVE",
"80 606 OFFCURVE",
"55 606 CURVE SMOOTH",
"32 606 OFFCURVE",
"-1 616 OFFCURVE",
"-1 616 CURVE",
"-1 586 LINE",
"-1 586 OFFCURVE",
"23 585 OFFCURVE",
"26 570 CURVE",
"26 42 LINE",
"23 27 OFFCURVE",
"-1 26 OFFCURVE",
"-1 26 CURVE",
"-1 -4 LINE",
"-1 -4 OFFCURVE",
"26 6 OFFCURVE",
"51 6 CURVE SMOOTH",
"77 6 OFFCURVE",
"112 -3 OFFCURVE",
"112 -3 CURVE",
"112 19 LINE",
"112 26 LINE",
"112 26 OFFCURVE",
"88 27 OFFCURVE",
"85 42 CURVE",
"85 212 LINE",
"161 6 LINE",
"157 -8 OFFCURVE",
"131 -9 OFFCURVE",
"131 -9 CURVE"
);
}
);
width = 242;
}
);
leftKerningGroup = k;
note = k;
rightKerningGroup = k;
unicode = 006B;
},
{
glyphname = l;
layers = (
{
hints = (
{
horizontal = 1;
place = "{-3, 21}";
target = up;
type = BottomGhost;
},
{
horizontal = 1;
place = "{585, 21}";
type = Stem;
},
{
place = "{43, 58}";
type = Stem;
},
{
horizontal = 1;
place = "{6, 20}";
type = Stem;
}
);
layerId = "D8F0BABD-30A0-4B34-9C55-2C8E337B4047";
paths = (
{
closed = 1;
nodes = (
"15 -4 LINE",
"15 -4 OFFCURVE",
"42 6 OFFCURVE",
"68 6 CURVE SMOOTH",
"93 6 OFFCURVE",
"128 -3 OFFCURVE",
"128 -3 CURVE",
"128 19 LINE",
"128 26 LINE",
"128 26 OFFCURVE",
"105 27 OFFCURVE",
"101 42 CURVE",
"101 570 LINE",
"105 585 OFFCURVE",
"128 585 OFFCURVE",
"128 585 CURVE",
"128 616 LINE",
"128 616 OFFCURVE",
"102 606 OFFCURVE",
"76 606 CURVE SMOOTH",
"50 606 OFFCURVE",
"15 615 OFFCURVE",
"15 615 CURVE",
"15 585 LINE",
"15 585 OFFCURVE",
"39 585 OFFCURVE",
"43 570 CURVE",
"43 42 LINE",
"39 27 OFFCURVE",
"15 26 OFFCURVE",
"15 26 CURVE"
);
}
);
width = 143;
}
);
leftKerningGroup = l;
note = l;
rightKerningGroup = l;
unicode = 006C;
},
{
glyphname = m;
layers = (
{
hints = (
{
horizontal = 1;
place = "{-4, 30}";
type = Stem;
},
{
horizontal = 1;
place = "{383, 34}";
type = Stem;
},
{
horizontal = 1;
place = "{459, -20}";
target = down;
type = TopGhost;
},
{
horizontal = 1;
place = "{-29, 20}";
type = Stem;
},
{
horizontal = 1;
place = "{427, 21}";
type = Stem;
},
{
horizontal = 1;
place = "{-3, 29}";
type = Stem;
}
);
layerId = "D8F0BABD-30A0-4B34-9C55-2C8E337B4047";
paths = (
{
closed = 1;
nodes = (
"164 -39 LINE",
"164 -39 OFFCURVE",
"191 -29 OFFCURVE",
"217 -29 CURVE SMOOTH",
"242 -29 OFFCURVE",
"277 -38 OFFCURVE",
"277 -38 CURVE",
"277 -16 LINE",
"277 -9 LINE",
"277 -9 OFFCURVE",
"254 -8 OFFCURVE",
"250 6 CURVE",
"250 213 LINE",
"250 217 LINE SMOOTH",
"251 323 OFFCURVE",
"270 383 OFFCURVE",
"303 383 CURVE SMOOTH",
"338 383 OFFCURVE",
"353 334 OFFCURVE",
"353 213 CURVE SMOOTH",
"353 40 LINE",
"350 26 OFFCURVE",
"326 26 OFFCURVE",
"326 26 CURVE",
"326 -5 LINE",
"326 -5 OFFCURVE",
"353 5 OFFCURVE",
"378 5 CURVE SMOOTH",
"404 5 OFFCURVE",
"439 -4 OFFCURVE",
"439 -4 CURVE",
"439 26 LINE",
"439 26 OFFCURVE",
"416 26 OFFCURVE",
"412 40 CURVE",
"412 213 LINE SMOOTH",
"412 336 OFFCURVE",
"393 417 OFFCURVE",
"303 417 CURVE SMOOTH",
"269 417 OFFCURVE",
"242 402 OFFCURVE",
"224 371 CURVE",
"207 402 OFFCURVE",
"180 417 OFFCURVE",
"141 417 CURVE SMOOTH",
"121 417 OFFCURVE",
"103 412 OFFCURVE",
"89 401 CURVE",
"89 459 LINE",
"89 459 OFFCURVE",
"65 448 OFFCURVE",
"47 448 CURVE SMOOTH",
"30 448 OFFCURVE",
"3 458 OFFCURVE",
"3 458 CURVE",
"3 427 LINE",
"3 427 OFFCURVE",
"27 427 OFFCURVE",
"30 412 CURVE",
"30 42 LINE",
"27 27 OFFCURVE",
"3 26 OFFCURVE",
"3 26 CURVE",
"3 -4 LINE",
"3 -4 OFFCURVE",
"30 6 OFFCURVE",
"55 6 CURVE SMOOTH",
"81 6 OFFCURVE",
"116 -3 OFFCURVE",
"116 -3 CURVE",
"116 26 LINE",
"116 26 OFFCURVE",
"92 27 OFFCURVE",
"89 42 CURVE",
"89 213 LINE SMOOTH",
"89 367 OFFCURVE",
"126 383 OFFCURVE",
"141 383 CURVE SMOOTH",
"177 383 OFFCURVE",
"191 334 OFFCURVE",
"192 213 CURVE SMOOTH",
"192 6 LINE",
"188 -8 OFFCURVE",
"164 -9 OFFCURVE",
"164 -9 CURVE"
);
}
);
width = 446;
}
);
leftKerningGroup = m;
note = m;
rightKerningGroup = m;
unicode = 006D;
},
{
glyphname = n;
layers = (
{
hints = (
{
horizontal = 1;
place = "{-3, 21}";
target = up;
type = BottomGhost;
},
{
horizontal = 1;
place = "{383, 34}";
type = Stem;
},
{
horizontal = 1;
place = "{459, -20}";
target = down;
type = TopGhost;
},
{
place = "{42, 58}";
type = Stem;
},
{
place = "{203, 59}";
type = Stem;
},
{
horizontal = 1;
place = "{-29, 20}";
type = Stem;
},
{
horizontal = 1;
place = "{6, 20}";
type = Stem;
},
{
horizontal = 1;
place = "{427, 21}";
type = Stem;
}
);
layerId = "D8F0BABD-30A0-4B34-9C55-2C8E337B4047";
paths = (
{
closed = 1;
nodes = (
"176 -39 LINE",
"176 -39 OFFCURVE",
"203 -29 OFFCURVE",
"228 -29 CURVE SMOOTH",
"254 -29 OFFCURVE",
"289 -38 OFFCURVE",
"289 -38 CURVE",
"289 -9 LINE",
"289 -9 OFFCURVE",
"266 -8 OFFCURVE",
"262 6 CURVE",
"262 213 LINE SMOOTH",
"262 336 OFFCURVE",
"243 417 OFFCURVE",
"153 417 CURVE SMOOTH",
"133 417 OFFCURVE",
"115 412 OFFCURVE",
"100 401 CURVE",
"100 459 LINE",
"100 459 OFFCURVE",
"77 448 OFFCURVE",
"59 448 CURVE SMOOTH",
"42 448 OFFCURVE",
"15 458 OFFCURVE",
"15 458 CURVE",
"15 427 LINE",
"15 427 OFFCURVE",
"39 427 OFFCURVE",
"42 412 CURVE",
"42 42 LINE",
"38 27 OFFCURVE",
"15 26 OFFCURVE",
"15 26 CURVE",
"15 -4 LINE",
"15 -4 OFFCURVE",
"41 6 OFFCURVE",
"67 6 CURVE SMOOTH",
"93 6 OFFCURVE",
"128 -3 OFFCURVE",
"128 -3 CURVE",
"128 26 LINE",
"128 26 OFFCURVE",
"104 27 OFFCURVE",
"100 42 CURVE",
"100 213 LINE SMOOTH",
"101 367 OFFCURVE",
"137 383 OFFCURVE",
"153 383 CURVE SMOOTH",
"188 383 OFFCURVE",
"203 334 OFFCURVE",
"203 213 CURVE SMOOTH",
"203 6 LINE",
"200 -8 OFFCURVE",
"176 -9 OFFCURVE",
"176 -9 CURVE"
);
}
);
width = 289;
}
);
leftKerningGroup = n;
note = n;
rightKerningGroup = n;
unicode = 006E;
},
{
glyphname = o;
layers = (
{
hints = (
{
horizontal = 1;
place = "{-21, 34}";
type = Stem;
},
{
horizontal = 1;
place = "{404, 35}";
type = Stem;
},
{
place = "{15, 57}";
type = Stem;
},
{
place = "{177, 56}";
type = Stem;
}
);
layerId = "D8F0BABD-30A0-4B34-9C55-2C8E337B4047";
paths = (
{
closed = 1;
nodes = (
"193 -21 OFFCURVE",
"233 61 OFFCURVE",
"233 205 CURVE SMOOTH",
"233 356 OFFCURVE",
"194 439 OFFCURVE",
"124 439 CURVE SMOOTH",
"54 439 OFFCURVE",
"15 356 OFFCURVE",
"15 205 CURVE SMOOTH",
"15 59 OFFCURVE",
"54 -21 OFFCURVE",
"124 -21 CURVE SMOOTH"
);
},
{
closed = 1;
nodes = (
"148 404 OFFCURVE",
"177 352 OFFCURVE",
"177 205 CURVE SMOOTH",
"177 70 OFFCURVE",
"138 13 OFFCURVE",
"124 13 CURVE SMOOTH",
"101 13 OFFCURVE",
"72 63 OFFCURVE",
"72 205 CURVE SMOOTH",
"72 345 OFFCURVE",
"89 404 OFFCURVE",
"124 404 CURVE SMOOTH"
);
}
);
width = 242;
}
);
leftKerningGroup = o;
note = o;
rightKerningGroup = o;
unicode = 006F;
},
{
glyphname = p;
layers = (
{
hints = (
{
horizontal = 1;
place = "{-165, 20}";
type = Stem;
},
{
horizontal = 1;
place = "{-1, 34}";
type = Stem;
},
{
horizontal = 1;
place = "{383, 35}";
type = Stem;
},
{
place = "{44, 59}";
type = Stem;
},
{
place = "{206, 59}";
type = Stem;
},
{
horizontal = 1;
place = "{419, 26}";
type = Stem;
}
);
layerId = "D8F0BABD-30A0-4B34-9C55-2C8E337B4047";
paths = (
{
closed = 1;
nodes = (
"-9 -174 LINE",
"-9 -174 OFFCURVE",
"41 -165 OFFCURVE",
"74 -165 CURVE SMOOTH",
"106 -165 OFFCURVE",
"156 -174 OFFCURVE",
"156 -174 CURVE",
"156 -145 LINE",
"156 -145 OFFCURVE",
"105 -141 OFFCURVE",
"103 -128 CURVE",
"103 15 LINE",
"118 4 OFFCURVE",
"135 -1 OFFCURVE",
"155 -1 CURVE SMOOTH",
"228 -1 OFFCURVE",
"265 68 OFFCURVE",
"265 205 CURVE SMOOTH",
"265 348 OFFCURVE",
"229 418 OFFCURVE",
"155 418 CURVE SMOOTH",
"135 418 OFFCURVE",
"118 412 OFFCURVE",
"103 401 CURVE",
"103 454 LINE",
"103 454 OFFCURVE",
"71 445 OFFCURVE",
"53 445 CURVE SMOOTH",
"35 445 OFFCURVE",
"-2 452 OFFCURVE",
"-2 452 CURVE",
"-2 419 LINE",
"-2 419 OFFCURVE",
"41 416 OFFCURVE",
"44 404 CURVE",
"44 -129 LINE",
"41 -141 OFFCURVE",
"-9 -145 OFFCURVE",
"-9 -145 CURVE"
);
},
{
closed = 1;
nodes = (
"188 383 OFFCURVE",
"206 322 OFFCURVE",
"206 205 CURVE SMOOTH",
"206 76 OFFCURVE",
"171 33 OFFCURVE",
"155 33 CURVE SMOOTH",
"124 33 OFFCURVE",
"106 94 OFFCURVE",
"106 205 CURVE SMOOTH",
"106 337 OFFCURVE",
"119 383 OFFCURVE",
"155 383 CURVE SMOOTH"
);
}
);
width = 274;
}
);
leftKerningGroup = p;
note = p;
rightKerningGroup = p;
unicode = 0070;
},
{
glyphname = q;
layers = (
{
hints = (
{
horizontal = 1;
place = "{-224, 29}";
type = Stem;
},
{
horizontal = 1;
place = "{-1, 34}";
type = Stem;
},
{
horizontal = 1;
place = "{366, 35}";
type = Stem;
},
{
place = "{15, 59}";
type = Stem;
},
{
place = "{177, 59}";
type = Stem;
},
{
horizontal = 1;
place = "{379, 34}";
type = Stem;
}
);
layerId = "D8F0BABD-30A0-4B34-9C55-2C8E337B4047";
paths = (
{
closed = 1;
nodes = (
"124 -224 LINE",
"124 -224 OFFCURVE",
"174 -215 OFFCURVE",
"206 -215 CURVE SMOOTH",
"239 -215 OFFCURVE",
"289 -224 OFFCURVE",
"289 -224 CURVE",
"289 -195 LINE",
"289 -195 OFFCURVE",
"239 -191 OFFCURVE",
"236 -179 CURVE",
"236 374 LINE",
"239 386 OFFCURVE",
"282 379 OFFCURVE",
"282 379 CURVE",
"282 417 LINE",
"282 417 OFFCURVE",
"245 413 OFFCURVE",
"227 413 CURVE SMOOTH",
"209 413 OFFCURVE",
"177 419 OFFCURVE",
"177 419 CURVE",
"177 384 LINE",
"162 395 OFFCURVE",
"145 401 OFFCURVE",
"124 401 CURVE SMOOTH",
"51 401 OFFCURVE",
"15 348 OFFCURVE",
"15 205 CURVE SMOOTH",
"15 68 OFFCURVE",
"52 -1 OFFCURVE",
"124 -1 CURVE SMOOTH",
"145 -1 OFFCURVE",
"162 4 OFFCURVE",
"177 15 CURVE",
"177 -178 LINE",
"175 -191 OFFCURVE",
"124 -195 OFFCURVE",
"124 -195 CURVE"
);
},
{
closed = 1;
nodes = (
"161 366 OFFCURVE",
"174 337 OFFCURVE",
"174 205 CURVE SMOOTH",
"174 94 OFFCURVE",
"156 33 OFFCURVE",
"124 33 CURVE SMOOTH",
"109 33 OFFCURVE",
"74 76 OFFCURVE",
"74 205 CURVE SMOOTH",
"74 322 OFFCURVE",
"92 366 OFFCURVE",
"124 366 CURVE SMOOTH"
);
}
);
width = 280;
}
);
leftKerningGroup = q;
note = q;
rightKerningGroup = q;
unicode = 0071;
},
{
glyphname = r;
layers = (
{
hints = (
{
horizontal = 1;
place = "{-1, 21}";
target = up;
type = BottomGhost;
},
{
horizontal = 1;
place = "{383, 34}";
type = Stem;
},
{
place = "{42, 59}";
type = Stem;
},
{
place = "{184, 23}";
type = Stem;
},
{
horizontal = 1;
place = "{6, 20}";
type = Stem;
},
{
horizontal = 1;
place = "{389, 31}";
type = Stem;
}
);
layerId = "D8F0BABD-30A0-4B34-9C55-2C8E337B4047";
paths = (
{
closed = 1;
nodes = (
"93 6 OFFCURVE",
"128 -3 OFFCURVE",
"128 -3 CURVE",
"128 26 LINE",
"128 26 OFFCURVE",
"104 27 OFFCURVE",
"101 42 CURVE",
"101 213 LINE SMOOTH",
"101 343 OFFCURVE",
"105 383 OFFCURVE",
"148 383 CURVE SMOOTH",
"176 383 OFFCURVE",
"181 371 OFFCURVE",
"184 367 CURVE",
"184 331 LINE",
"213 331 LINE",
"213 331 OFFCURVE",
"207 368 OFFCURVE",
"207 391 CURVE SMOOTH",
"207 413 OFFCURVE",
"213 450 OFFCURVE",
"213 450 CURVE",
"184 450 LINE",
"184 408 LINE",
"175 413 OFFCURVE",
"167 417 OFFCURVE",
"147 417 CURVE SMOOTH",
"131 417 OFFCURVE",
"116 411 OFFCURVE",
"101 399 CURVE",
"101 427 LINE",
"101 427 OFFCURVE",
"74 420 OFFCURVE",
"60 420 CURVE SMOOTH",
"45 420 OFFCURVE",
"15 427 OFFCURVE",
"15 427 CURVE",
"15 389 LINE",
"42 389 LINE",
"42 389 OFFCURVE",
"42 42 OFFCURVE",
"42 42 CURVE",
"39 27 OFFCURVE",
"15 26 OFFCURVE",
"15 26 CURVE",
"15 -1 LINE",
"15 -1 OFFCURVE",
"42 6 OFFCURVE",
"67 6 CURVE SMOOTH"
);
}
);
width = 219;
}
);
leftKerningGroup = r;
note = r;
rightKerningGroup = r;
unicode = 0072;
},
{
glyphname = s;
layers = (
{
hints = (
{
horizontal = 1;
place = "{-14, 25}";
type = Stem;
},
{
horizontal = 1;
place = "{422, 25}";
type = Stem;
},
{
place = "{21, 23}";
type = Stem;
},
{
place = "{182, 23}";
type = Stem;
},
{
place = "{25, 57}";
type = Stem;
},
{
place = "{168, 59}";
type = Stem;
},
{
horizontal = 1;
place = "{461, -20}";
target = down;
type = TopGhost;
}
);
layerId = "D8F0BABD-30A0-4B34-9C55-2C8E337B4047";
paths = (
{
closed = 1;
nodes = (
"187 -14 OFFCURVE",
"227 30 OFFCURVE",
"227 106 CURVE SMOOTH",
"227 173 OFFCURVE",
"183 212 OFFCURVE",
"144 247 CURVE SMOOTH",
"117 272 OFFCURVE",
"90 295 OFFCURVE",
"85 325 CURVE SMOOTH",
"78 360 OFFCURVE",
"82 388 OFFCURVE",
"96 405 CURVE SMOOTH",
"105 416 OFFCURVE",
"118 422 OFFCURVE",
"134 422 CURVE SMOOTH",
"166 422 OFFCURVE",
"182 398 OFFCURVE",
"182 350 CURVE SMOOTH",
"183 304 LINE",
"211 304 LINE",
"211 304 OFFCURVE",
"205 352 OFFCURVE",
"205 382 CURVE SMOOTH",
"205 413 OFFCURVE",
"210 452 OFFCURVE",
"210 453 CURVE SMOOTH",
"211 461 LINE",
"183 461 LINE",
"183 426 LINE",
"170 439 OFFCURVE",
"153 447 OFFCURVE",
"134 447 CURVE SMOOTH",
"64 447 OFFCURVE",
"25 403 OFFCURVE",
"25 324 CURVE SMOOTH",
"25 270 OFFCURVE",
"68 229 OFFCURVE",
"105 193 CURVE SMOOTH",
"136 164 OFFCURVE",
"165 136 OFFCURVE",
"168 105 CURVE SMOOTH",
"173 61 OFFCURVE",
"157 8 OFFCURVE",
"118 11 CURVE SMOOTH",
"89 13 OFFCURVE",
"53 24 OFFCURVE",
"44 52 CURVE",
"44 143 LINE",
"15 143 LINE",
"15 143 OFFCURVE",
"21 95 OFFCURVE",
"21 65 CURVE SMOOTH",
"21 34 OFFCURVE",
"15 -14 OFFCURVE",
"15 -14 CURVE",
"44 -14 LINE",
"44 12 LINE",
"62 -5 OFFCURVE",
"87 -14 OFFCURVE",
"118 -14 CURVE SMOOTH"
);
}
);
width = 227;
}
);
leftKerningGroup = s;
note = s;
rightKerningGroup = s;
unicode = 0073;
},
{
glyphname = t;
layers = (
{
hints = (
{
horizontal = 1;
place = "{-39, 24}";
type = Stem;
},
{
horizontal = 1;
place = "{389, 27}";
type = Stem;
},
{
horizontal = 1;
place = "{585, 21}";
type = Stem;
},
{
place = "{52, 59}";
type = Stem;
},
{
place = "{198, 23}";
type = Stem;
}
);
layerId = "D8F0BABD-30A0-4B34-9C55-2C8E337B4047";
paths = (
{
closed = 1;
nodes = (
"226 -39 LINE",
"226 -39 OFFCURVE",
"221 8 OFFCURVE",
"221 39 CURVE SMOOTH",
"221 69 OFFCURVE",
"226 117 OFFCURVE",
"226 117 CURVE",
"198 117 LINE",
"198 26 LINE SMOOTH",
"198 -2 OFFCURVE",
"171 -15 OFFCURVE",
"146 -15 CURVE SMOOTH",
"115 -15 OFFCURVE",
"111 43 OFFCURVE",
"111 77 CURVE SMOOTH",
"111 389 LINE",
"167 389 LINE",
"167 416 LINE",
"111 416 LINE",
"111 617 LINE",
"101 613 LINE",
"101 613 OFFCURVE",
"86 606 OFFCURVE",
"68 606 CURVE SMOOTH",
"50 606 OFFCURVE",
"25 613 OFFCURVE",
"25 613 CURVE",
"25 585 LINE",
"25 585 OFFCURVE",
"49 585 OFFCURVE",
"52 570 CURVE",
"52 416 LINE",
"15 416 LINE",
"15 389 LINE",
"52 389 LINE",
"52 77 LINE SMOOTH",
"53 27 OFFCURVE",
"63 -39 OFFCURVE",
"145 -39 CURVE SMOOTH",
"166 -39 OFFCURVE",
"185 -34 OFFCURVE",
"198 -24 CURVE",
"198 -39 LINE"
);
},
{
closed = 1;
nodes = (
"141 606 LINE",
"141 606 LINE",
"141 606 LINE"
);
},
{
closed = 1;
nodes = (
"141 606 LINE",
"141 606 LINE",
"141 606 LINE"
);
}
);
width = 227;
}
);
leftKerningGroup = t;
note = t;
rightKerningGroup = t;
unicode = 0074;
},
{
glyphname = u;
layers = (
{
hints = (
{
horizontal = 1;
place = "{-1, 34}";
type = Stem;
},
{
horizontal = 1;
place = "{389, 21}";
type = Stem;
},
{
horizontal = 1;
place = "{459, -20}";
target = down;
type = TopGhost;
},
{
place = "{6, 59}";
type = Stem;
},
{
place = "{167, 59}";
type = Stem;
},
{
horizontal = 1;
place = "{-29, 21}";
type = Stem;
},
{
horizontal = 1;
place = "{428, 21}";
type = Stem;
}
);
layerId = "D8F0BABD-30A0-4B34-9C55-2C8E337B4047";
paths = (
{
closed = 1;
nodes = (
"228 -29 OFFCURVE",
"253 -39 OFFCURVE",
"253 -39 CURVE",
"253 -8 LINE",
"253 -8 OFFCURVE",
"226 -8 OFFCURVE",
"226 12 CURVE SMOOTH",
"226 104 OFFCURVE",
"226 374 OFFCURVE",
"226 374 CURVE",
"229 389 OFFCURVE",
"253 389 OFFCURVE",
"253 389 CURVE",
"253 420 LINE",
"253 420 OFFCURVE",
"227 410 OFFCURVE",
"201 410 CURVE SMOOTH",
"175 410 OFFCURVE",
"140 419 OFFCURVE",
"140 419 CURVE",
"140 390 LINE",
"140 390 OFFCURVE",
"164 389 OFFCURVE",
"167 374 CURVE",
"167 203 LINE SMOOTH",
"167 49 OFFCURVE",
"131 33 OFFCURVE",
"115 33 CURVE SMOOTH",
"80 33 OFFCURVE",
"65 82 OFFCURVE",
"65 203 CURVE SMOOTH",
"65 413 LINE",
"68 427 OFFCURVE",
"92 428 OFFCURVE",
"92 428 CURVE",
"92 459 LINE",
"92 459 OFFCURVE",
"65 449 OFFCURVE",
"40 449 CURVE SMOOTH",
"14 449 OFFCURVE",
"-21 458 OFFCURVE",
"-21 458 CURVE",
"-21 428 LINE",
"-21 428 OFFCURVE",
"2 427 OFFCURVE",
"6 413 CURVE",
"6 203 LINE SMOOTH",
"6 80 OFFCURVE",
"25 -1 OFFCURVE",
"115 -1 CURVE SMOOTH",
"135 -1 OFFCURVE",
"153 4 OFFCURVE",
"167 15 CURVE",
"167 -39 LINE",
"167 -39 OFFCURVE",
"193 -29 OFFCURVE",
"210 -29 CURVE SMOOTH"
);
}
);
width = 256;
}
);
leftKerningGroup = u;
note = u;
rightKerningGroup = u;
unicode = 0075;
},
{
glyphname = v;
layers = (
{
hints = (
{
horizontal = 1;
place = "{1, 29}";
type = Stem;
},
{
horizontal = 1;
place = "{386, 21}";
type = Stem;
},
{
horizontal = 1;
place = "{460, -20}";
target = down;
type = TopGhost;
},
{
place = "{2, 113}";
type = Stem;
},
{
place = "{157, 113}";
type = Stem;
},
{
place = "{73, 121}";
type = Stem;
},
{
horizontal = 1;
place = "{429, 21}";
type = Stem;
}
);
layerId = "D8F0BABD-30A0-4B34-9C55-2C8E337B4047";
paths = (
{
closed = 1;
nodes = (
"73 0 LINE",
"73 0 OFFCURVE",
"101 9 OFFCURVE",
"129 9 CURVE SMOOTH",
"157 9 OFFCURVE",
"194 1 OFFCURVE",
"194 1 CURVE",
"194 30 LINE",
"194 30 OFFCURVE",
"170 31 OFFCURVE",
"167 45 CURVE",
"226 369 LINE",
"232 380 OFFCURVE",
"270 387 OFFCURVE",
"270 387 CURVE",
"270 417 LINE",
"270 417 OFFCURVE",
"243 407 OFFCURVE",
"218 407 CURVE SMOOTH",
"192 407 OFFCURVE",
"157 416 OFFCURVE",
"157 416 CURVE",
"157 386 LINE",
"157 386 OFFCURVE",
"192 386 OFFCURVE",
"196 371 CURVE",
"148 106 LINE",
"92 414 LINE",
"95 429 OFFCURVE",
"115 429 OFFCURVE",
"115 429 CURVE",
"115 460 LINE",
"115 460 OFFCURVE",
"88 450 OFFCURVE",
"63 450 CURVE SMOOTH",
"37 450 OFFCURVE",
"2 459 OFFCURVE",
"2 459 CURVE",
"2 429 LINE",
"2 429 OFFCURVE",
"30 429 OFFCURVE",
"33 413 CURVE SMOOTH",
"100 45 LINE",
"96 31 OFFCURVE",
"73 30 OFFCURVE",
"73 30 CURVE"
);
}
);
width = 260;
}
);
note = v;
unicode = 0076;
},
{
glyphname = w;
layers = (
{
hints = (
{
horizontal = 1;
place = "{-3, 29}";
type = Stem;
},
{
horizontal = 1;
place = "{365, 21}";
type = Stem;
},
{
horizontal = 1;
place = "{460, -20}";
target = down;
type = TopGhost;
},
{
place = "{15, 113}";
type = Stem;
},
{
place = "{163, 113}";
type = Stem;
},
{
place = "{307, 113}";
type = Stem;
},
{
horizontal = 1;
place = "{-30, 21}";
type = Stem;
},
{
place = "{226, 122}";
type = Stem;
},
{
horizontal = 1;
place = "{388, 21}";
type = Stem;
},
{
horizontal = 1;
place = "{429, 21}";
type = Stem;
},
{
place = "{86, 122}";
type = Stem;
}
);
layerId = "D8F0BABD-30A0-4B34-9C55-2C8E337B4047";
paths = (
{
closed = 1;
nodes = (
"226 -39 LINE",
"226 -39 OFFCURVE",
"255 -30 OFFCURVE",
"282 -30 CURVE SMOOTH",
"311 -30 OFFCURVE",
"348 -38 OFFCURVE",
"348 -38 CURVE",
"348 -9 LINE",
"348 -9 OFFCURVE",
"323 -8 OFFCURVE",
"320 7 CURVE",
"320 7 LINE",
"377 372 LINE",
"384 382 OFFCURVE",
"420 389 OFFCURVE",
"420 389 CURVE",
"420 419 LINE",
"420 419 OFFCURVE",
"394 409 OFFCURVE",
"368 409 CURVE SMOOTH",
"342 409 OFFCURVE",
"307 418 OFFCURVE",
"307 418 CURVE",
"307 388 LINE",
"307 388 OFFCURVE",
"343 387 OFFCURVE",
"347 373 CURVE",
"301 83 LINE",
"253 350 LINE",
"256 365 OFFCURVE",
"276 365 OFFCURVE",
"276 365 CURVE",
"276 396 LINE",
"276 396 OFFCURVE",
"249 386 OFFCURVE",
"224 386 CURVE SMOOTH",
"198 386 OFFCURVE",
"163 395 OFFCURVE",
"163 395 CURVE",
"163 365 LINE",
"163 365 OFFCURVE",
"191 365 OFFCURVE",
"194 351 CURVE SMOOTH",
"200 316 LINE",
"161 103 LINE",
"105 414 LINE",
"109 429 OFFCURVE",
"129 429 OFFCURVE",
"129 429 CURVE",
"129 460 LINE",
"129 460 OFFCURVE",
"102 450 OFFCURVE",
"76 450 CURVE SMOOTH",
"50 450 OFFCURVE",
"15 459 OFFCURVE",
"15 459 CURVE",
"16 429 LINE",
"16 429 OFFCURVE",
"44 429 OFFCURVE",
"47 413 CURVE SMOOTH",
"113 41 LINE",
"110 27 OFFCURVE",
"86 26 OFFCURVE",
"86 26 CURVE",
"86 -4 LINE",
"86 -4 OFFCURVE",
"114 6 OFFCURVE",
"142 6 CURVE SMOOTH",
"171 6 OFFCURVE",
"208 -3 OFFCURVE",
"208 -3 CURVE",
"208 26 LINE",
"208 26 OFFCURVE",
"184 27 OFFCURVE",
"181 41 CURVE",
"215 237 LINE",
"254 6 LINE",
"250 -8 OFFCURVE",
"226 -9 OFFCURVE",
"226 -9 CURVE"
);
}
);
width = 414;
}
);
note = w;
unicode = 0077;
},
{
glyphname = x;
layers = (
{
hints = (
{
horizontal = 1;
place = "{-3, 29}";
type = Stem;
},
{
horizontal = 1;
place = "{388, 21}";
type = Stem;
},
{
horizontal = 1;
place = "{459, -20}";
target = down;
type = TopGhost;
},
{
place = "{-9, 113}";
type = Stem;
},
{
place = "{158, 113}";
type = Stem;
},
{
horizontal = 1;
place = "{-29, 20}";
type = Stem;
},
{
place = "{131, 113}";
type = Stem;
},
{
horizontal = 1;
place = "{428, 21}";
type = Stem;
}
);
layerId = "D8F0BABD-30A0-4B34-9C55-2C8E337B4047";
paths = (
{
closed = 1;
nodes = (
"-9 -4 LINE",
"-9 -4 OFFCURVE",
"18 6 OFFCURVE",
"43 6 CURVE SMOOTH",
"69 6 OFFCURVE",
"104 -3 OFFCURVE",
"104 -3 CURVE",
"104 26 LINE",
"104 26 OFFCURVE",
"70 27 OFFCURVE",
"65 41 CURVE",
"116 169 LINE",
"180 4 LINE",
"176 -8 OFFCURVE",
"158 -9 OFFCURVE",
"158 -9 CURVE",
"158 -39 LINE",
"158 -39 OFFCURVE",
"185 -29 OFFCURVE",
"210 -29 CURVE SMOOTH",
"236 -29 OFFCURVE",
"271 -38 OFFCURVE",
"271 -38 CURVE",
"271 -9 LINE",
"271 -9 OFFCURVE",
"243 -8 OFFCURVE",
"238 9 CURVE",
"147 244 LINE",
"200 370 LINE SMOOTH",
"205 382 OFFCURVE",
"244 389 OFFCURVE",
"244 389 CURVE",
"244 419 LINE",
"244 419 OFFCURVE",
"217 409 OFFCURVE",
"192 409 CURVE SMOOTH",
"166 409 OFFCURVE",
"131 418 OFFCURVE",
"131 418 CURVE",
"131 388 LINE",
"131 388 OFFCURVE",
"165 388 OFFCURVE",
"170 374 CURVE",
"132 284 LINE",
"82 416 LINE",
"86 427 OFFCURVE",
"104 428 OFFCURVE",
"104 428 CURVE",
"104 459 LINE",
"104 459 OFFCURVE",
"77 449 OFFCURVE",
"52 449 CURVE SMOOTH",
"26 449 OFFCURVE",
"-9 458 OFFCURVE",
"-9 458 CURVE",
"-9 428 LINE",
"-9 428 OFFCURVE",
"19 427 OFFCURVE",
"24 411 CURVE SMOOTH",
"101 208 LINE",
"35 44 LINE SMOOTH",
"30 33 OFFCURVE",
"-9 26 OFFCURVE",
"-9 26 CURVE"
);
}
);
width = 242;
}
);
leftKerningGroup = x;
note = x;
rightKerningGroup = x;
unicode = 0078;
},
{
glyphname = y;
layers = (
{
hints = (
{
horizontal = 1;
place = "{-3, 21}";
target = up;
type = BottomGhost;
},
{
horizontal = 1;
place = "{392, 21}";
type = Stem;
},
{
horizontal = 1;
place = "{459, -20}";
target = down;
type = TopGhost;
},
{
place = "{122, 58}";
type = Stem;
},
{
place = "{15, 113}";
type = Stem;
},
{
place = "{174, 113}";
type = Stem;
},
{
horizontal = 1;
place = "{428, 21}";
type = Stem;
},
{
horizontal = 1;
place = "{6, 20}";
type = Stem;
}
);
layerId = "D8F0BABD-30A0-4B34-9C55-2C8E337B4047";
paths = (
{
closed = 1;
nodes = (
"209 413 OFFCURVE",
"174 422 OFFCURVE",
"174 422 CURVE",
"174 392 LINE",
"174 392 OFFCURVE",
"209 392 OFFCURVE",
"213 377 CURVE",
"163 252 LINE",
"105 413 LINE",
"108 427 OFFCURVE",
"128 428 OFFCURVE",
"128 428 CURVE",
"128 459 LINE",
"128 459 OFFCURVE",
"101 449 OFFCURVE",
"76 449 CURVE SMOOTH",
"50 449 OFFCURVE",
"15 458 OFFCURVE",
"15 458 CURVE",
"15 428 LINE",
"15 428 OFFCURVE",
"43 428 OFFCURVE",
"46 412 CURVE",
"122 199 LINE",
"122 42 LINE",
"118 27 OFFCURVE",
"95 26 OFFCURVE",
"95 26 CURVE",
"95 -4 LINE",
"95 -4 OFFCURVE",
"121 6 OFFCURVE",
"147 6 CURVE SMOOTH",
"173 6 OFFCURVE",
"208 -3 OFFCURVE",
"208 -3 CURVE",
"208 19 LINE",
"208 26 LINE",
"208 26 OFFCURVE",
"184 27 OFFCURVE",
"180 42 CURVE",
"180 199 LINE",
"243 375 LINE",
"249 386 OFFCURVE",
"287 393 OFFCURVE",
"287 393 CURVE",
"287 423 LINE",
"287 423 OFFCURVE",
"260 413 OFFCURVE",
"235 413 CURVE SMOOTH"
);
}
);
width = 258;
}
);
leftKerningGroup = y;
note = y;
rightKerningGroup = y;
unicode = 0079;
},
{
glyphname = z;
layers = (
{
hints = (
{
horizontal = 1;
place = "{5, 28}";
type = Stem;
},
{
horizontal = 1;
place = "{383, 28}";
type = Stem;
},
{
place = "{50, 23}";
type = Stem;
},
{
place = "{236, 22}";
type = Stem;
},
{
horizontal = 1;
place = "{-14, 47}";
type = Stem;
},
{
horizontal = 1;
place = "{-1, 34}";
type = Stem;
}
);
layerId = "D8F0BABD-30A0-4B34-9C55-2C8E337B4047";
paths = (
{
closed = 1;
nodes = (
"264 -14 LINE",
"264 -14 OFFCURVE",
"258 30 OFFCURVE",
"258 58 CURVE SMOOTH",
"258 86 OFFCURVE",
"264 130 OFFCURVE",
"264 130 CURVE",
"236 130 LINE",
"236 33 LINE",
"97 33 LINE",
"252 372 LINE SMOOTH",
"254 377 OFFCURVE",
"269 390 OFFCURVE",
"284 390 CURVE SMOOTH",
"296 390 LINE",
"290 418 LINE",
"290 418 OFFCURVE",
"209 411 OFFCURVE",
"157 411 CURVE SMOOTH",
"116 411 OFFCURVE",
"85 415 OFFCURVE",
"73 416 CURVE",
"73 430 LINE",
"44 430 LINE",
"44 430 OFFCURVE",
"50 386 OFFCURVE",
"50 358 CURVE SMOOTH",
"50 330 OFFCURVE",
"44 286 OFFCURVE",
"44 286 CURVE",
"73 286 LINE",
"73 383 LINE",
"197 383 LINE",
"42 44 LINE SMOOTH",
"36 31 OFFCURVE",
"15 26 OFFCURVE",
"15 26 CURVE",
"15 -1 LINE",
"15 -1 OFFCURVE",
"91 5 OFFCURVE",
"144 5 CURVE SMOOTH",
"188 5 OFFCURVE",
"222 1 OFFCURVE",
"236 0 CURVE",
"236 -14 LINE"
);
}
);
width = 281;
}
);
leftKerningGroup = z;
note = z;
rightKerningGroup = z;
unicode = 007A;
},
{
glyphname = one;
layers = (
{
hints = (
{
horizontal = 1;
place = "{0, 29}";
type = Stem;
},
{
horizontal = 1;
place = "{588, 28}";
type = Stem;
},
{
place = "{68, 58}";
type = Stem;
}
);
layerId = "D8F0BABD-30A0-4B34-9C55-2C8E337B4047";
paths = (
{
closed = 1;
nodes = (
"15 0 LINE",
"15 0 OFFCURVE",
"65 8 OFFCURVE",
"97 8 CURVE SMOOTH",
"129 8 OFFCURVE",
"179 0 OFFCURVE",
"179 0 CURVE",
"179 29 LINE",
"179 29 OFFCURVE",
"128 33 OFFCURVE",
"126 45 CURVE",
"126 618 LINE",
"126 618 OFFCURVE",
"95 609 OFFCURVE",
"77 609 CURVE SMOOTH",
"58 609 OFFCURVE",
"30 616 OFFCURVE",
"30 616 CURVE",
"21 616 LINE",
"21 588 LINE",
"21 588 OFFCURVE",
"64 585 OFFCURVE",
"68 573 CURVE",
"68 45 LINE",
"65 33 OFFCURVE",
"15 29 OFFCURVE",
"15 29 CURVE"
);
}
);
width = 194;
}
);
note = one;
unicode = 0031;
},
{
glyphname = two;
layers = (
{
hints = (
{
horizontal = 1;
place = "{0, 51}";
type = Stem;
},
{
horizontal = 1;
place = "{586, 31}";
type = Stem;
},
{
place = "{56, 23}";
type = Stem;
},
{
place = "{242, 23}";
type = Stem;
},
{
place = "{15, 91}";
type = Stem;
},
{
place = "{227, 56}";
type = Stem;
},
{
horizontal = 1;
place = "{0, 29}";
type = Stem;
},
{
horizontal = 1;
place = "{8, 43}";
type = Stem;
}
);
layerId = "D8F0BABD-30A0-4B34-9C55-2C8E337B4047";
paths = (
{
closed = 1;
nodes = (
"271 -18 LINE",
"271 -18 OFFCURVE",
"265 51 OFFCURVE",
"265 98 CURVE SMOOTH",
"265 145 OFFCURVE",
"271 214 OFFCURVE",
"271 214 CURVE",
"242 214 LINE",
"242 51 LINE",
"106 51 LINE",
"109 78 OFFCURVE",
"116 118 OFFCURVE",
"128 160 CURVE SMOOTH",
"143 213 OFFCURVE",
"189 271 OFFCURVE",
"229 322 CURVE SMOOTH",
"239 335 LINE SMOOTH",
"288 399 OFFCURVE",
"297 486 OFFCURVE",
"261 555 CURVE SMOOTH",
"241 593 OFFCURVE",
"207 617 OFFCURVE",
"173 617 CURVE SMOOTH",
"126 617 OFFCURVE",
"95 588 OFFCURVE",
"79 527 CURVE",
"79 605 LINE",
"50 605 LINE",
"50 605 OFFCURVE",
"56 537 OFFCURVE",
"56 490 CURVE SMOOTH",
"56 442 OFFCURVE",
"50 374 OFFCURVE",
"50 374 CURVE",
"92 374 LINE",
"92 374 OFFCURVE",
"85 586 OFFCURVE",
"173 586 CURVE SMOOTH",
"193 586 OFFCURVE",
"209 570 OFFCURVE",
"218 542 CURVE SMOOTH",
"238 479 OFFCURVE",
"224 406 OFFCURVE",
"180 354 CURVE SMOOTH",
"105 265 OFFCURVE",
"64 163 OFFCURVE",
"58 51 CURVE SMOOTH",
"57 43 LINE",
"53 32 OFFCURVE",
"15 29 OFFCURVE",
"15 29 CURVE",
"15 0 LINE",
"15 0 OFFCURVE",
"86 8 OFFCURVE",
"136 8 CURVE SMOOTH",
"176 8 OFFCURVE",
"225 4 OFFCURVE",
"242 2 CURVE",
"242 -18 LINE"
);
}
);
width = 298;
}
);
note = two;
unicode = 0032;
},
{
glyphname = three;
layers = (
{
hints = (
{
horizontal = 1;
place = "{1, 31}";
type = Stem;
},
{
horizontal = 1;
place = "{586, 31}";
type = Stem;
},
{
place = "{20, 23}";
type = Stem;
},
{
place = "{186, 50}";
type = Stem;
},
{
horizontal = 1;
place = "{-16, 21}";
target = up;
type = BottomGhost;
},
{
place = "{193, 50}";
type = Stem;
}
);
layerId = "D8F0BABD-30A0-4B34-9C55-2C8E337B4047";
paths = (
{
closed = 1;
nodes = (
"43 -16 LINE",
"43 53 LINE",
"58 16 OFFCURVE",
"82 1 OFFCURVE",
"122 1 CURVE SMOOTH",
"202 1 OFFCURVE",
"243 48 OFFCURVE",
"243 142 CURVE SMOOTH",
"243 232 OFFCURVE",
"178 263 OFFCURVE",
"152 272 CURVE",
"173 298 OFFCURVE",
"236 382 OFFCURVE",
"236 466 CURVE SMOOTH",
"236 602 OFFCURVE",
"164 617 OFFCURVE",
"134 617 CURVE SMOOTH",
"90 617 OFFCURVE",
"60 592 OFFCURVE",
"43 540 CURVE",
"43 605 LINE",
"15 605 LINE",
"15 605 OFFCURVE",
"20 537 OFFCURVE",
"20 490 CURVE SMOOTH",
"20 442 OFFCURVE",
"15 374 OFFCURVE",
"15 374 CURVE",
"53 374 LINE",
"53 374 OFFCURVE",
"40 586 OFFCURVE",
"134 586 CURVE SMOOTH",
"153 586 OFFCURVE",
"170 570 OFFCURVE",
"178 542 CURVE SMOOTH",
"191 503 OFFCURVE",
"207 397 OFFCURVE",
"83 273 CURVE",
"88 261 LINE",
"152 261 OFFCURVE",
"193 180 OFFCURVE",
"193 138 CURVE SMOOTH",
"193 90 OFFCURVE",
"181 32 OFFCURVE",
"122 32 CURVE SMOOTH",
"37 32 OFFCURVE",
"53 244 OFFCURVE",
"53 244 CURVE",
"15 244 LINE",
"15 244 OFFCURVE",
"20 168 OFFCURVE",
"20 114 CURVE SMOOTH",
"20 61 OFFCURVE",
"15 -16 OFFCURVE",
"15 -16 CURVE"
);
}
);
width = 258;
}
);
note = three;
unicode = 0033;
},
{
glyphname = four;
layers = (
{
hints = (
{
horizontal = 1;
place = "{0, 29}";
type = Stem;
},
{
horizontal = 1;
place = "{178, 34}";
type = Stem;
},
{
horizontal = 1;
place = "{588, 21}";
type = Stem;
},
{
place = "{162, 58}";
type = Stem;
},
{
place = "{245, 22}";
type = Stem;
}
);
layerId = "D8F0BABD-30A0-4B34-9C55-2C8E337B4047";
paths = (
{
closed = 1;
nodes = (
"109 0 LINE",
"109 0 OFFCURVE",
"159 8 OFFCURVE",
"191 8 CURVE SMOOTH",
"223 8 OFFCURVE",
"273 0 OFFCURVE",
"273 0 CURVE",
"273 29 LINE",
"273 29 OFFCURVE",
"222 33 OFFCURVE",
"220 45 CURVE",
"220 178 LINE",
"245 178 LINE",
"245 114 LINE",
"273 114 LINE",
"273 114 OFFCURVE",
"267 163 OFFCURVE",
"267 194 CURVE SMOOTH",
"267 226 OFFCURVE",
"273 274 OFFCURVE",
"273 274 CURVE",
"245 274 LINE",
"245 212 LINE",
"220 212 LINE",
"220 618 LINE",
"211 615 LINE",
"211 615 OFFCURVE",
"189 609 OFFCURVE",
"171 609 CURVE SMOOTH",
"152 609 OFFCURVE",
"115 616 OFFCURVE",
"115 616 CURVE",
"115 588 LINE",
"115 588 OFFCURVE",
"157 585 OFFCURVE",
"161 574 CURVE",
"15 178 LINE",
"162 178 LINE",
"162 45 LINE",
"159 33 OFFCURVE",
"109 29 OFFCURVE",
"109 29 CURVE"
);
},
{
closed = 1;
nodes = (
"162 212 LINE",
"64 212 LINE",
"162 467 LINE"
);
}
);
width = 288;
}
);
note = four;
unicode = 0034;
},
{
glyphname = five;
layers = (
{
hints = (
{
horizontal = 1;
place = "{3, 45}";
type = Stem;
},
{
horizontal = 1;
place = "{317, 38}";
type = Stem;
},
{
horizontal = 1;
place = "{567, 43}";
type = Stem;
},
{
place = "{25, 22}";
type = Stem;
},
{
place = "{242, 23}";
type = Stem;
},
{
place = "{48, 36}";
type = Stem;
},
{
place = "{229, 72}";
type = Stem;
}
);
layerId = "D8F0BABD-30A0-4B34-9C55-2C8E337B4047";
paths = (
{
closed = 1;
nodes = (
"229 3 OFFCURVE",
"301 56 OFFCURVE",
"301 173 CURVE SMOOTH",
"301 278 OFFCURVE",
"242 355 OFFCURVE",
"162 355 CURVE SMOOTH",
"130 355 OFFCURVE",
"100 342 OFFCURVE",
"77 319 CURVE",
"92 567 LINE",
"242 567 LINE",
"242 468 LINE",
"271 468 LINE",
"271 468 OFFCURVE",
"265 519 OFFCURVE",
"265 552 CURVE SMOOTH",
"265 585 OFFCURVE",
"271 636 OFFCURVE",
"271 636 CURVE",
"242 636 LINE",
"242 616 LINE",
"225 615 OFFCURVE",
"176 610 OFFCURVE",
"136 610 CURVE SMOOTH",
"86 610 OFFCURVE",
"15 618 OFFCURVE",
"15 618 CURVE",
"15 589 LINE",
"15 589 OFFCURVE",
"53 587 OFFCURVE",
"57 575 CURVE",
"39 256 LINE",
"73 256 LINE",
"73 261 LINE",
"97 297 OFFCURVE",
"129 317 OFFCURVE",
"162 317 CURVE SMOOTH",
"190 317 OFFCURVE",
"229 272 OFFCURVE",
"229 173 CURVE SMOOTH",
"229 74 OFFCURVE",
"187 48 OFFCURVE",
"162 48 CURVE SMOOTH",
"59 48 OFFCURVE",
"59 170 OFFCURVE",
"59 170 CURVE",
"19 171 LINE",
"19 171 OFFCURVE",
"25 120 OFFCURVE",
"25 87 CURVE SMOOTH",
"25 53 OFFCURVE",
"19 3 OFFCURVE",
"19 3 CURVE",
"47 3 LINE",
"47 75 LINE",
"71 29 OFFCURVE",
"112 3 OFFCURVE",
"162 3 CURVE SMOOTH"
);
}
);
width = 316;
}
);
note = five;
unicode = 0035;
},
{
glyphname = six;
layers = (
{
hints = (
{
horizontal = 1;
place = "{3, 32}";
type = Stem;
},
{
horizontal = 1;
place = "{385, 36}";
type = Stem;
},
{
horizontal = 1;
place = "{592, 25}";
type = Stem;
},
{
place = "{15, 61}";
type = Stem;
},
{
place = "{189, 22}";
type = Stem;
},
{
place = "{216, 61}";
type = Stem;
}
);
layerId = "D8F0BABD-30A0-4B34-9C55-2C8E337B4047";
paths = (
{
closed = 1;
nodes = (
"208 3 OFFCURVE",
"277 66 OFFCURVE",
"277 205 CURVE SMOOTH",
"277 330 OFFCURVE",
"221 421 OFFCURVE",
"144 421 CURVE SMOOTH",
"121 421 OFFCURVE",
"99 412 OFFCURVE",
"80 395 CURVE",
"93 519 OFFCURVE",
"122 592 OFFCURVE",
"158 592 CURVE SMOOTH",
"166 592 OFFCURVE",
"180 591 OFFCURVE",
"189 582 CURVE",
"189 500 LINE",
"218 500 LINE",
"218 500 OFFCURVE",
"211 537 OFFCURVE",
"211 559 CURVE SMOOTH",
"211 581 OFFCURVE",
"218 617 OFFCURVE",
"218 617 CURVE",
"189 617 LINE",
"189 608 LINE",
"178 614 OFFCURVE",
"166 617 OFFCURVE",
"154 617 CURVE SMOOTH",
"66 617 OFFCURVE",
"42 492 OFFCURVE",
"33 445 CURVE SMOOTH",
"17 361 OFFCURVE",
"15 277 OFFCURVE",
"15 205 CURVE SMOOTH",
"15 65 OFFCURVE",
"80 3 OFFCURVE",
"144 3 CURVE SMOOTH"
);
},
{
closed = 1;
nodes = (
"189 385 OFFCURVE",
"216 316 OFFCURVE",
"216 205 CURVE SMOOTH",
"216 80 OFFCURVE",
"179 35 OFFCURVE",
"144 35 CURVE SMOOTH",
"101 35 OFFCURVE",
"76 99 OFFCURVE",
"76 205 CURVE SMOOTH",
"76 318 OFFCURVE",
"101 385 OFFCURVE",
"144 385 CURVE SMOOTH"
);
}
);
width = 292;
}
);
note = six;
unicode = 0036;
},
{
glyphname = seven;
layers = (
{
hints = (
{
horizontal = 1;
place = "{0, 29}";
type = Stem;
},
{
horizontal = 1;
place = "{561, 43}";
type = Stem;
},
{
place = "{21, 23}";
type = Stem;
},
{
place = "{43, 164}";
type = Stem;
}
);
layerId = "D8F0BABD-30A0-4B34-9C55-2C8E337B4047";
paths = (
{
closed = 1;
nodes = (
"43 0 LINE",
"43 0 OFFCURVE",
"93 8 OFFCURVE",
"125 8 CURVE SMOOTH",
"157 8 OFFCURVE",
"207 0 OFFCURVE",
"207 0 CURVE",
"207 29 LINE",
"207 29 OFFCURVE",
"160 32 OFFCURVE",
"158 36 CURVE",
"157 36 OFFCURVE",
"214 549 OFFCURVE",
"216 569 CURVE",
"221 580 OFFCURVE",
"259 583 OFFCURVE",
"259 583 CURVE",
"259 611 LINE",
"259 611 OFFCURVE",
"186 604 OFFCURVE",
"138 604 CURVE SMOOTH",
"99 604 OFFCURVE",
"59 608 OFFCURVE",
"44 610 CURVE",
"44 630 LINE",
"15 630 LINE",
"15 630 OFFCURVE",
"21 579 OFFCURVE",
"21 546 CURVE SMOOTH",
"21 513 OFFCURVE",
"15 462 OFFCURVE",
"15 462 CURVE",
"44 462 LINE",
"44 561 LINE",
"157 561 LINE",
"99 46 LINE SMOOTH",
"97 35 OFFCURVE",
"43 29 OFFCURVE",
"43 29 CURVE"
);
}
);
width = 274;
}
);
note = seven;
unicode = 0037;
},
{
glyphname = eight;
layers = (
{
hints = (
{
horizontal = 1;
place = "{3, 27}";
type = Stem;
},
{
horizontal = 1;
place = "{297, 29}";
type = Stem;
},
{
horizontal = 1;
place = "{593, 24}";
type = Stem;
},
{
place = "{30, 54}";
type = Stem;
},
{
place = "{252, 54}";
type = Stem;
},
{
place = "{15, 58}";
type = Stem;
},
{
place = "{263, 58}";
type = Stem;
}
);
layerId = "D8F0BABD-30A0-4B34-9C55-2C8E337B4047";
paths = (
{
closed = 1;
nodes = (
"241 3 OFFCURVE",
"321 52 OFFCURVE",
"321 159 CURVE SMOOTH",
"321 233 OFFCURVE",
"284 291 OFFCURVE",
"224 315 CURVE",
"266 334 OFFCURVE",
"306 379 OFFCURVE",
"306 455 CURVE SMOOTH",
"306 549 OFFCURVE",
"247 617 OFFCURVE",
"166 617 CURVE SMOOTH",
"87 617 OFFCURVE",
"30 549 OFFCURVE",
"30 455 CURVE SMOOTH",
"30 388 OFFCURVE",
"59 337 OFFCURVE",
"109 315 CURVE",
"51 292 OFFCURVE",
"15 233 OFFCURVE",
"15 159 CURVE SMOOTH",
"15 84 OFFCURVE",
"62 3 OFFCURVE",
"166 3 CURVE SMOOTH"
);
},
{
closed = 1;
nodes = (
"233 297 OFFCURVE",
"263 226 OFFCURVE",
"263 159 CURVE SMOOTH",
"263 97 OFFCURVE",
"233 30 OFFCURVE",
"166 30 CURVE SMOOTH",
"123 30 OFFCURVE",
"73 64 OFFCURVE",
"73 159 CURVE SMOOTH",
"73 255 OFFCURVE",
"120 297 OFFCURVE",
"166 297 CURVE SMOOTH"
);
},
{
closed = 1;
nodes = (
"209 593 OFFCURVE",
"252 550 OFFCURVE",
"252 455 CURVE SMOOTH",
"252 360 OFFCURVE",
"201 326 OFFCURVE",
"166 326 CURVE SMOOTH",
"125 326 OFFCURVE",
"84 366 OFFCURVE",
"84 455 CURVE SMOOTH",
"84 550 OFFCURVE",
"128 593 OFFCURVE",
"168 593 CURVE SMOOTH"
);
}
);
width = 336;
}
);
note = eight;
unicode = 0038;
},
{
glyphname = nine;
layers = (
{
hints = (
{
horizontal = 1;
place = "{2, 25}";
type = Stem;
},
{
horizontal = 1;
place = "{199, 36}";
type = Stem;
},
{
horizontal = 1;
place = "{584, 33}";
type = Stem;
},
{
place = "{65, 23}";
type = Stem;
},
{
place = "{216, 61}";
type = Stem;
},
{
place = "{15, 60}";
type = Stem;
}
);
layerId = "D8F0BABD-30A0-4B34-9C55-2C8E337B4047";
paths = (
{
closed = 1;
nodes = (
"219 2 OFFCURVE",
"277 156 OFFCURVE",
"277 415 CURVE SMOOTH",
"277 555 OFFCURVE",
"212 617 OFFCURVE",
"147 617 CURVE SMOOTH",
"83 617 OFFCURVE",
"15 554 OFFCURVE",
"15 415 CURVE SMOOTH",
"15 290 OFFCURVE",
"70 199 OFFCURVE",
"147 199 CURVE SMOOTH",
"169 199 OFFCURVE",
"190 206 OFFCURVE",
"208 221 CURVE",
"192 127 OFFCURVE",
"160 27 OFFCURVE",
"117 27 CURVE SMOOTH",
"110 27 OFFCURVE",
"97 29 OFFCURVE",
"88 37 CURVE",
"88 119 LINE",
"59 119 LINE",
"59 119 OFFCURVE",
"65 83 OFFCURVE",
"65 61 CURVE SMOOTH",
"65 39 OFFCURVE",
"59 2 OFFCURVE",
"59 2 CURVE",
"88 2 LINE",
"88 11 LINE",
"98 5 OFFCURVE",
"110 2 OFFCURVE",
"122 2 CURVE SMOOTH"
);
},
{
closed = 1;
nodes = (
"190 584 OFFCURVE",
"216 521 OFFCURVE",
"216 415 CURVE SMOOTH",
"216 302 OFFCURVE",
"190 235 OFFCURVE",
"147 235 CURVE SMOOTH",
"103 235 OFFCURVE",
"75 304 OFFCURVE",
"75 415 CURVE SMOOTH",
"75 540 OFFCURVE",
"113 584 OFFCURVE",
"147 584 CURVE SMOOTH"
);
}
);
width = 292;
}
);
note = nine;
unicode = 0039;
},
{
glyphname = zero;
layers = (
{
hints = (
{
horizontal = 1;
place = "{3, 28}";
type = Stem;
},
{
horizontal = 1;
place = "{582, 32}";
type = Stem;
},
{
place = "{15, 58}";
type = Stem;
},
{
place = "{263, 58}";
type = Stem;
}
);
layerId = "D8F0BABD-30A0-4B34-9C55-2C8E337B4047";
paths = (
{
closed = 1;
nodes = (
"273 3 OFFCURVE",
"321 156 OFFCURVE",
"321 299 CURVE SMOOTH",
"321 481 OFFCURVE",
"256 614 OFFCURVE",
"166 614 CURVE SMOOTH",
"77 614 OFFCURVE",
"15 484 OFFCURVE",
"15 299 CURVE SMOOTH",
"15 94 OFFCURVE",
"91 3 OFFCURVE",
"166 3 CURVE SMOOTH"
);
},
{
closed = 1;
nodes = (
"213 582 OFFCURVE",
"263 483 OFFCURVE",
"263 299 CURVE SMOOTH",
"263 103 OFFCURVE",
"204 31 OFFCURVE",
"166 31 CURVE SMOOTH",
"120 31 OFFCURVE",
"73 123 OFFCURVE",
"73 299 CURVE SMOOTH",
"73 485 OFFCURVE",
"120 582 OFFCURVE",
"166 582 CURVE SMOOTH"
);
}
);
width = 336;
}
);
note = zero;
unicode = 0030;
},
{
glyphname = exclam;
layers = (
{
hints = (
{
horizontal = 1;
place = "{3, 98}";
type = Stem;
},
{
place = "{25, 58}";
type = Stem;
},
{
place = "{15, 77}";
type = Stem;
}
);
layerId = "D8F0BABD-30A0-4B34-9C55-2C8E337B4047";
paths = (
{
closed = 1;
nodes = (
"75 3 OFFCURVE",
"92 25 OFFCURVE",
"92 52 CURVE SMOOTH",
"92 79 OFFCURVE",
"75 101 OFFCURVE",
"54 101 CURVE SMOOTH",
"33 101 OFFCURVE",
"15 79 OFFCURVE",
"15 52 CURVE SMOOTH",
"15 25 OFFCURVE",
"33 3 OFFCURVE",
"54 3 CURVE SMOOTH"
);
},
{
closed = 1;
nodes = (
"34 120 LINE",
"74 120 LINE",
"83 580 LINE SMOOTH",
"83 588 OFFCURVE",
"80 595 OFFCURVE",
"74 601 CURVE SMOOTH",
"69 606 OFFCURVE",
"62 610 OFFCURVE",
"54 610 CURVE SMOOTH",
"46 610 OFFCURVE",
"39 606 OFFCURVE",
"33 601 CURVE",
"28 595 OFFCURVE",
"25 588 OFFCURVE",
"25 580 CURVE SMOOTH"
);
}
);
width = 107;
}
);
note = exclam;
unicode = 0021;
},
{
glyphname = at;
layers = (
{
hints = (
{
horizontal = 1;
place = "{38, 35}";
type = Stem;
},
{
horizontal = 1;
place = "{453, 35}";
type = Stem;
},
{
horizontal = 1;
place = "{541, 34}";
type = Stem;
},
{
place = "{15, 40}";
type = Stem;
},
{
place = "{121, 51}";
type = Stem;
},
{
place = "{280, 60}";
type = Stem;
},
{
place = "{451, 40}";
type = Stem;
},
{
horizontal = 1;
place = "{-19, 37}";
type = Stem;
},
{
horizontal = 1;
place = "{457, 21}";
type = Stem;
},
{
place = "{313, 32}";
type = Stem;
},
{
horizontal = 1;
place = "{48, 34}";
type = Stem;
}
);
layerId = "D8F0BABD-30A0-4B34-9C55-2C8E337B4047";
paths = (
{
closed = 1;
nodes = (
"237 -19 LINE",
"238 18 LINE",
"231 18 LINE SMOOTH",
"169 18 OFFCURVE",
"122 46 OFFCURVE",
"91 103 CURVE SMOOTH",
"59 162 OFFCURVE",
"55 230 OFFCURVE",
"55 256 CURVE SMOOTH",
"55 466 OFFCURVE",
"164 541 OFFCURVE",
"266 541 CURVE SMOOTH",
"320 541 OFFCURVE",
"363 526 OFFCURVE",
"393 495 CURVE",
"396 493 OFFCURVE",
"398 490 OFFCURVE",
"401 487 CURVE",
"401 487 OFFCURVE",
"373 478 OFFCURVE",
"358 478 CURVE SMOOTH",
"343 478 OFFCURVE",
"323 484 OFFCURVE",
"323 484 CURVE",
"314 487 LINE",
"312 440 LINE",
"294 472 OFFCURVE",
"269 488 OFFCURVE",
"236 488 CURVE SMOOTH",
"164 488 OFFCURVE",
"125 413 OFFCURVE",
"121 265 CURVE SMOOTH",
"119 170 OFFCURVE",
"133 105 OFFCURVE",
"166 72 CURVE SMOOTH",
"181 56 OFFCURVE",
"201 48 OFFCURVE",
"224 48 CURVE SMOOTH",
"252 48 OFFCURVE",
"289 60 OFFCURVE",
"313 115 CURVE",
"325 64 OFFCURVE",
"346 38 OFFCURVE",
"377 38 CURVE SMOOTH",
"467 38 OFFCURVE",
"491 196 OFFCURVE",
"491 290 CURVE SMOOTH",
"491 482 OFFCURVE",
"419 575 OFFCURVE",
"270 575 CURVE SMOOTH",
"106 575 OFFCURVE",
"15 463 OFFCURVE",
"15 258 CURVE SMOOTH",
"15 87 OFFCURVE",
"97 -19 OFFCURVE",
"230 -19 CURVE SMOOTH"
);
},
{
closed = 1;
nodes = (
"348 442 LINE",
"352 453 OFFCURVE",
"402 457 OFFCURVE",
"402 457 CURVE",
"403 484 LINE",
"451 425 OFFCURVE",
"451 335 OFFCURVE",
"451 290 CURVE SMOOTH",
"451 286 LINE SMOOTH",
"451 213 OFFCURVE",
"420 73 OFFCURVE",
"379 73 CURVE SMOOTH",
"331 73 OFFCURVE",
"339 273 OFFCURVE",
"343 332 CURVE SMOOTH"
);
},
{
closed = 1;
nodes = (
"242 453 OFFCURVE",
"247 451 OFFCURVE",
"252 446 CURVE SMOOTH",
"264 433 OFFCURVE",
"284 393 OFFCURVE",
"280 265 CURVE SMOOTH",
"277 127 OFFCURVE",
"238 82 OFFCURVE",
"225 82 CURVE SMOOTH",
"218 82 OFFCURVE",
"212 85 OFFCURVE",
"206 91 CURVE SMOOTH",
"194 103 OFFCURVE",
"168 143 OFFCURVE",
"172 265 CURVE SMOOTH",
"175 390 OFFCURVE",
"196 453 OFFCURVE",
"235 453 CURVE SMOOTH"
);
}
);
width = 506;
}
);
note = at;
unicode = 0040;
},
{
glyphname = numbersign;
layers = (
{
hints = (
{
horizontal = 1;
place = "{172, 35}";
type = Stem;
},
{
horizontal = 1;
place = "{392, 35}";
type = Stem;
},
{
place = "{15, 361}";
type = Stem;
}
);
layerId = "D8F0BABD-30A0-4B34-9C55-2C8E337B4047";
paths = (
{
closed = 1;
nodes = (
"190 16 LINE",
"224 16 LINE",
"249 172 LINE",
"357 172 LINE",
"357 207 LINE",
"254 207 LINE",
"283 392 LINE",
"376 392 LINE",
"376 427 LINE",
"288 427 LINE",
"311 575 LINE",
"276 575 LINE",
"253 427 LINE",
"171 427 LINE",
"194 575 LINE",
"159 575 LINE",
"136 427 LINE",
"34 427 LINE",
"34 392 LINE",
"131 392 LINE",
"102 207 LINE",
"15 207 LINE",
"15 172 LINE",
"97 172 LINE",
"73 16 LINE",
"108 16 LINE",
"132 172 LINE",
"214 172 LINE"
);
},
{
closed = 1;
nodes = (
"219 207 LINE",
"137 207 LINE",
"166 392 LINE",
"248 392 LINE"
);
}
);
width = 391;
}
);
note = numbersign;
unicode = 0023;
},
{
glyphname = dollar;
layers = (
{
hints = (
{
horizontal = 1;
place = "{68, 24}";
type = Stem;
},
{
horizontal = 1;
place = "{503, 24}";
type = Stem;
},
{
place = "{21, 23}";
type = Stem;
},
{
place = "{111, 24}";
type = Stem;
},
{
place = "{182, 23}";
type = Stem;
},
{
place = "{25, 57}";
type = Stem;
},
{
place = "{168, 59}";
type = Stem;
},
{
horizontal = 1;
place = "{67, 157}";
type = Stem;
}
);
layerId = "D8F0BABD-30A0-4B34-9C55-2C8E337B4047";
paths = (
{
closed = 1;
nodes = (
"135 16 LINE",
"135 68 LINE",
"194 75 OFFCURVE",
"227 118 OFFCURVE",
"227 187 CURVE SMOOTH",
"227 254 OFFCURVE",
"183 293 OFFCURVE",
"145 328 CURVE SMOOTH",
"117 353 OFFCURVE",
"91 376 OFFCURVE",
"85 406 CURVE SMOOTH",
"78 441 OFFCURVE",
"82 469 OFFCURVE",
"96 486 CURVE SMOOTH",
"105 497 OFFCURVE",
"119 503 OFFCURVE",
"134 503 CURVE SMOOTH",
"166 503 OFFCURVE",
"182 479 OFFCURVE",
"182 431 CURVE SMOOTH",
"182 385 LINE",
"211 385 LINE",
"211 385 OFFCURVE",
"205 433 OFFCURVE",
"205 463 CURVE SMOOTH",
"205 494 OFFCURVE",
"211 542 OFFCURVE",
"211 542 CURVE",
"182 542 LINE",
"182 507 LINE",
"170 519 OFFCURVE",
"154 526 OFFCURVE",
"135 527 CURVE",
"135 589 LINE",
"111 589 LINE",
"111 526 LINE",
"55 516 OFFCURVE",
"25 474 OFFCURVE",
"25 404 CURVE SMOOTH",
"25 351 OFFCURVE",
"68 310 OFFCURVE",
"105 274 CURVE SMOOTH",
"136 244 OFFCURVE",
"165 217 OFFCURVE",
"168 186 CURVE SMOOTH",
"173 142 OFFCURVE",
"158 118 OFFCURVE",
"149 107 CURVE SMOOTH",
"140 98 OFFCURVE",
"128 92 OFFCURVE",
"118 92 CURVE SMOOTH",
"89 92 OFFCURVE",
"53 105 OFFCURVE",
"44 133 CURVE",
"44 224 LINE",
"15 224 LINE",
"15 224 OFFCURVE",
"21 176 OFFCURVE",
"21 146 CURVE SMOOTH",
"21 115 OFFCURVE",
"15 67 OFFCURVE",
"15 67 CURVE",
"44 67 LINE",
"44 93 LINE",
"61 78 OFFCURVE",
"83 69 OFFCURVE",
"111 68 CURVE",
"111 16 LINE"
);
}
);
width = 242;
}
);
note = dollar;
unicode = 0024;
},
{
glyphname = percent;
layers = (
{
hints = (
{
horizontal = 1;
place = "{34, 19}";
type = Stem;
},
{
horizontal = 1;
place = "{264, 21}";
type = Stem;
},
{
horizontal = 1;
place = "{524, 21}";
type = Stem;
},
{
place = "{15, 32}";
type = Stem;
},
{
place = "{117, 33}";
type = Stem;
},
{
place = "{205, 33}";
type = Stem;
},
{
place = "{308, 32}";
type = Stem;
},
{
horizontal = 1;
place = "{294, 19}";
type = Stem;
}
);
layerId = "D8F0BABD-30A0-4B34-9C55-2C8E337B4047";
paths = (
{
closed = 1;
nodes = (
"115 16 LINE",
"149 16 LINE",
"236 575 LINE",
"201 575 LINE"
);
},
{
closed = 1;
nodes = (
"305 34 OFFCURVE",
"340 72 OFFCURVE",
"340 156 CURVE SMOOTH",
"340 232 OFFCURVE",
"312 285 OFFCURVE",
"272 285 CURVE SMOOTH",
"233 285 OFFCURVE",
"205 232 OFFCURVE",
"205 156 CURVE SMOOTH",
"205 72 OFFCURVE",
"239 34 OFFCURVE",
"272 34 CURVE SMOOTH"
);
},
{
closed = 1;
nodes = (
"287 264 OFFCURVE",
"308 231 OFFCURVE",
"308 156 CURVE SMOOTH",
"308 85 OFFCURVE",
"287 53 OFFCURVE",
"272 53 CURVE SMOOTH",
"259 53 OFFCURVE",
"238 81 OFFCURVE",
"238 156 CURVE SMOOTH",
"238 231 OFFCURVE",
"258 264 OFFCURVE",
"272 264 CURVE SMOOTH"
);
},
{
closed = 1;
nodes = (
"114 294 OFFCURVE",
"150 332 OFFCURVE",
"150 416 CURVE SMOOTH",
"150 492 OFFCURVE",
"122 545 OFFCURVE",
"82 545 CURVE SMOOTH",
"42 545 OFFCURVE",
"15 492 OFFCURVE",
"15 416 CURVE SMOOTH",
"15 332 OFFCURVE",
"48 294 OFFCURVE",
"82 294 CURVE SMOOTH"
);
},
{
closed = 1;
nodes = (
"96 524 OFFCURVE",
"117 491 OFFCURVE",
"117 416 CURVE SMOOTH",
"117 345 OFFCURVE",
"96 313 OFFCURVE",
"82 313 CURVE SMOOTH",
"68 313 OFFCURVE",
"47 341 OFFCURVE",
"47 416 CURVE SMOOTH",
"47 491 OFFCURVE",
"67 524 OFFCURVE",
"82 524 CURVE SMOOTH"
);
}
);
width = 355;
}
);
note = percent;
unicode = 0025;
},
{
glyphname = ampersand;
layers = (
{
hints = (
{
horizontal = 1;
place = "{-7, 21}";
target = up;
type = BottomGhost;
},
{
horizontal = 1;
place = "{36, 24}";
type = Stem;
},
{
horizontal = 1;
place = "{240, 23}";
type = Stem;
},
{
horizontal = 1;
place = "{534, 23}";
type = Stem;
},
{
place = "{28, 56}";
type = Stem;
},
{
place = "{142, 10}";
type = Stem;
},
{
place = "{221, 22}";
type = Stem;
},
{
place = "{15, 62}";
type = Stem;
},
{
place = "{231, 22}";
type = Stem;
},
{
horizontal = 1;
place = "{284, 26}";
type = Stem;
}
);
layerId = "D8F0BABD-30A0-4B34-9C55-2C8E337B4047";
paths = (
{
closed = 1;
nodes = (
"258 -7 LINE",
"258 -7 OFFCURVE",
"253 52 OFFCURVE",
"253 92 CURVE SMOOTH",
"253 126 OFFCURVE",
"256 215 OFFCURVE",
"257 240 CURVE",
"303 240 LINE",
"303 269 LINE",
"303 269 OFFCURVE",
"254 263 OFFCURVE",
"223 263 CURVE SMOOTH",
"191 263 OFFCURVE",
"142 269 OFFCURVE",
"142 269 CURVE",
"142 240 LINE",
"217 240 LINE",
"217 215 OFFCURVE",
"217 174 OFFCURVE",
"217 169 CURVE SMOOTH",
"217 94 OFFCURVE",
"183 60 OFFCURVE",
"144 60 CURVE SMOOTH",
"109 60 OFFCURVE",
"77 89 OFFCURVE",
"77 169 CURVE SMOOTH",
"77 283 OFFCURVE",
"152 284 OFFCURVE",
"152 284 CURVE",
"152 304 LINE",
"152 310 LINE",
"152 310 OFFCURVE",
"84 310 OFFCURVE",
"84 419 CURVE SMOOTH",
"84 498 OFFCURVE",
"112 534 OFFCURVE",
"146 534 CURVE SMOOTH",
"188 534 OFFCURVE",
"210 498 OFFCURVE",
"210 412 CURVE",
"248 412 LINE",
"248 412 OFFCURVE",
"243 471 OFFCURVE",
"243 511 CURVE SMOOTH",
"243 550 OFFCURVE",
"248 610 OFFCURVE",
"248 610 CURVE",
"221 610 LINE",
"221 515 LINE",
"205 543 OFFCURVE",
"178 557 OFFCURVE",
"145 557 CURVE SMOOTH",
"77 557 OFFCURVE",
"28 499 OFFCURVE",
"28 419 CURVE SMOOTH",
"28 363 OFFCURVE",
"52 320 OFFCURVE",
"93 300 CURVE",
"45 280 OFFCURVE",
"15 230 OFFCURVE",
"15 169 CURVE SMOOTH",
"15 105 OFFCURVE",
"56 36 OFFCURVE",
"144 36 CURVE SMOOTH",
"182 36 OFFCURVE",
"212 50 OFFCURVE",
"231 77 CURVE",
"231 -7 LINE"
);
}
);
width = 318;
}
);
note = ampersand;
unicode = 0026;
},
{
glyphname = quotesingle;
layers = (
{
hints = (
{
horizontal = 1;
place = "{485, 132}";
type = Stem;
},
{
place = "{15, 39}";
type = Stem;
}
);
layerId = "D8F0BABD-30A0-4B34-9C55-2C8E337B4047";
paths = (
{
closed = 1;
nodes = (
"15 485 LINE",
"54 485 LINE",
"72 617 LINE",
"15 617 LINE"
);
}
);
width = 87;
}
);
note = quotesingle;
unicode = 0027;
},
{
glyphname = parenleft;
layers = (
{
hints = (
{
horizontal = 1;
place = "{-73, 22}";
type = Stem;
},
{
horizontal = 1;
place = "{625, 24}";
type = Stem;
},
{
place = "{15, 59}";
type = Stem;
}
);
layerId = "D8F0BABD-30A0-4B34-9C55-2C8E337B4047";
paths = (
{
closed = 1;
nodes = (
"170 -73 LINE",
"170 -51 LINE",
"163 -50 LINE SMOOTH",
"143 -48 OFFCURVE",
"121 -14 OFFCURVE",
"104 42 CURVE SMOOTH",
"84 106 OFFCURVE",
"74 193 OFFCURVE",
"74 289 CURVE SMOOTH",
"74 498 OFFCURVE",
"120 618 OFFCURVE",
"164 625 CURVE SMOOTH",
"170 626 LINE",
"170 651 LINE",
"162 650 LINE SMOOTH",
"76 644 OFFCURVE",
"15 495 OFFCURVE",
"15 289 CURVE SMOOTH",
"15 84 OFFCURVE",
"77 -68 OFFCURVE",
"162 -73 CURVE SMOOTH"
);
}
);
width = 185;
}
);
note = parenleft;
unicode = 0028;
},
{
glyphname = parenright;
layers = (
{
hints = (
{
horizontal = 1;
place = "{-73, 24}";
type = Stem;
},
{
horizontal = 1;
place = "{628, 22}";
type = Stem;
},
{
place = "{111, 59}";
type = Stem;
}
);
layerId = "D8F0BABD-30A0-4B34-9C55-2C8E337B4047";
paths = (
{
closed = 1;
nodes = (
"15 -73 LINE",
"23 -73 LINE SMOOTH",
"109 -67 OFFCURVE",
"170 82 OFFCURVE",
"170 289 CURVE SMOOTH",
"170 494 OFFCURVE",
"108 646 OFFCURVE",
"22 650 CURVE SMOOTH",
"15 651 LINE",
"15 628 LINE",
"21 628 LINE",
"42 625 OFFCURVE",
"64 591 OFFCURVE",
"81 536 CURVE SMOOTH",
"100 472 OFFCURVE",
"111 384 OFFCURVE",
"111 289 CURVE SMOOTH",
"111 79 OFFCURVE",
"65 -41 OFFCURVE",
"21 -48 CURVE SMOOTH",
"15 -49 LINE"
);
}
);
width = 185;
}
);
note = parenright;
unicode = 0029;
},
{
glyphname = asterisk;
layers = (
{
hints = (
{
horizontal = 1;
place = "{493, 27}";
type = Stem;
},
{
place = "{87, 27}";
type = Stem;
},
{
place = "{172, 14}";
type = Stem;
}
);
layerId = "D8F0BABD-30A0-4B34-9C55-2C8E337B4047";
paths = (
{
closed = 1;
nodes = (
"104 421 OFFCURVE",
"107 423 OFFCURVE",
"110 425 CURVE",
"112 428 OFFCURVE",
"114 432 OFFCURVE",
"114 435 CURVE SMOOTH",
"112 480 LINE",
"141 447 LINE SMOOTH",
"144 444 OFFCURVE",
"148 443 OFFCURVE",
"151 443 CURVE SMOOTH",
"155 443 OFFCURVE",
"158 444 OFFCURVE",
"161 447 CURVE SMOOTH",
"164 449 OFFCURVE",
"165 453 OFFCURVE",
"165 456 CURVE SMOOTH",
"165 460 OFFCURVE",
"163 464 OFFCURVE",
"161 466 CURVE SMOOTH",
"129 495 LINE",
"172 493 LINE SMOOTH",
"176 493 OFFCURVE",
"179 495 OFFCURVE",
"182 497 CURVE SMOOTH",
"185 500 OFFCURVE",
"186 503 OFFCURVE",
"186 507 CURVE SMOOTH",
"186 514 OFFCURVE",
"180 520 OFFCURVE",
"172 520 CURVE",
"172 520 OFFCURVE",
"128 518 OFFCURVE",
"128 518 CURVE",
"161 548 LINE SMOOTH",
"163 550 OFFCURVE",
"165 554 OFFCURVE",
"165 557 CURVE SMOOTH",
"165 561 OFFCURVE",
"164 565 OFFCURVE",
"161 567 CURVE",
"159 570 OFFCURVE",
"155 571 OFFCURVE",
"152 571 CURVE SMOOTH",
"148 571 OFFCURVE",
"144 570 OFFCURVE",
"142 567 CURVE",
"112 534 LINE",
"114 578 LINE SMOOTH",
"114 582 OFFCURVE",
"112 585 OFFCURVE",
"110 588 CURVE",
"107 590 OFFCURVE",
"104 592 OFFCURVE",
"100 592 CURVE SMOOTH",
"97 592 OFFCURVE",
"93 590 OFFCURVE",
"90 588 CURVE",
"88 585 OFFCURVE",
"87 582 OFFCURVE",
"87 578 CURVE SMOOTH",
"89 535 LINE",
"60 567 LINE SMOOTH",
"57 570 OFFCURVE",
"53 571 OFFCURVE",
"50 571 CURVE SMOOTH",
"46 571 OFFCURVE",
"43 570 OFFCURVE",
"40 567 CURVE SMOOTH",
"38 565 OFFCURVE",
"36 561 OFFCURVE",
"36 558 CURVE SMOOTH",
"36 554 OFFCURVE",
"38 550 OFFCURVE",
"41 548 CURVE",
"73 518 LINE",
"29 520 LINE SMOOTH",
"21 520 OFFCURVE",
"15 514 OFFCURVE",
"15 507 CURVE SMOOTH",
"15 499 OFFCURVE",
"21 493 OFFCURVE",
"29 493 CURVE",
"29 493 OFFCURVE",
"73 495 OFFCURVE",
"73 495 CURVE",
"41 466 LINE SMOOTH",
"38 463 OFFCURVE",
"36 460 OFFCURVE",
"36 456 CURVE SMOOTH",
"36 453 OFFCURVE",
"38 449 OFFCURVE",
"40 446 CURVE",
"43 444 OFFCURVE",
"46 442 OFFCURVE",
"50 442 CURVE SMOOTH",
"54 442 OFFCURVE",
"57 444 OFFCURVE",
"60 447 CURVE SMOOTH",
"89 479 LINE",
"87 435 LINE SMOOTH",
"87 432 OFFCURVE",
"88 428 OFFCURVE",
"90 425 CURVE",
"93 423 OFFCURVE",
"97 421 OFFCURVE",
"100 421 CURVE SMOOTH"
);
}
);
width = 201;
}
);
note = asterisk;
unicode = 002A;
},
{
glyphname = plus;
layers = (
{
hints = (
{
horizontal = 1;
place = "{271, 35}";
type = Stem;
},
{
place = "{102, 35}";
type = Stem;
}
);
layerId = "D8F0BABD-30A0-4B34-9C55-2C8E337B4047";
paths = (
{
closed = 1;
nodes = (
"137 184 LINE",
"137 271 LINE",
"224 271 LINE",
"224 306 LINE",
"137 306 LINE",
"137 393 LINE",
"102 393 LINE",
"102 306 LINE",
"15 306 LINE",
"15 271 LINE",
"102 271 LINE",
"102 184 LINE"
);
}
);
width = 239;
}
);
note = plus;
unicode = 002B;
},
{
glyphname = equal;
layers = (
{
hints = (
{
horizontal = 1;
place = "{242, 35}";
type = Stem;
},
{
horizontal = 1;
place = "{308, 35}";
type = Stem;
},
{
place = "{15, 210}";
type = Stem;
}
);
layerId = "D8F0BABD-30A0-4B34-9C55-2C8E337B4047";
paths = (
{
closed = 1;
nodes = (
"15 242 LINE",
"225 242 LINE",
"225 277 LINE",
"15 277 LINE"
);
},
{
closed = 1;
nodes = (
"15 308 LINE",
"225 308 LINE",
"225 343 LINE",
"15 343 LINE"
);
}
);
width = 240;
}
);
note = equal;
unicode = 003D;
},
{
glyphname = hyphen;
layers = (
{
hints = (
{
horizontal = 1;
place = "{308, 35}";
type = Stem;
},
{
place = "{15, 210}";
type = Stem;
}
);
layerId = "D8F0BABD-30A0-4B34-9C55-2C8E337B4047";
paths = (
{
closed = 1;
nodes = (
"225 308 LINE",
"225 343 LINE",
"15 343 LINE",
"15 308 LINE"
);
}
);
width = 240;
}
);
note = hyphen;
unicode = 002D;
},
{
glyphname = comma;
layers = (
{
hints = (
{
horizontal = 1;
place = "{-49, 19}";
type = Stem;
},
{
horizontal = 1;
place = "{3, 98}";
type = Stem;
},
{
place = "{67, 27}";
type = Stem;
}
);
layerId = "D8F0BABD-30A0-4B34-9C55-2C8E337B4047";
paths = (
{
closed = 1;
nodes = (
"48 -49 OFFCURVE",
"71 -39 OFFCURVE",
"81 -20 CURVE SMOOTH",
"89 -4 OFFCURVE",
"94 16 OFFCURVE",
"94 37 CURVE SMOOTH",
"94 75 OFFCURVE",
"79 101 OFFCURVE",
"56 101 CURVE SMOOTH",
"32 101 OFFCURVE",
"15 81 OFFCURVE",
"15 52 CURVE SMOOTH",
"15 25 OFFCURVE",
"33 3 OFFCURVE",
"54 3 CURVE SMOOTH",
"59 3 OFFCURVE",
"63 4 OFFCURVE",
"67 6 CURVE",
"62 -29 OFFCURVE",
"42 -30 OFFCURVE",
"30 -30 CURVE",
"30 -49 LINE"
);
}
);
width = 109;
}
);
note = comma;
unicode = 002C;
},
{
glyphname = period;
layers = (
{
hints = (
{
horizontal = 1;
place = "{3, 98}";
type = Stem;
},
{
place = "{15, 77}";
type = Stem;
}
);
layerId = "D8F0BABD-30A0-4B34-9C55-2C8E337B4047";
paths = (
{
closed = 1;
nodes = (
"75 3 OFFCURVE",
"92 25 OFFCURVE",
"92 52 CURVE SMOOTH",
"92 79 OFFCURVE",
"75 101 OFFCURVE",
"54 101 CURVE SMOOTH",
"33 101 OFFCURVE",
"15 79 OFFCURVE",
"15 52 CURVE SMOOTH",
"15 25 OFFCURVE",
"33 3 OFFCURVE",
"54 3 CURVE SMOOTH"
);
}
);
width = 107;
}
);
note = period;
unicode = 002E;
},
{
glyphname = slash;
layers = (
{
hints = (
{
horizontal = 1;
place = "{3, 614}";
type = Stem;
},
{
place = "{15, 135}";
type = Stem;
}
);
layerId = "D8F0BABD-30A0-4B34-9C55-2C8E337B4047";
paths = (
{
closed = 1;
nodes = (
"50 3 LINE",
"150 617 LINE",
"115 617 LINE",
"15 3 LINE"
);
}
);
width = 165;
}
);
note = slash;
unicode = 002F;
},
{
glyphname = fraction;
layers = (
{
hints = (
{
horizontal = 1;
place = "{3, 614}";
type = Stem;
},
{
place = "{15, 135}";
type = Stem;
}
);
layerId = "D8F0BABD-30A0-4B34-9C55-2C8E337B4047";
paths = (
{
closed = 1;
nodes = (
"50 3 LINE",
"150 617 LINE",
"115 617 LINE",
"15 3 LINE"
);
}
);
width = 165;
}
);
note = fraction;
unicode = 2044;
},
{
glyphname = colon;
layers = (
{
hints = (
{
horizontal = 1;
place = "{3, 98}";
type = Stem;
},
{
horizontal = 1;
place = "{287, 98}";
type = Stem;
},
{
place = "{15, 77}";
type = Stem;
}
);
layerId = "D8F0BABD-30A0-4B34-9C55-2C8E337B4047";
paths = (
{
closed = 1;
nodes = (
"75 3 OFFCURVE",
"92 25 OFFCURVE",
"92 52 CURVE SMOOTH",
"92 79 OFFCURVE",
"75 101 OFFCURVE",
"54 101 CURVE SMOOTH",
"33 101 OFFCURVE",
"15 79 OFFCURVE",
"15 52 CURVE SMOOTH",
"15 25 OFFCURVE",
"33 3 OFFCURVE",
"54 3 CURVE SMOOTH"
);
},
{
closed = 1;
nodes = (
"75 287 OFFCURVE",
"92 309 OFFCURVE",
"92 336 CURVE SMOOTH",
"92 363 OFFCURVE",
"75 385 OFFCURVE",
"54 385 CURVE SMOOTH",
"33 385 OFFCURVE",
"15 363 OFFCURVE",
"15 336 CURVE SMOOTH",
"15 309 OFFCURVE",
"33 287 OFFCURVE",
"54 287 CURVE SMOOTH"
);
}
);
width = 107;
}
);
note = colon;
unicode = 003A;
},
{
glyphname = semicolon;
layers = (
{
hints = (
{
horizontal = 1;
place = "{-49, 19}";
type = Stem;
},
{
horizontal = 1;
place = "{3, 98}";
type = Stem;
},
{
horizontal = 1;
place = "{287, 98}";
type = Stem;
},
{
place = "{67, 27}";
type = Stem;
},
{
place = "{15, 77}";
type = Stem;
}
);
layerId = "D8F0BABD-30A0-4B34-9C55-2C8E337B4047";
paths = (
{
closed = 1;
nodes = (
"30 -49 LINE",
"48 -49 OFFCURVE",
"71 -39 OFFCURVE",
"81 -20 CURVE SMOOTH",
"89 -4 OFFCURVE",
"94 16 OFFCURVE",
"94 37 CURVE SMOOTH",
"94 75 OFFCURVE",
"79 101 OFFCURVE",
"56 101 CURVE SMOOTH",
"32 101 OFFCURVE",
"15 81 OFFCURVE",
"15 52 CURVE SMOOTH",
"15 25 OFFCURVE",
"33 3 OFFCURVE",
"54 3 CURVE SMOOTH",
"59 3 OFFCURVE",
"63 4 OFFCURVE",
"67 6 CURVE",
"62 -29 OFFCURVE",
"42 -30 OFFCURVE",
"30 -30 CURVE"
);
},
{
closed = 1;
nodes = (
"75 287 OFFCURVE",
"92 309 OFFCURVE",
"92 336 CURVE SMOOTH",
"92 363 OFFCURVE",
"75 385 OFFCURVE",
"54 385 CURVE SMOOTH",
"33 385 OFFCURVE",
"15 363 OFFCURVE",
"15 336 CURVE SMOOTH",
"15 309 OFFCURVE",
"33 287 OFFCURVE",
"54 287 CURVE SMOOTH"
);
}
);
width = 109;
}
);
note = semicolon;
unicode = 003B;
},
{
glyphname = less;
layers = (
{
hints = (
{
horizontal = 1;
place = "{96, 301}";
type = Stem;
},
{
place = "{15, 28}";
type = Stem;
}
);
layerId = "D8F0BABD-30A0-4B34-9C55-2C8E337B4047";
paths = (
{
closed = 1;
nodes = (
"172 96 LINE",
"172 134 LINE",
"43 247 LINE",
"172 359 LINE",
"172 397 LINE",
"15 265 LINE",
"15 228 LINE"
);
}
);
width = 187;
}
);
note = less;
unicode = 003C;
},
{
glyphname = greater;
layers = (
{
hints = (
{
horizontal = 1;
place = "{96, 301}";
type = Stem;
},
{
place = "{144, 29}";
type = Stem;
}
);
layerId = "D8F0BABD-30A0-4B34-9C55-2C8E337B4047";
paths = (
{
closed = 1;
nodes = (
"15 96 LINE",
"173 228 LINE",
"173 265 LINE",
"15 397 LINE",
"15 359 LINE",
"144 247 LINE",
"15 134 LINE"
);
}
);
width = 188;
}
);
note = greater;
unicode = 003E;
},
{
glyphname = question;
layers = (
{
hints = (
{
horizontal = 1;
place = "{3, 98}";
type = Stem;
},
{
horizontal = 1;
place = "{586, 31}";
type = Stem;
},
{
place = "{21, 22}";
type = Stem;
},
{
place = "{83, 34}";
type = Stem;
},
{
place = "{192, 56}";
type = Stem;
},
{
place = "{62, 77}";
type = Stem;
}
);
layerId = "D8F0BABD-30A0-4B34-9C55-2C8E337B4047";
paths = (
{
closed = 1;
nodes = (
"117 111 LINE",
"117 260 OFFCURVE",
"141 279 OFFCURVE",
"171 304 CURVE SMOOTH",
"181 312 OFFCURVE",
"193 321 OFFCURVE",
"204 335 CURVE SMOOTH",
"253 400 OFFCURVE",
"262 486 OFFCURVE",
"226 555 CURVE SMOOTH",
"206 593 OFFCURVE",
"172 617 OFFCURVE",
"138 617 CURVE SMOOTH",
"91 617 OFFCURVE",
"60 588 OFFCURVE",
"43 527 CURVE",
"43 605 LINE",
"15 605 LINE",
"15 605 OFFCURVE",
"21 537 OFFCURVE",
"21 490 CURVE SMOOTH",
"21 442 OFFCURVE",
"15 374 OFFCURVE",
"15 374 CURVE",
"57 374 LINE",
"57 374 OFFCURVE",
"48 586 OFFCURVE",
"138 586 CURVE SMOOTH",
"158 586 OFFCURVE",
"174 570 OFFCURVE",
"183 542 CURVE SMOOTH",
"203 479 OFFCURVE",
"189 407 OFFCURVE",
"145 354 CURVE",
"137 346 OFFCURVE",
"131 339 OFFCURVE",
"125 333 CURVE SMOOTH",
"91 297 OFFCURVE",
"83 289 OFFCURVE",
"83 111 CURVE"
);
},
{
closed = 1;
nodes = (
"122 3 OFFCURVE",
"139 25 OFFCURVE",
"139 52 CURVE SMOOTH",
"139 79 OFFCURVE",
"122 101 OFFCURVE",
"100 101 CURVE SMOOTH",
"79 101 OFFCURVE",
"62 79 OFFCURVE",
"62 52 CURVE SMOOTH",
"62 25 OFFCURVE",
"79 3 OFFCURVE",
"100 3 CURVE SMOOTH"
);
}
);
width = 263;
}
);
note = question;
unicode = 003F;
},
{
glyphname = bracketleft;
layers = (
{
hints = (
{
horizontal = 1;
place = "{-73, 35}";
type = Stem;
},
{
horizontal = 1;
place = "{598, 34}";
type = Stem;
},
{
place = "{15, 45}";
type = Stem;
}
);
layerId = "D8F0BABD-30A0-4B34-9C55-2C8E337B4047";
paths = (
{
closed = 1;
nodes = (
"154 -73 LINE",
"154 -38 LINE",
"60 -38 LINE",
"60 598 LINE",
"154 598 LINE",
"154 632 LINE",
"15 632 LINE",
"15 -73 LINE"
);
}
);
width = 169;
}
);
note = bracketleft;
unicode = 005B;
},
{
glyphname = bracketright;
layers = (
{
hints = (
{
horizontal = 1;
place = "{-73, 35}";
type = Stem;
},
{
horizontal = 1;
place = "{598, 34}";
type = Stem;
},
{
place = "{108, 45}";
type = Stem;
}
);
layerId = "D8F0BABD-30A0-4B34-9C55-2C8E337B4047";
paths = (
{
closed = 1;
nodes = (
"153 -73 LINE",
"153 632 LINE",
"15 632 LINE",
"15 598 LINE",
"108 598 LINE",
"108 -38 LINE",
"15 -38 LINE",
"15 -73 LINE"
);
}
);
width = 168;
}
);
note = bracketright;
unicode = 005D;
},
{
glyphname = backslash;
layers = (
{
hints = (
{
horizontal = 1;
place = "{3, 614}";
type = Stem;
},
{
place = "{15, 135}";
type = Stem;
}
);
layerId = "D8F0BABD-30A0-4B34-9C55-2C8E337B4047";
paths = (
{
closed = 1;
nodes = (
"50 617 LINE",
"15 617 LINE",
"115 3 LINE",
"150 3 LINE"
);
}
);
width = 165;
}
);
note = backslash;
unicode = 005C;
},
{
glyphname = asciicircum;
layers = (
{
hints = (
{
horizontal = 1;
place = "{687, 31}";
type = Stem;
},
{
place = "{15, 221}";
type = Stem;
}
);
layerId = "D8F0BABD-30A0-4B34-9C55-2C8E337B4047";
paths = (
{
closed = 1;
nodes = (
"236 561 LINE",
"144 718 LINE",
"107 718 LINE",
"15 561 LINE",
"52 561 LINE",
"125 687 LINE",
"199 561 LINE"
);
}
);
width = 251;
}
);
note = asciicircum;
unicode = 005E;
},
{
glyphname = underscore;
layers = (
{
hints = (
{
horizontal = 1;
place = "{-132, 35}";
type = Stem;
},
{
place = "{15, 210}";
type = Stem;
}
);
layerId = "D8F0BABD-30A0-4B34-9C55-2C8E337B4047";
paths = (
{
closed = 1;
nodes = (
"225 -132 LINE",
"225 -97 LINE",
"15 -97 LINE",
"15 -132 LINE"
);
}
);
width = 240;
}
);
note = underscore;
unicode = 005F;
},
{
glyphname = grave;
layers = (
{
hints = (
{
horizontal = 1;
place = "{614, 136}";
type = Stem;
},
{
place = "{15, 148}";
type = Stem;
}
);
layerId = "D8F0BABD-30A0-4B34-9C55-2C8E337B4047";
paths = (
{
closed = 1;
nodes = (
"153 614 LINE",
"163 629 LINE",
"75 750 LINE",
"15 704 LINE"
);
}
);
width = 178;
}
);
note = grave;
unicode = 0060;
},
{
glyphname = braceleft;
layers = (
{
hints = (
{
horizontal = 1;
place = "{-73, 22}";
type = Stem;
},
{
horizontal = 1;
place = "{303, 13}";
type = Stem;
},
{
horizontal = 1;
place = "{625, 24}";
type = Stem;
},
{
place = "{15, 183}";
type = Stem;
},
{
place = "{15, 86}";
type = Stem;
}
);
layerId = "D8F0BABD-30A0-4B34-9C55-2C8E337B4047";
paths = (
{
closed = 1;
nodes = (
"198 -73 LINE",
"198 -51 LINE",
"191 -50 LINE SMOOTH",
"180 -49 OFFCURVE",
"158 -18 OFFCURVE",
"133 65 CURVE SMOOTH",
"115 127 OFFCURVE",
"101 200 OFFCURVE",
"101 238 CURVE SMOOTH",
"101 276 OFFCURVE",
"88 296 OFFCURVE",
"77 306 CURVE",
"91 314 OFFCURVE",
"100 333 OFFCURVE",
"104 361 CURVE",
"113 535 OFFCURVE",
"156 620 OFFCURVE",
"192 625 CURVE SMOOTH",
"198 626 LINE",
"198 651 LINE",
"190 650 LINE SMOOTH",
"114 645 OFFCURVE",
"57 528 OFFCURVE",
"45 355 CURVE SMOOTH",
"43 340 OFFCURVE",
"33 316 OFFCURVE",
"15 316 CURVE",
"15 303 LINE",
"16 302 OFFCURVE",
"40 289 OFFCURVE",
"44 247 CURVE SMOOTH",
"46 186 OFFCURVE",
"54 132 OFFCURVE",
"68 83 CURVE SMOOTH",
"81 35 OFFCURVE",
"97 0 OFFCURVE",
"119 -28 CURVE SMOOTH",
"140 -56 OFFCURVE",
"164 -71 OFFCURVE",
"189 -73 CURVE SMOOTH"
);
}
);
width = 213;
}
);
note = braceleft;
unicode = 007B;
},
{
glyphname = braceright;
layers = (
{
hints = (
{
horizontal = 1;
place = "{-73, 24}";
type = Stem;
},
{
horizontal = 1;
place = "{292, 13}";
type = Stem;
},
{
horizontal = 1;
place = "{628, 22}";
type = Stem;
},
{
place = "{15, 183}";
type = Stem;
},
{
place = "{112, 86}";
type = Stem;
}
);
layerId = "D8F0BABD-30A0-4B34-9C55-2C8E337B4047";
paths = (
{
closed = 1;
nodes = (
"15 -73 LINE",
"23 -73 LINE SMOOTH",
"95 -68 OFFCURVE",
"156 70 OFFCURVE",
"167 253 CURVE",
"170 268 OFFCURVE",
"180 292 OFFCURVE",
"198 292 CURVE",
"198 305 LINE",
"197 305 OFFCURVE",
"173 318 OFFCURVE",
"169 361 CURVE SMOOTH",
"167 416 OFFCURVE",
"160 440 OFFCURVE",
"145 493 CURVE",
"145 494 LINE",
"131 542 OFFCURVE",
"115 577 OFFCURVE",
"94 605 CURVE SMOOTH",
"73 633 OFFCURVE",
"49 648 OFFCURVE",
"24 650 CURVE SMOOTH",
"15 651 LINE",
"15 628 LINE",
"21 628 LINE",
"52 624 OFFCURVE",
"112 467 OFFCURVE",
"112 370 CURVE SMOOTH",
"112 332 OFFCURVE",
"125 312 OFFCURVE",
"135 302 CURVE",
"122 294 OFFCURVE",
"113 275 OFFCURVE",
"109 247 CURVE",
"99 72 OFFCURVE",
"56 -42 OFFCURVE",
"21 -48 CURVE SMOOTH",
"15 -49 LINE"
);
}
);
width = 213;
}
);
note = braceright;
unicode = 007D;
},
{
glyphname = bar;
layers = (
{
hints = (
{
horizontal = 1;
place = "{-103, 853}";
type = Stem;
},
{
place = "{19, 35}";
type = Stem;
}
);
layerId = "D8F0BABD-30A0-4B34-9C55-2C8E337B4047";
paths = (
{
closed = 1;
nodes = (
"50 -103 LINE",
"59 750 LINE",
"24 750 LINE",
"15 -103 LINE"
);
}
);
width = 74;
}
);
note = bar;
unicode = 007C;
},
{
glyphname = asciitilde;
layers = (
{
hints = (
{
horizontal = 1;
place = "{200, 31}";
type = Stem;
},
{
horizontal = 1;
place = "{279, 35}";
type = Stem;
},
{
place = "{15, 388}";
type = Stem;
}
);
layerId = "D8F0BABD-30A0-4B34-9C55-2C8E337B4047";
paths = (
{
closed = 1;
nodes = (
"38 205 LINE",
"38 205 OFFCURVE",
"49 279 OFFCURVE",
"113 279 CURVE SMOOTH",
"178 279 OFFCURVE",
"199 200 OFFCURVE",
"295 200 CURVE SMOOTH",
"390 200 OFFCURVE",
"403 314 OFFCURVE",
"403 314 CURVE",
"375 314 LINE",
"375 314 OFFCURVE",
"346 231 OFFCURVE",
"293 231 CURVE SMOOTH",
"239 231 OFFCURVE",
"176 314 OFFCURVE",
"112 314 CURVE SMOOTH",
"26 314 OFFCURVE",
"15 210 OFFCURVE",
"15 210 CURVE"
);
}
);
width = 418;
}
);
note = asciitilde;
unicode = 007E;
},
{
glyphname = Euro;
layers = (
{
hints = (
{
horizontal = 1;
place = "{73, 23}";
type = Stem;
},
{
horizontal = 1;
place = "{249, 27}";
type = Stem;
},
{
horizontal = 1;
place = "{311, 27}";
type = Stem;
},
{
horizontal = 1;
place = "{495, 26}";
type = Stem;
},
{
place = "{48, 61}";
type = Stem;
},
{
place = "{272, 23}";
type = Stem;
},
{
horizontal = 1;
place = "{245, 7}";
type = Stem;
},
{
place = "{51, 59}";
type = Stem;
},
{
horizontal = 1;
place = "{494, 8}";
type = Stem;
}
);
layerId = "D8F0BABD-30A0-4B34-9C55-2C8E337B4047";
paths = (
{
closed = 1;
nodes = (
"218 73 OFFCURVE",
"253 95 OFFCURVE",
"272 140 CURVE",
"272 94 LINE",
"300 94 LINE",
"299 102 LINE",
"299 102 OFFCURVE",
"295 142 OFFCURVE",
"295 174 CURVE SMOOTH",
"295 205 OFFCURVE",
"299 245 OFFCURVE",
"299 245 CURVE",
"301 255 LINE",
"301 255 OFFCURVE",
"285 252 OFFCURVE",
"279 252 CURVE SMOOTH",
"278 252 OFFCURVE",
"258 253 OFFCURVE",
"258 253 CURVE",
"258 253 OFFCURVE",
"272 96 OFFCURVE",
"169 96 CURVE SMOOTH",
"136 96 OFFCURVE",
"116 149 OFFCURVE",
"110 249 CURVE",
"220 249 LINE",
"220 276 LINE",
"110 276 LINE",
"109 286 OFFCURVE",
"109 295 OFFCURVE",
"109 305 CURVE SMOOTH",
"109 307 OFFCURVE",
"109 309 OFFCURVE",
"109 311 CURVE",
"220 311 LINE",
"220 338 LINE",
"110 338 LINE",
"113 443 OFFCURVE",
"134 495 OFFCURVE",
"174 495 CURVE SMOOTH",
"267 495 OFFCURVE",
"255 343 OFFCURVE",
"255 343 CURVE",
"255 343 OFFCURVE",
"272 345 OFFCURVE",
"277 345 CURVE SMOOTH",
"282 345 OFFCURVE",
"300 343 OFFCURVE",
"300 343 CURVE",
"300 343 OFFCURVE",
"295 391 OFFCURVE",
"295 423 CURVE SMOOTH",
"295 454 OFFCURVE",
"299 494 OFFCURVE",
"299 494 CURVE",
"300 502 LINE",
"272 502 LINE",
"272 458 LINE",
"254 500 OFFCURVE",
"221 521 OFFCURVE",
"173 521 CURVE SMOOTH",
"101 521 OFFCURVE",
"56 454 OFFCURVE",
"49 338 CURVE",
"15 338 LINE",
"15 311 LINE",
"48 311 LINE",
"48 309 OFFCURVE",
"48 307 OFFCURVE",
"48 305 CURVE SMOOTH",
"48 295 OFFCURVE",
"49 286 OFFCURVE",
"49 276 CURVE",
"15 276 LINE",
"15 249 LINE",
"51 249 LINE",
"62 138 OFFCURVE",
"106 73 OFFCURVE",
"169 73 CURVE SMOOTH"
);
}
);
width = 316;
}
);
note = Euro;
unicode = 20AC;
},
{
glyphname = quotesinglbase;
layers = (
{
hints = (
{
horizontal = 1;
place = "{-49, 19}";
type = Stem;
},
{
horizontal = 1;
place = "{3, 98}";
type = Stem;
},
{
place = "{67, 27}";
type = Stem;
}
);
layerId = "D8F0BABD-30A0-4B34-9C55-2C8E337B4047";
paths = (
{
closed = 1;
nodes = (
"48 -49 OFFCURVE",
"71 -39 OFFCURVE",
"81 -20 CURVE SMOOTH",
"89 -4 OFFCURVE",
"94 16 OFFCURVE",
"94 37 CURVE SMOOTH",
"94 75 OFFCURVE",
"79 101 OFFCURVE",
"56 101 CURVE SMOOTH",
"32 101 OFFCURVE",
"15 81 OFFCURVE",
"15 52 CURVE SMOOTH",
"15 25 OFFCURVE",
"33 3 OFFCURVE",
"54 3 CURVE SMOOTH",
"59 3 OFFCURVE",
"63 4 OFFCURVE",
"67 6 CURVE",
"62 -29 OFFCURVE",
"42 -30 OFFCURVE",
"30 -30 CURVE",
"30 -49 LINE"
);
}
);
width = 109;
}
);
note = quotesinglbase;
unicode = 201A;
},
{
glyphname = quotedblbase;
layers = (
{
hints = (
{
horizontal = 1;
place = "{-59, 19}";
type = Stem;
},
{
horizontal = 1;
place = "{-4, 21}";
target = up;
type = BottomGhost;
},
{
place = "{67, 27}";
type = Stem;
},
{
place = "{166, 27}";
type = Stem;
},
{
horizontal = 1;
place = "{-49, 19}";
type = Stem;
},
{
horizontal = 1;
place = "{3, 98}";
type = Stem;
},
{
horizontal = 1;
place = "{-7, 98}";
type = Stem;
}
);
layerId = "D8F0BABD-30A0-4B34-9C55-2C8E337B4047";
paths = (
{
closed = 1;
nodes = (
"30 -49 LINE",
"48 -49 OFFCURVE",
"71 -39 OFFCURVE",
"81 -20 CURVE SMOOTH",
"89 -4 OFFCURVE",
"94 16 OFFCURVE",
"94 37 CURVE SMOOTH",
"94 75 OFFCURVE",
"79 101 OFFCURVE",
"56 101 CURVE SMOOTH",
"32 101 OFFCURVE",
"15 81 OFFCURVE",
"15 52 CURVE SMOOTH",
"15 25 OFFCURVE",
"33 3 OFFCURVE",
"54 3 CURVE SMOOTH",
"59 3 OFFCURVE",
"63 4 OFFCURVE",
"67 6 CURVE",
"62 -29 OFFCURVE",
"42 -30 OFFCURVE",
"30 -30 CURVE"
);
},
{
closed = 1;
nodes = (
"129 -59 LINE",
"147 -59 OFFCURVE",
"170 -49 OFFCURVE",
"180 -30 CURVE SMOOTH",
"188 -14 OFFCURVE",
"193 6 OFFCURVE",
"193 27 CURVE SMOOTH",
"193 65 OFFCURVE",
"178 91 OFFCURVE",
"155 91 CURVE SMOOTH",
"131 91 OFFCURVE",
"114 71 OFFCURVE",
"114 42 CURVE SMOOTH",
"114 15 OFFCURVE",
"132 -7 OFFCURVE",
"153 -7 CURVE SMOOTH",
"158 -7 OFFCURVE",
"162 -6 OFFCURVE",
"166 -4 CURVE",
"161 -39 OFFCURVE",
"141 -40 OFFCURVE",
"129 -40 CURVE"
);
}
);
width = 208;
}
);
note = quotedblbase;
unicode = 201E;
},
{
glyphname = ellipsis;
layers = (
{
hints = (
{
horizontal = 1;
place = "{-12, 21}";
target = up;
type = BottomGhost;
},
{
place = "{15, 77}";
type = Stem;
},
{
place = "{227, 77}";
type = Stem;
},
{
horizontal = 1;
place = "{3, 98}";
type = Stem;
},
{
place = "{118, 77}";
type = Stem;
},
{
horizontal = 1;
place = "{-12, 98}";
type = Stem;
}
);
layerId = "D8F0BABD-30A0-4B34-9C55-2C8E337B4047";
paths = (
{
closed = 1;
nodes = (
"75 3 OFFCURVE",
"92 25 OFFCURVE",
"92 52 CURVE SMOOTH",
"92 79 OFFCURVE",
"75 101 OFFCURVE",
"54 101 CURVE SMOOTH",
"33 101 OFFCURVE",
"15 79 OFFCURVE",
"15 52 CURVE SMOOTH",
"15 25 OFFCURVE",
"33 3 OFFCURVE",
"54 3 CURVE SMOOTH"
);
},
{
closed = 1;
nodes = (
"178 -12 OFFCURVE",
"195 10 OFFCURVE",
"195 37 CURVE SMOOTH",
"195 64 OFFCURVE",
"178 86 OFFCURVE",
"157 86 CURVE SMOOTH",
"136 86 OFFCURVE",
"118 64 OFFCURVE",
"118 37 CURVE SMOOTH",
"118 10 OFFCURVE",
"136 -12 OFFCURVE",
"157 -12 CURVE SMOOTH"
);
},
{
closed = 1;
nodes = (
"287 3 OFFCURVE",
"304 25 OFFCURVE",
"304 52 CURVE SMOOTH",
"304 79 OFFCURVE",
"287 101 OFFCURVE",
"266 101 CURVE SMOOTH",
"245 101 OFFCURVE",
"227 79 OFFCURVE",
"227 52 CURVE SMOOTH",
"227 25 OFFCURVE",
"245 3 OFFCURVE",
"266 3 CURVE SMOOTH"
);
}
);
width = 319;
}
);
note = ellipsis;
unicode = 2026;
},
{
glyphname = circumflex;
layers = (
{
hints = (
{
horizontal = 1;
place = "{631, 102}";
type = Stem;
},
{
place = "{50, 208}";
type = Stem;
}
);
layerId = "D8F0BABD-30A0-4B34-9C55-2C8E337B4047";
paths = (
{
closed = 1;
nodes = (
"59 631 LINE",
"154 690 LINE",
"250 631 LINE",
"258 639 LINE",
"164 733 LINE",
"146 733 LINE",
"50 639 LINE"
);
}
);
width = 308;
}
);
note = circumflex;
unicode = 02C6;
},
{
glyphname = guilsinglleft;
layers = (
{
hints = (
{
horizontal = 1;
place = "{96, 301}";
type = Stem;
},
{
place = "{15, 28}";
type = Stem;
}
);
layerId = "D8F0BABD-30A0-4B34-9C55-2C8E337B4047";
paths = (
{
closed = 1;
nodes = (
"172 96 LINE",
"172 134 LINE",
"43 247 LINE",
"172 359 LINE",
"172 397 LINE",
"15 265 LINE",
"15 228 LINE"
);
}
);
width = 187;
}
);
note = guilsinglleft;
unicode = 2039;
},
{
glyphname = quoteleft;
layers = (
{
hints = (
{
horizontal = 1;
place = "{468, 98}";
type = Stem;
},
{
horizontal = 1;
place = "{599, 19}";
type = Stem;
},
{
place = "{15, 27}";
type = Stem;
}
);
layerId = "D8F0BABD-30A0-4B34-9C55-2C8E337B4047";
paths = (
{
closed = 1;
nodes = (
"79 618 LINE",
"61 618 OFFCURVE",
"38 608 OFFCURVE",
"28 589 CURVE SMOOTH",
"20 573 OFFCURVE",
"15 553 OFFCURVE",
"15 532 CURVE SMOOTH",
"15 494 OFFCURVE",
"30 468 OFFCURVE",
"53 468 CURVE SMOOTH",
"77 468 OFFCURVE",
"94 488 OFFCURVE",
"94 517 CURVE SMOOTH",
"94 544 OFFCURVE",
"76 566 OFFCURVE",
"55 566 CURVE SMOOTH",
"50 566 OFFCURVE",
"46 565 OFFCURVE",
"42 563 CURVE",
"47 598 OFFCURVE",
"67 599 OFFCURVE",
"79 599 CURVE"
);
}
);
width = 109;
}
);
note = quoteleft;
unicode = 2018;
},
{
glyphname = quoteright;
layers = (
{
hints = (
{
horizontal = 1;
place = "{468, 19}";
type = Stem;
},
{
horizontal = 1;
place = "{520, 98}";
type = Stem;
},
{
place = "{67, 27}";
type = Stem;
}
);
layerId = "D8F0BABD-30A0-4B34-9C55-2C8E337B4047";
paths = (
{
closed = 1;
nodes = (
"30 468 LINE",
"48 468 OFFCURVE",
"71 478 OFFCURVE",
"81 497 CURVE SMOOTH",
"89 513 OFFCURVE",
"94 533 OFFCURVE",
"94 554 CURVE SMOOTH",
"94 592 OFFCURVE",
"79 618 OFFCURVE",
"56 618 CURVE SMOOTH",
"32 618 OFFCURVE",
"15 598 OFFCURVE",
"15 569 CURVE SMOOTH",
"15 542 OFFCURVE",
"33 520 OFFCURVE",
"54 520 CURVE SMOOTH",
"59 520 OFFCURVE",
"63 521 OFFCURVE",
"67 523 CURVE",
"62 488 OFFCURVE",
"42 487 OFFCURVE",
"30 487 CURVE"
);
}
);
width = 109;
}
);
note = quoteright;
unicode = 2019;
},
{
glyphname = quotedblleft;
layers = (
{
hints = (
{
horizontal = 1;
place = "{468, 98}";
type = Stem;
},
{
horizontal = 1;
place = "{599, 19}";
type = Stem;
},
{
place = "{15, 27}";
type = Stem;
},
{
place = "{112, 27}";
type = Stem;
},
{
horizontal = 1;
place = "{455, 98}";
type = Stem;
},
{
horizontal = 1;
place = "{586, 19}";
type = Stem;
}
);
layerId = "D8F0BABD-30A0-4B34-9C55-2C8E337B4047";
paths = (
{
closed = 1;
nodes = (
"79 618 LINE",
"61 618 OFFCURVE",
"38 608 OFFCURVE",
"28 589 CURVE SMOOTH",
"20 573 OFFCURVE",
"15 553 OFFCURVE",
"15 532 CURVE SMOOTH",
"15 494 OFFCURVE",
"30 468 OFFCURVE",
"53 468 CURVE SMOOTH",
"77 468 OFFCURVE",
"94 488 OFFCURVE",
"94 517 CURVE SMOOTH",
"94 544 OFFCURVE",
"76 566 OFFCURVE",
"55 566 CURVE SMOOTH",
"50 566 OFFCURVE",
"46 565 OFFCURVE",
"42 563 CURVE",
"47 598 OFFCURVE",
"67 599 OFFCURVE",
"79 599 CURVE"
);
},
{
closed = 1;
nodes = (
"176 605 LINE",
"158 605 OFFCURVE",
"135 595 OFFCURVE",
"125 576 CURVE SMOOTH",
"117 560 OFFCURVE",
"112 540 OFFCURVE",
"112 519 CURVE SMOOTH",
"112 481 OFFCURVE",
"127 455 OFFCURVE",
"150 455 CURVE SMOOTH",
"174 455 OFFCURVE",
"191 475 OFFCURVE",
"191 504 CURVE SMOOTH",
"191 531 OFFCURVE",
"173 553 OFFCURVE",
"152 553 CURVE SMOOTH",
"147 553 OFFCURVE",
"143 552 OFFCURVE",
"139 550 CURVE",
"144 585 OFFCURVE",
"164 586 OFFCURVE",
"176 586 CURVE"
);
}
);
width = 206;
}
);
note = quotedblleft;
unicode = 201C;
},
{
glyphname = quotedblright;
layers = (
{
hints = (
{
horizontal = 1;
place = "{481, 19}";
type = Stem;
},
{
horizontal = 1;
place = "{533, 98}";
type = Stem;
},
{
place = "{67, 27}";
type = Stem;
},
{
place = "{157, 27}";
type = Stem;
},
{
horizontal = 1;
place = "{468, 19}";
type = Stem;
},
{
horizontal = 1;
place = "{520, 98}";
type = Stem;
}
);
layerId = "D8F0BABD-30A0-4B34-9C55-2C8E337B4047";
paths = (
{
closed = 1;
nodes = (
"30 468 LINE",
"48 468 OFFCURVE",
"71 478 OFFCURVE",
"81 497 CURVE SMOOTH",
"89 513 OFFCURVE",
"94 533 OFFCURVE",
"94 554 CURVE SMOOTH",
"94 592 OFFCURVE",
"79 618 OFFCURVE",
"56 618 CURVE SMOOTH",
"32 618 OFFCURVE",
"15 598 OFFCURVE",
"15 569 CURVE SMOOTH",
"15 542 OFFCURVE",
"33 520 OFFCURVE",
"54 520 CURVE SMOOTH",
"59 520 OFFCURVE",
"63 521 OFFCURVE",
"67 523 CURVE",
"62 488 OFFCURVE",
"42 487 OFFCURVE",
"30 487 CURVE"
);
},
{
closed = 1;
nodes = (
"120 481 LINE",
"138 481 OFFCURVE",
"161 491 OFFCURVE",
"171 510 CURVE SMOOTH",
"179 526 OFFCURVE",
"184 546 OFFCURVE",
"184 567 CURVE SMOOTH",
"184 605 OFFCURVE",
"169 631 OFFCURVE",
"146 631 CURVE SMOOTH",
"122 631 OFFCURVE",
"105 611 OFFCURVE",
"105 582 CURVE SMOOTH",
"105 555 OFFCURVE",
"123 533 OFFCURVE",
"144 533 CURVE SMOOTH",
"149 533 OFFCURVE",
"153 534 OFFCURVE",
"157 536 CURVE",
"152 501 OFFCURVE",
"132 500 OFFCURVE",
"120 500 CURVE"
);
}
);
width = 199;
}
);
note = quotedblright;
unicode = 201D;
},
{
glyphname = bullet;
layers = (
{
hints = (
{
horizontal = 1;
place = "{285, 144}";
type = Stem;
},
{
place = "{15, 113}";
type = Stem;
}
);
layerId = "D8F0BABD-30A0-4B34-9C55-2C8E337B4047";
paths = (
{
closed = 1;
nodes = (
"103 285 OFFCURVE",
"128 317 OFFCURVE",
"128 357 CURVE SMOOTH",
"128 397 OFFCURVE",
"103 429 OFFCURVE",
"72 429 CURVE SMOOTH",
"42 429 OFFCURVE",
"15 397 OFFCURVE",
"15 357 CURVE SMOOTH",
"15 317 OFFCURVE",
"42 285 OFFCURVE",
"72 285 CURVE SMOOTH"
);
}
);
width = 143;
}
);
note = bullet;
unicode = 2022;
},
{
glyphname = endash;
layers = (
{
hints = (
{
horizontal = 1;
place = "{308, 35}";
type = Stem;
},
{
place = "{15, 210}";
type = Stem;
}
);
layerId = "D8F0BABD-30A0-4B34-9C55-2C8E337B4047";
paths = (
{
closed = 1;
nodes = (
"225 308 LINE",
"225 343 LINE",
"15 343 LINE",
"15 308 LINE"
);
}
);
width = 240;
}
);
note = endash;
unicode = 2013;
},
{
glyphname = emdash;
layers = (
{
hints = (
{
horizontal = 1;
place = "{308, 35}";
type = Stem;
},
{
place = "{15, 348}";
type = Stem;
}
);
layerId = "D8F0BABD-30A0-4B34-9C55-2C8E337B4047";
paths = (
{
closed = 1;
nodes = (
"363 308 LINE",
"363 343 LINE",
"15 343 LINE",
"15 308 LINE"
);
}
);
width = 378;
}
);
note = emdash;
unicode = 2014;
},
{
glyphname = tilde;
layers = (
{
hints = (
{
horizontal = 1;
place = "{618, 30}";
type = Stem;
},
{
place = "{42, 13}";
type = Stem;
},
{
place = "{257, 16}";
type = Stem;
},
{
horizontal = 1;
place = "{664, 33}";
type = Stem;
}
);
layerId = "D8F0BABD-30A0-4B34-9C55-2C8E337B4047";
paths = (
{
closed = 1;
nodes = (
"55 632 LINE",
"55 632 OFFCURVE",
"61 664 OFFCURVE",
"100 664 CURVE SMOOTH",
"139 664 OFFCURVE",
"151 618 OFFCURVE",
"208 618 CURVE SMOOTH",
"266 618 OFFCURVE",
"273 697 OFFCURVE",
"273 697 CURVE",
"257 697 LINE",
"257 697 OFFCURVE",
"240 648 OFFCURVE",
"207 648 CURVE SMOOTH",
"175 648 OFFCURVE",
"138 697 OFFCURVE",
"99 697 CURVE SMOOTH",
"47 697 OFFCURVE",
"42 635 OFFCURVE",
"42 635 CURVE"
);
}
);
width = 315;
}
);
note = tilde;
unicode = 02DC;
},
{
glyphname = guilsinglright;
layers = (
{
hints = (
{
horizontal = 1;
place = "{96, 301}";
type = Stem;
},
{
place = "{144, 29}";
type = Stem;
}
);
layerId = "D8F0BABD-30A0-4B34-9C55-2C8E337B4047";
paths = (
{
closed = 1;
nodes = (
"15 96 LINE",
"173 228 LINE",
"173 265 LINE",
"15 397 LINE",
"15 359 LINE",
"144 247 LINE",
"15 134 LINE"
);
}
);
width = 188;
}
);
note = guilsinglright;
unicode = 203A;
},
{
glyphname = cent;
layers = (
{
hints = (
{
horizontal = 1;
place = "{74, 22}";
type = Stem;
},
{
horizontal = 1;
place = "{245, 7}";
type = Stem;
},
{
horizontal = 1;
place = "{495, 25}";
type = Stem;
},
{
place = "{15, 60}";
type = Stem;
},
{
place = "{128, 24}";
type = Stem;
},
{
place = "{238, 23}";
type = Stem;
},
{
horizontal = 1;
place = "{345, 157}";
type = Stem;
}
);
layerId = "D8F0BABD-30A0-4B34-9C55-2C8E337B4047";
paths = (
{
closed = 1;
nodes = (
"152 16 LINE",
"152 74 LINE",
"193 78 OFFCURVE",
"221 101 OFFCURVE",
"238 140 CURVE",
"238 94 LINE",
"267 94 LINE",
"266 102 LINE",
"266 102 OFFCURVE",
"261 142 OFFCURVE",
"261 174 CURVE SMOOTH",
"261 205 OFFCURVE",
"266 245 OFFCURVE",
"266 245 CURVE",
"267 255 LINE",
"267 255 OFFCURVE",
"251 252 OFFCURVE",
"245 252 CURVE SMOOTH",
"244 252 OFFCURVE",
"224 253 OFFCURVE",
"224 253 CURVE",
"224 253 OFFCURVE",
"232 96 OFFCURVE",
"135 96 CURVE SMOOTH",
"96 96 OFFCURVE",
"75 168 OFFCURVE",
"75 305 CURVE SMOOTH",
"75 432 OFFCURVE",
"97 495 OFFCURVE",
"141 495 CURVE SMOOTH",
"224 495 OFFCURVE",
"221 343 OFFCURVE",
"221 343 CURVE",
"221 343 OFFCURVE",
"238 345 OFFCURVE",
"243 345 CURVE SMOOTH",
"248 345 OFFCURVE",
"267 343 OFFCURVE",
"267 343 CURVE",
"267 343 OFFCURVE",
"261 391 OFFCURVE",
"261 423 CURVE SMOOTH",
"261 454 OFFCURVE",
"267 502 OFFCURVE",
"267 502 CURVE",
"238 502 LINE",
"238 458 LINE",
"222 496 OFFCURVE",
"193 517 OFFCURVE",
"152 520 CURVE",
"152 589 LINE",
"128 589 LINE",
"128 520 LINE",
"56 513 OFFCURVE",
"15 435 OFFCURVE",
"15 305 CURVE SMOOTH",
"15 140 OFFCURVE",
"72 78 OFFCURVE",
"128 73 CURVE",
"128 16 LINE"
);
}
);
width = 282;
}
);
note = cent;
unicode = 00A2;
},
{
glyphname = yen;
layers = (
{
hints = (
{
horizontal = 1;
place = "{21, 20}";
type = Stem;
},
{
horizontal = 1;
place = "{143, 28}";
type = Stem;
},
{
horizontal = 1;
place = "{206, 27}";
type = Stem;
},
{
horizontal = 1;
place = "{490, 19}";
type = Stem;
},
{
place = "{147, 59}";
type = Stem;
},
{
place = "{15, 152}";
type = Stem;
},
{
place = "{206, 130}";
type = Stem;
},
{
horizontal = 1;
place = "{492, 20}";
type = Stem;
}
);
layerId = "D8F0BABD-30A0-4B34-9C55-2C8E337B4047";
paths = (
{
closed = 1;
nodes = (
"209 21 OFFCURVE",
"259 14 OFFCURVE",
"259 14 CURVE",
"259 41 LINE",
"259 41 OFFCURVE",
"208 46 OFFCURVE",
"206 55 CURVE",
"206 143 LINE",
"302 143 LINE",
"302 171 LINE",
"206 171 LINE",
"206 206 LINE",
"302 206 LINE",
"302 233 LINE",
"208 233 LINE",
"284 478 LINE",
"289 486 OFFCURVE",
"336 490 OFFCURVE",
"336 490 CURVE",
"336 517 LINE",
"336 517 OFFCURVE",
"296 509 OFFCURVE",
"272 509 CURVE SMOOTH",
"247 509 OFFCURVE",
"206 515 OFFCURVE",
"206 515 CURVE",
"206 490 LINE",
"206 490 OFFCURVE",
"249 486 OFFCURVE",
"253 478 CURVE",
"191 271 LINE",
"130 480 LINE",
"134 490 OFFCURVE",
"167 492 OFFCURVE",
"167 492 CURVE",
"167 519 LINE",
"167 519 OFFCURVE",
"124 512 OFFCURVE",
"96 512 CURVE SMOOTH",
"67 512 OFFCURVE",
"25 518 OFFCURVE",
"24 518 CURVE SMOOTH",
"15 518 LINE",
"15 492 LINE",
"15 492 OFFCURVE",
"69 486 OFFCURVE",
"72 478 CURVE SMOOTH",
"145 233 LINE",
"50 233 LINE",
"50 206 LINE",
"147 206 LINE",
"147 171 LINE",
"50 171 LINE",
"50 143 LINE",
"147 143 LINE",
"147 54 LINE",
"144 46 OFFCURVE",
"94 41 OFFCURVE",
"94 41 CURVE",
"94 14 LINE",
"94 14 OFFCURVE",
"144 21 OFFCURVE",
"177 21 CURVE SMOOTH"
);
}
);
width = 351;
}
);
note = yen;
unicode = 00A5;
},
{
glyphname = sterling;
layers = (
{
hints = (
{
horizontal = 1;
place = "{-1, 102}";
type = Stem;
},
{
horizontal = 1;
place = "{154, 41}";
type = Stem;
},
{
horizontal = 1;
place = "{308, 30}";
type = Stem;
},
{
horizontal = 1;
place = "{576, 28}";
type = Stem;
},
{
place = "{88, 64}";
type = Stem;
},
{
place = "{306, 27}";
type = Stem;
},
{
place = "{153, 68}";
type = Stem;
},
{
place = "{265, 26}";
type = Stem;
},
{
horizontal = 1;
place = "{71, 31}";
type = Stem;
},
{
horizontal = 1;
place = "{40, 61}";
type = Stem;
}
);
layerId = "D8F0BABD-30A0-4B34-9C55-2C8E337B4047";
paths = (
{
closed = 1;
nodes = (
"306 162 LINE",
"306 112 LINE",
"269 93 OFFCURVE",
"231 102 OFFCURVE",
"202 118 CURVE",
"225 154 OFFCURVE",
"224 204 OFFCURVE",
"215 232 CURVE SMOOTH",
"211 248 OFFCURVE",
"204 277 OFFCURVE",
"194 308 CURVE",
"293 308 LINE",
"293 338 LINE",
"187 338 LINE",
"173 392 OFFCURVE",
"159 448 OFFCURVE",
"155 466 CURVE SMOOTH",
"147 507 OFFCURVE",
"153 538 OFFCURVE",
"168 556 CURVE SMOOTH",
"178 569 OFFCURVE",
"193 576 OFFCURVE",
"211 576 CURVE SMOOTH",
"246 576 OFFCURVE",
"265 549 OFFCURVE",
"265 495 CURVE SMOOTH",
"266 444 LINE",
"298 444 LINE",
"298 444 OFFCURVE",
"291 497 OFFCURVE",
"291 532 CURVE SMOOTH",
"291 566 OFFCURVE",
"296 609 OFFCURVE",
"296 612 CURVE",
"298 620 LINE",
"266 620 LINE",
"266 581 LINE",
"251 596 OFFCURVE",
"232 604 OFFCURVE",
"211 604 CURVE SMOOTH",
"132 604 OFFCURVE",
"88 554 OFFCURVE",
"88 465 CURVE SMOOTH",
"88 453 OFFCURVE",
"98 399 OFFCURVE",
"109 338 CURVE",
"61 338 LINE",
"61 308 LINE",
"116 308 LINE",
"131 242 OFFCURVE",
"145 175 OFFCURVE",
"153 151 CURVE",
"141 165 OFFCURVE",
"126 181 OFFCURVE",
"107 190 CURVE SMOOTH",
"69 206 OFFCURVE",
"20 185 OFFCURVE",
"17 142 CURVE SMOOTH",
"13 112 OFFCURVE",
"44 75 OFFCURVE",
"88 71 CURVE SMOOTH",
"122 67 OFFCURVE",
"149 74 OFFCURVE",
"168 85 CURVE",
"227 43 OFFCURVE",
"291 40 OFFCURVE",
"306 40 CURVE",
"306 -1 LINE",
"339 -1 LINE",
"339 -1 OFFCURVE",
"333 50 OFFCURVE",
"333 81 CURVE SMOOTH",
"333 112 OFFCURVE",
"339 162 OFFCURVE",
"339 162 CURVE"
);
},
{
closed = 1;
nodes = (
"79 170 OFFCURVE",
"115 137 OFFCURVE",
"134 115 CURVE",
"95 81 OFFCURVE",
"51 120 OFFCURVE",
"64 145 CURVE SMOOTH"
);
}
);
width = 359;
}
);
note = sterling;
unicode = 00A3;
},
{
glyphname = dieresis;
layers = (
{
hints = (
{
horizontal = 1;
place = "{618, 88}";
type = Stem;
},
{
place = "{15, 69}";
type = Stem;
},
{
place = "{109, 69}";
type = Stem;
}
);
layerId = "D8F0BABD-30A0-4B34-9C55-2C8E337B4047";
paths = (
{
closed = 1;
nodes = (
"69 618 OFFCURVE",
"84 638 OFFCURVE",
"84 662 CURVE SMOOTH",
"84 686 OFFCURVE",
"69 706 OFFCURVE",
"50 706 CURVE SMOOTH",
"31 706 OFFCURVE",
"15 686 OFFCURVE",
"15 662 CURVE SMOOTH",
"15 638 OFFCURVE",
"31 618 OFFCURVE",
"50 618 CURVE SMOOTH"
);
},
{
closed = 1;
nodes = (
"163 618 OFFCURVE",
"178 638 OFFCURVE",
"178 662 CURVE SMOOTH",
"178 686 OFFCURVE",
"163 706 OFFCURVE",
"144 706 CURVE SMOOTH",
"125 706 OFFCURVE",
"109 686 OFFCURVE",
"109 662 CURVE SMOOTH",
"109 638 OFFCURVE",
"125 618 OFFCURVE",
"144 618 CURVE SMOOTH"
);
}
);
width = 193;
}
);
note = dieresis;
unicode = 00A8;
},
{
glyphname = acute;
layers = (
{
hints = (
{
horizontal = 1;
place = "{614, 136}";
type = Stem;
},
{
place = "{15, 147}";
type = Stem;
}
);
layerId = "D8F0BABD-30A0-4B34-9C55-2C8E337B4047";
paths = (
{
closed = 1;
nodes = (
"103 750 LINE",
"15 629 LINE",
"25 614 LINE",
"162 704 LINE"
);
}
);
width = 177;
}
);
note = acute;
unicode = 00B4;
},
{
glyphname = mu;
layers = (
{
hints = (
{
horizontal = 1;
place = "{-2, 21}";
target = up;
type = BottomGhost;
},
{
horizontal = 1;
place = "{407, 21}";
type = Stem;
},
{
place = "{42, 59}";
type = Stem;
},
{
place = "{204, 58}";
type = Stem;
},
{
horizontal = 1;
place = "{16, 34}";
type = Stem;
},
{
horizontal = 1;
place = "{9, 20}";
type = Stem;
}
);
layerId = "D8F0BABD-30A0-4B34-9C55-2C8E337B4047";
paths = (
{
closed = 1;
nodes = (
"88 -168 OFFCURVE",
"101 -155 OFFCURVE",
"101 -139 CURVE SMOOTH",
"101 28 LINE",
"115 20 OFFCURVE",
"131 16 OFFCURVE",
"151 16 CURVE SMOOTH",
"171 16 OFFCURVE",
"189 21 OFFCURVE",
"204 33 CURVE",
"204 -2 LINE",
"204 -2 OFFCURVE",
"229 9 OFFCURVE",
"247 9 CURVE SMOOTH",
"264 9 OFFCURVE",
"289 -2 OFFCURVE",
"289 -2 CURVE",
"289 22 LINE",
"289 29 LINE",
"289 29 OFFCURVE",
"266 30 OFFCURVE",
"262 45 CURVE",
"262 392 LINE",
"266 406 OFFCURVE",
"289 407 OFFCURVE",
"289 407 CURVE",
"289 438 LINE",
"289 438 OFFCURVE",
"263 428 OFFCURVE",
"237 428 CURVE SMOOTH",
"211 428 OFFCURVE",
"176 436 OFFCURVE",
"176 436 CURVE",
"176 407 LINE",
"176 407 OFFCURVE",
"200 406 OFFCURVE",
"204 392 CURVE",
"204 220 LINE SMOOTH",
"203 67 OFFCURVE",
"167 50 OFFCURVE",
"151 50 CURVE SMOOTH",
"116 50 OFFCURVE",
"101 99 OFFCURVE",
"101 220 CURVE SMOOTH",
"101 392 LINE",
"104 406 OFFCURVE",
"128 407 OFFCURVE",
"128 407 CURVE",
"128 438 LINE",
"128 438 OFFCURVE",
"101 428 OFFCURVE",
"76 428 CURVE SMOOTH",
"50 428 OFFCURVE",
"15 436 OFFCURVE",
"15 436 CURVE",
"15 407 LINE",
"15 407 OFFCURVE",
"38 406 OFFCURVE",
"42 392 CURVE",
"42 -139 LINE SMOOTH",
"42 -155 OFFCURVE",
"55 -168 OFFCURVE",
"71 -168 CURVE SMOOTH"
);
}
);
width = 304;
}
);
note = mu;
unicode = 00B5;
},
{
glyphname = cedilla;
layers = (
{
hints = (
{
horizontal = 1;
place = "{-173, 29}";
type = Stem;
},
{
horizontal = 1;
place = "{-55, 25}";
type = Stem;
},
{
place = "{143, 53}";
type = Stem;
}
);
layerId = "D8F0BABD-30A0-4B34-9C55-2C8E337B4047";
paths = (
{
closed = 1;
nodes = (
"45 -71 LINE",
"72 -71 LINE",
"80 -58 LINE",
"80 -58 OFFCURVE",
"143 -39 OFFCURVE",
"143 -99 CURVE SMOOTH",
"143 -160 OFFCURVE",
"60 -149 OFFCURVE",
"26 -127 CURVE",
"15 -143 LINE",
"15 -143 OFFCURVE",
"40 -173 OFFCURVE",
"101 -173 CURVE SMOOTH",
"162 -173 OFFCURVE",
"196 -136 OFFCURVE",
"196 -93 CURVE SMOOTH",
"196 -42 OFFCURVE",
"141 -14 OFFCURVE",
"90 -40 CURVE",
"109 1 LINE",
"82 1 LINE"
);
}
);
width = 211;
}
);
note = cedilla;
unicode = 00B8;
},
{
glyphname = ogonek;
layers = (
{
hints = (
{
horizontal = 1;
place = "{-193, 40}";
type = Stem;
},
{
horizontal = 1;
place = "{0, 21}";
target = up;
type = BottomGhost;
},
{
place = "{15, 52}";
type = Stem;
},
{
place = "{181, 16}";
type = Stem;
}
);
layerId = "D8F0BABD-30A0-4B34-9C55-2C8E337B4047";
paths = (
{
closed = 1;
nodes = (
"84 0 OFFCURVE",
"32 -36 OFFCURVE",
"19 -86 CURVE SMOOTH",
"8 -127 OFFCURVE",
"16 -193 OFFCURVE",
"108 -193 CURVE SMOOTH",
"201 -193 OFFCURVE",
"197 -89 OFFCURVE",
"197 -89 CURVE",
"181 -89 LINE",
"181 -122 OFFCURVE",
"145 -153 OFFCURVE",
"118 -153 CURVE SMOOTH",
"91 -153 OFFCURVE",
"67 -134 OFFCURVE",
"67 -92 CURVE SMOOTH",
"67 -49 OFFCURVE",
"111 0 OFFCURVE",
"111 0 CURVE",
"84 0 LINE"
);
}
);
width = 213;
}
);
note = ogonek;
unicode = 02DB;
},
{
glyphname = caron;
layers = (
{
hints = (
{
horizontal = 1;
place = "{663, -20}";
target = down;
type = TopGhost;
},
{
place = "{48, 212}";
type = Stem;
},
{
horizontal = 1;
place = "{619, 44}";
type = Stem;
}
);
layerId = "D8F0BABD-30A0-4B34-9C55-2C8E337B4047";
paths = (
{
closed = 1;
nodes = (
"251 723 LINE",
"154 663 LINE",
"57 723 LINE",
"48 714 LINE",
"144 619 LINE",
"162 619 LINE",
"260 714 LINE"
);
}
);
width = 308;
}
);
note = caron;
unicode = 02C7;
},
{
glyphname = hungarumlaut;
layers = (
{
hints = (
{
horizontal = 1;
place = "{614, 136}";
type = Stem;
},
{
place = "{15, 257}";
type = Stem;
}
);
layerId = "D8F0BABD-30A0-4B34-9C55-2C8E337B4047";
paths = (
{
closed = 1;
nodes = (
"103 750 LINE",
"15 629 LINE",
"25 614 LINE",
"162 704 LINE"
);
},
{
closed = 1;
nodes = (
"213 750 LINE",
"125 629 LINE",
"135 614 LINE",
"272 704 LINE"
);
}
);
width = 287;
}
);
note = hungarumlaut;
unicode = 02DD;
},
{
glyphname = ring;
layers = (
{
hints = (
{
horizontal = 1;
place = "{548, 31}";
type = Stem;
},
{
horizontal = 1;
place = "{693, 31}";
type = Stem;
},
{
place = "{15, 31}";
type = Stem;
},
{
place = "{160, 31}";
type = Stem;
}
);
layerId = "D8F0BABD-30A0-4B34-9C55-2C8E337B4047";
paths = (
{
closed = 1;
nodes = (
"55 724 OFFCURVE",
"15 685 OFFCURVE",
"15 636 CURVE SMOOTH",
"15 587 OFFCURVE",
"55 548 OFFCURVE",
"103 548 CURVE SMOOTH",
"152 548 OFFCURVE",
"191 587 OFFCURVE",
"191 636 CURVE SMOOTH",
"191 685 OFFCURVE",
"152 724 OFFCURVE",
"103 724 CURVE SMOOTH"
);
},
{
closed = 1;
nodes = (
"72 579 OFFCURVE",
"46 605 OFFCURVE",
"46 636 CURVE SMOOTH",
"46 667 OFFCURVE",
"72 693 OFFCURVE",
"103 693 CURVE SMOOTH",
"135 693 OFFCURVE",
"160 667 OFFCURVE",
"160 636 CURVE SMOOTH",
"160 605 OFFCURVE",
"135 579 OFFCURVE",
"103 579 CURVE SMOOTH"
);
}
);
width = 206;
}
);
note = ring;
unicode = 02DA;
},
{
glyphname = dotaccent;
layers = (
{
hints = (
{
horizontal = 1;
place = "{617, 78}";
type = Stem;
},
{
place = "{15, 61}";
type = Stem;
}
);
layerId = "D8F0BABD-30A0-4B34-9C55-2C8E337B4047";
paths = (
{
closed = 1;
nodes = (
"63 617 OFFCURVE",
"76 635 OFFCURVE",
"76 656 CURVE SMOOTH",
"76 678 OFFCURVE",
"63 695 OFFCURVE",
"46 695 CURVE SMOOTH",
"29 695 OFFCURVE",
"15 678 OFFCURVE",
"15 656 CURVE SMOOTH",
"15 635 OFFCURVE",
"29 617 OFFCURVE",
"46 617 CURVE SMOOTH"
);
}
);
width = 91;
}
);
note = dotaccent;
unicode = 02D9;
},
{
glyphname = breve;
layers = (
{
hints = (
{
horizontal = 1;
place = "{623, 33}";
type = Stem;
},
{
place = "{15, 17}";
type = Stem;
},
{
place = "{228, 16}";
type = Stem;
}
);
layerId = "D8F0BABD-30A0-4B34-9C55-2C8E337B4047";
paths = (
{
closed = 1;
nodes = (
"228 745 LINE",
"228 745 OFFCURVE",
"210 656 OFFCURVE",
"130 656 CURVE SMOOTH",
"49 656 OFFCURVE",
"32 745 OFFCURVE",
"32 745 CURVE",
"15 745 LINE",
"15 678 OFFCURVE",
"66 623 OFFCURVE",
"130 623 CURVE SMOOTH",
"193 623 OFFCURVE",
"244 678 OFFCURVE",
"244 745 CURVE"
);
}
);
width = 259;
}
);
note = breve;
unicode = 02D8;
},
{
glyphname = quotedbl;
layers = (
{
hints = (
{
horizontal = 1;
place = "{489, 132}";
type = Stem;
},
{
place = "{15, 39}";
type = Stem;
},
{
place = "{90, 39}";
type = Stem;
}
);
layerId = "D8F0BABD-30A0-4B34-9C55-2C8E337B4047";
paths = (
{
closed = 1;
nodes = (
"15 489 LINE",
"54 489 LINE",
"72 621 LINE",
"15 621 LINE"
);
},
{
closed = 1;
nodes = (
"90 489 LINE",
"129 489 LINE",
"147 621 LINE",
"90 621 LINE"
);
}
);
width = 162;
}
);
note = quotedbl;
unicode = 0022;
},
{
glyphname = thorn;
layers = (
{
hints = (
{
horizontal = 1;
place = "{-160, 21}";
type = Stem;
},
{
horizontal = 1;
place = "{-4, 30}";
type = Stem;
},
{
horizontal = 1;
place = "{417, 23}";
type = Stem;
},
{
horizontal = 1;
place = "{589, 21}";
type = Stem;
},
{
place = "{62, 59}";
type = Stem;
},
{
place = "{235, 56}";
type = Stem;
}
);
layerId = "D8F0BABD-30A0-4B34-9C55-2C8E337B4047";
paths = (
{
closed = 1;
nodes = (
"124 -160 OFFCURVE",
"174 -168 OFFCURVE",
"174 -168 CURVE",
"174 -139 LINE",
"174 -139 OFFCURVE",
"123 -135 OFFCURVE",
"121 -123 CURVE",
"121 -4 LINE",
"261 0 OFFCURVE",
"291 111 OFFCURVE",
"291 206 CURVE SMOOTH",
"291 355 OFFCURVE",
"263 437 OFFCURVE",
"121 440 CURVE",
"121 573 LINE",
"124 586 OFFCURVE",
"167 589 OFFCURVE",
"167 589 CURVE",
"167 618 LINE",
"167 618 OFFCURVE",
"124 610 OFFCURVE",
"96 610 CURVE SMOOTH",
"67 610 OFFCURVE",
"15 617 OFFCURVE",
"15 617 CURVE",
"15 589 LINE",
"15 589 OFFCURVE",
"59 586 OFFCURVE",
"62 574 CURVE",
"62 -123 LINE",
"59 -135 OFFCURVE",
"9 -139 OFFCURVE",
"9 -139 CURVE",
"9 -168 LINE",
"9 -168 OFFCURVE",
"59 -160 OFFCURVE",
"91 -160 CURVE SMOOTH"
);
},
{
closed = 1;
nodes = (
"121 417 LINE",
"224 415 OFFCURVE",
"235 353 OFFCURVE",
"235 206 CURVE SMOOTH",
"235 90 OFFCURVE",
"196 29 OFFCURVE",
"121 26 CURVE"
);
}
);
width = 313;
}
);
note = thorn;
unicode = 00FE;
},
{
glyphname = Thorn;
layers = (
{
hints = (
{
horizontal = 1;
place = "{1, 29}";
type = Stem;
},
{
horizontal = 1;
place = "{113, 30}";
type = Stem;
},
{
horizontal = 1;
place = "{484, 22}";
type = Stem;
},
{
horizontal = 1;
place = "{589, 21}";
type = Stem;
},
{
place = "{62, 59}";
type = Stem;
},
{
place = "{235, 56}";
type = Stem;
}
);
layerId = "D8F0BABD-30A0-4B34-9C55-2C8E337B4047";
paths = (
{
closed = 1;
nodes = (
"124 9 OFFCURVE",
"174 1 OFFCURVE",
"174 1 CURVE",
"174 30 LINE",
"174 30 OFFCURVE",
"123 34 OFFCURVE",
"121 46 CURVE",
"121 113 LINE",
"210 114 OFFCURVE",
"291 139 OFFCURVE",
"291 296 CURVE SMOOTH",
"291 442 OFFCURVE",
"267 505 OFFCURVE",
"121 506 CURVE",
"121 573 LINE",
"124 586 OFFCURVE",
"168 589 OFFCURVE",
"168 589 CURVE",
"168 618 LINE",
"168 618 OFFCURVE",
"125 610 OFFCURVE",
"96 610 CURVE SMOOTH",
"67 610 OFFCURVE",
"15 617 OFFCURVE",
"15 617 CURVE",
"15 589 LINE",
"15 589 OFFCURVE",
"59 586 OFFCURVE",
"62 574 CURVE",
"62 45 LINE",
"59 34 OFFCURVE",
"9 30 OFFCURVE",
"9 30 CURVE",
"9 1 LINE",
"9 1 OFFCURVE",
"59 9 OFFCURVE",
"92 9 CURVE SMOOTH"
);
},
{
closed = 1;
nodes = (
"121 484 LINE",
"223 482 OFFCURVE",
"235 443 OFFCURVE",
"235 296 CURVE SMOOTH",
"235 204 OFFCURVE",
"215 146 OFFCURVE",
"121 143 CURVE"
);
}
);
width = 317;
}
);
note = Thorn;
unicode = 00DE;
},
{
glyphname = odieresis;
layers = (
{
hints = (
{
horizontal = 1;
place = "{-21, 34}";
type = Stem;
},
{
horizontal = 1;
place = "{404, 35}";
type = Stem;
},
{
place = "{15, 57}";
type = Stem;
},
{
place = "{177, 56}";
type = Stem;
},
{
horizontal = 1;
place = "{482, 88}";
type = Stem;
},
{
place = "{39, 69}";
type = Stem;
},
{
place = "{133, 69}";
type = Stem;
}
);
layerId = "D8F0BABD-30A0-4B34-9C55-2C8E337B4047";
paths = (
{
closed = 1;
nodes = (
"193 -21 OFFCURVE",
"233 61 OFFCURVE",
"233 205 CURVE SMOOTH",
"233 356 OFFCURVE",
"194 439 OFFCURVE",
"124 439 CURVE SMOOTH",
"54 439 OFFCURVE",
"15 356 OFFCURVE",
"15 205 CURVE SMOOTH",
"15 59 OFFCURVE",
"54 -21 OFFCURVE",
"124 -21 CURVE SMOOTH"
);
},
{
closed = 1;
nodes = (
"148 404 OFFCURVE",
"177 352 OFFCURVE",
"177 205 CURVE SMOOTH",
"177 70 OFFCURVE",
"138 13 OFFCURVE",
"124 13 CURVE SMOOTH",
"101 13 OFFCURVE",
"72 63 OFFCURVE",
"72 205 CURVE SMOOTH",
"72 345 OFFCURVE",
"89 404 OFFCURVE",
"124 404 CURVE SMOOTH"
);
},
{
closed = 1;
nodes = (
"93 482 OFFCURVE",
"108 502 OFFCURVE",
"108 526 CURVE SMOOTH",
"108 550 OFFCURVE",
"93 570 OFFCURVE",
"74 570 CURVE SMOOTH",
"55 570 OFFCURVE",
"39 550 OFFCURVE",
"39 526 CURVE SMOOTH",
"39 502 OFFCURVE",
"55 482 OFFCURVE",
"74 482 CURVE SMOOTH"
);
},
{
closed = 1;
nodes = (
"187 482 OFFCURVE",
"202 502 OFFCURVE",
"202 526 CURVE SMOOTH",
"202 550 OFFCURVE",
"187 570 OFFCURVE",
"168 570 CURVE SMOOTH",
"149 570 OFFCURVE",
"133 550 OFFCURVE",
"133 526 CURVE SMOOTH",
"133 502 OFFCURVE",
"149 482 OFFCURVE",
"168 482 CURVE SMOOTH"
);
}
);
width = 242;
}
);
leftKerningGroup = o;
note = odieresis;
rightKerningGroup = o;
unicode = 00F6;
},
{
glyphname = a_a;
layers = (
{
hints = (
{
horizontal = 1;
place = "{0, 30}";
type = Stem;
},
{
horizontal = 1;
place = "{282, 30}";
type = Stem;
},
{
horizontal = 1;
place = "{424, 36}";
type = Stem;
},
{
place = "{5, 50}";
type = Stem;
},
{
place = "{163, 62}";
type = Stem;
},
{
place = "{286, 22}";
type = Stem;
},
{
place = "{403, 62}";
type = Stem;
},
{
horizontal = 1;
place = "{424, 31}";
type = Stem;
},
{
place = "{46, 22}";
type = Stem;
},
{
horizontal = 1;
place = "{42, 30}";
type = Stem;
},
{
horizontal = 1;
place = "{-33, 21}";
type = Stem;
},
{
horizontal = 1;
place = "{240, 30}";
type = Stem;
},
{
horizontal = 1;
place = "{382, 31}";
type = Stem;
},
{
place = "{245, 50}";
type = Stem;
}
);
layerId = "D8F0BABD-30A0-4B34-9C55-2C8E337B4047";
paths = (
{
closed = 1;
nodes = (
"167 3 LINE",
"167 3 OFFCURVE",
"189 9 OFFCURVE",
"206 9 CURVE SMOOTH",
"223 9 OFFCURVE",
"245 2 OFFCURVE",
"245 2 CURVE",
"245 30 LINE",
"245 30 OFFCURVE",
"228 30 OFFCURVE",
"225 45 CURVE",
"225 270 LINE SMOOTH",
"225 385 OFFCURVE",
"221 455 OFFCURVE",
"131 455 CURVE SMOOTH",
"105 455 OFFCURVE",
"83 444 OFFCURVE",
"68 423 CURVE",
"68 460 LINE",
"39 460 LINE",
"39 460 OFFCURVE",
"46 425 OFFCURVE",
"46 404 CURVE SMOOTH",
"46 383 OFFCURVE",
"39 347 OFFCURVE",
"39 347 CURVE",
"78 347 LINE",
"78 347 OFFCURVE",
"75 424 OFFCURVE",
"131 424 CURVE SMOOTH",
"182 424 OFFCURVE",
"167 300 OFFCURVE",
"167 300 CURVE",
"152 308 OFFCURVE",
"135 312 OFFCURVE",
"114 312 CURVE SMOOTH",
"42 312 OFFCURVE",
"5 262 OFFCURVE",
"5 163 CURVE SMOOTH",
"5 104 OFFCURVE",
"33 42 OFFCURVE",
"112 42 CURVE SMOOTH",
"132 42 OFFCURVE",
"151 46 OFFCURVE",
"167 54 CURVE"
);
},
{
closed = 1;
nodes = (
"139 282 OFFCURVE",
"163 267 OFFCURVE",
"163 163 CURVE SMOOTH",
"163 102 OFFCURVE",
"146 72 OFFCURVE",
"112 72 CURVE SMOOTH",
"83 72 OFFCURVE",
"55 104 OFFCURVE",
"55 163 CURVE SMOOTH",
"55 264 OFFCURVE",
"90 282 OFFCURVE",
"114 282 CURVE SMOOTH"
);
},
{
closed = 1;
nodes = (
"407 -39 LINE",
"407 -39 OFFCURVE",
"429 -33 OFFCURVE",
"446 -33 CURVE SMOOTH",
"463 -33 OFFCURVE",
"485 -40 OFFCURVE",
"485 -40 CURVE",
"485 -12 LINE",
"485 -12 OFFCURVE",
"468 -12 OFFCURVE",
"465 3 CURVE",
"465 228 LINE SMOOTH",
"465 343 OFFCURVE",
"461 413 OFFCURVE",
"371 413 CURVE SMOOTH",
"345 413 OFFCURVE",
"323 402 OFFCURVE",
"308 381 CURVE",
"308 418 LINE",
"279 418 LINE",
"279 418 OFFCURVE",
"286 383 OFFCURVE",
"286 362 CURVE SMOOTH",
"286 341 OFFCURVE",
"279 305 OFFCURVE",
"279 305 CURVE",
"318 305 LINE",
"318 305 OFFCURVE",
"315 382 OFFCURVE",
"371 382 CURVE SMOOTH",
"422 382 OFFCURVE",
"407 258 OFFCURVE",
"407 258 CURVE",
"392 266 OFFCURVE",
"375 270 OFFCURVE",
"354 270 CURVE SMOOTH",
"282 270 OFFCURVE",
"245 220 OFFCURVE",
"245 121 CURVE SMOOTH",
"245 62 OFFCURVE",
"273 0 OFFCURVE",
"352 0 CURVE SMOOTH",
"372 0 OFFCURVE",
"391 4 OFFCURVE",
"407 12 CURVE"
);
},
{
closed = 1;
nodes = (
"379 240 OFFCURVE",
"403 225 OFFCURVE",
"403 121 CURVE SMOOTH",
"403 60 OFFCURVE",
"386 30 OFFCURVE",
"352 30 CURVE SMOOTH",
"323 30 OFFCURVE",
"295 62 OFFCURVE",
"295 121 CURVE SMOOTH",
"295 222 OFFCURVE",
"330 240 OFFCURVE",
"354 240 CURVE SMOOTH"
);
}
);
width = 480;
}
);
leftKerningGroup = a;
note = a_a;
rightKerningGroup = a;
unicode = E000;
},
{
glyphname = b_b;
layers = (
{
hints = (
{
horizontal = 1;
place = "{-6, 21}";
target = up;
type = BottomGhost;
},
{
horizontal = 1;
place = "{40, 35}";
type = Stem;
},
{
horizontal = 1;
place = "{425, 34}";
type = Stem;
},
{
horizontal = 1;
place = "{628, 20}";
type = Stem;
},
{
place = "{42, 59}";
type = Stem;
},
{
place = "{204, 59}";
type = Stem;
},
{
place = "{305, 59}";
type = Stem;
},
{
place = "{467, 59}";
type = Stem;
},
{
horizontal = 1;
place = "{-4, 35}";
type = Stem;
},
{
horizontal = 1;
place = "{381, 34}";
type = Stem;
},
{
horizontal = 1;
place = "{584, 20}";
type = Stem;
}
);
layerId = "D8F0BABD-30A0-4B34-9C55-2C8E337B4047";
paths = (
{
closed = 1;
nodes = (
"79 48 OFFCURVE",
"101 36 OFFCURVE",
"101 36 CURVE",
"101 57 LINE",
"116 45 OFFCURVE",
"133 40 OFFCURVE",
"154 40 CURVE SMOOTH",
"227 40 OFFCURVE",
"263 109 OFFCURVE",
"263 253 CURVE SMOOTH",
"263 390 OFFCURVE",
"226 459 OFFCURVE",
"154 459 CURVE SMOOTH",
"133 459 OFFCURVE",
"116 454 OFFCURVE",
"101 443 CURVE",
"101 612 LINE",
"104 627 OFFCURVE",
"128 628 OFFCURVE",
"128 628 CURVE",
"128 658 LINE",
"128 658 OFFCURVE",
"97 648 OFFCURVE",
"72 648 CURVE SMOOTH",
"47 648 OFFCURVE",
"15 658 OFFCURVE",
"15 658 CURVE",
"15 628 LINE",
"15 628 OFFCURVE",
"39 627 OFFCURVE",
"42 612 CURVE",
"42 84 LINE",
"39 69 OFFCURVE",
"15 68 OFFCURVE",
"15 68 CURVE",
"15 38 LINE",
"15 38 OFFCURVE",
"43 48 OFFCURVE",
"61 48 CURVE SMOOTH"
);
},
{
closed = 1;
nodes = (
"169 425 OFFCURVE",
"204 382 OFFCURVE",
"204 253 CURVE SMOOTH",
"204 136 OFFCURVE",
"187 75 OFFCURVE",
"154 75 CURVE SMOOTH",
"117 75 OFFCURVE",
"104 121 OFFCURVE",
"104 253 CURVE SMOOTH",
"104 364 OFFCURVE",
"122 425 OFFCURVE",
"154 425 CURVE SMOOTH"
);
},
{
closed = 1;
nodes = (
"342 4 OFFCURVE",
"364 -8 OFFCURVE",
"364 -8 CURVE",
"364 13 LINE",
"379 1 OFFCURVE",
"396 -4 OFFCURVE",
"417 -4 CURVE SMOOTH",
"490 -4 OFFCURVE",
"526 65 OFFCURVE",
"526 209 CURVE SMOOTH",
"526 346 OFFCURVE",
"489 415 OFFCURVE",
"417 415 CURVE SMOOTH",
"396 415 OFFCURVE",
"379 410 OFFCURVE",
"364 399 CURVE",
"364 568 LINE",
"367 583 OFFCURVE",
"391 584 OFFCURVE",
"391 584 CURVE",
"391 614 LINE",
"391 614 OFFCURVE",
"360 604 OFFCURVE",
"335 604 CURVE SMOOTH",
"310 604 OFFCURVE",
"278 614 OFFCURVE",
"278 614 CURVE",
"278 584 LINE",
"278 584 OFFCURVE",
"302 583 OFFCURVE",
"305 568 CURVE",
"305 40 LINE",
"302 25 OFFCURVE",
"278 24 OFFCURVE",
"278 24 CURVE",
"278 -6 LINE",
"278 -6 OFFCURVE",
"306 4 OFFCURVE",
"324 4 CURVE SMOOTH"
);
},
{
closed = 1;
nodes = (
"432 381 OFFCURVE",
"467 338 OFFCURVE",
"467 209 CURVE SMOOTH",
"467 92 OFFCURVE",
"450 31 OFFCURVE",
"417 31 CURVE SMOOTH",
"380 31 OFFCURVE",
"367 77 OFFCURVE",
"367 209 CURVE SMOOTH",
"367 320 OFFCURVE",
"385 381 OFFCURVE",
"417 381 CURVE SMOOTH"
);
}
);
width = 547;
}
);
leftKerningGroup = b;
note = b_b;
rightKerningGroup = b;
unicode = E001;
},
{
glyphname = c_c;
layers = (
{
hints = (
{
horizontal = 1;
place = "{0, 35}";
type = Stem;
},
{
horizontal = 1;
place = "{426, 35}";
type = Stem;
},
{
place = "{15, 60}";
type = Stem;
},
{
place = "{238, 60}";
type = Stem;
},
{
place = "{415, 23}";
type = Stem;
},
{
place = "{192, 23}";
type = Stem;
},
{
horizontal = 1;
place = "{-24, 35}";
type = Stem;
},
{
horizontal = 1;
place = "{402, 35}";
type = Stem;
}
);
layerId = "D8F0BABD-30A0-4B34-9C55-2C8E337B4047";
paths = (
{
closed = 1;
nodes = (
"216 0 OFFCURVE",
"227 119 OFFCURVE",
"227 119 CURVE",
"195 119 LINE",
"195 119 OFFCURVE",
"181 35 OFFCURVE",
"124 35 CURVE SMOOTH",
"92 35 OFFCURVE",
"75 96 OFFCURVE",
"75 208 CURVE SMOOTH",
"75 358 OFFCURVE",
"101 426 OFFCURVE",
"124 426 CURVE SMOOTH",
"181 426 OFFCURVE",
"173 302 OFFCURVE",
"173 302 CURVE",
"221 302 LINE",
"221 302 OFFCURVE",
"215 350 OFFCURVE",
"215 381 CURVE SMOOTH",
"215 412 OFFCURVE",
"221 460 OFFCURVE",
"221 460 CURVE",
"192 460 LINE",
"192 418 LINE",
"181 443 OFFCURVE",
"161 461 OFFCURVE",
"124 461 CURVE SMOOTH",
"55 461 OFFCURVE",
"15 369 OFFCURVE",
"15 208 CURVE SMOOTH",
"15 70 OFFCURVE",
"52 0 OFFCURVE",
"124 0 CURVE SMOOTH"
);
},
{
closed = 1;
nodes = (
"439 -24 OFFCURVE",
"450 95 OFFCURVE",
"450 95 CURVE",
"418 95 LINE",
"418 95 OFFCURVE",
"404 11 OFFCURVE",
"347 11 CURVE SMOOTH",
"315 11 OFFCURVE",
"298 72 OFFCURVE",
"298 184 CURVE SMOOTH",
"298 334 OFFCURVE",
"324 402 OFFCURVE",
"347 402 CURVE SMOOTH",
"404 402 OFFCURVE",
"396 278 OFFCURVE",
"396 278 CURVE",
"444 278 LINE",
"444 278 OFFCURVE",
"438 326 OFFCURVE",
"438 357 CURVE SMOOTH",
"438 388 OFFCURVE",
"444 436 OFFCURVE",
"444 436 CURVE",
"415 436 LINE",
"415 394 LINE",
"404 419 OFFCURVE",
"384 437 OFFCURVE",
"347 437 CURVE SMOOTH",
"278 437 OFFCURVE",
"238 345 OFFCURVE",
"238 184 CURVE SMOOTH",
"238 46 OFFCURVE",
"275 -24 OFFCURVE",
"347 -24 CURVE SMOOTH"
);
}
);
width = 462;
}
);
leftKerningGroup = c;
note = c_c;
rightKerningGroup = c;
unicode = E002;
},
{
glyphname = d_d;
layers = (
{
hints = (
{
horizontal = 1;
place = "{-28, 21}";
type = Stem;
},
{
horizontal = 1;
place = "{37, 35}";
type = Stem;
},
{
horizontal = 1;
place = "{420, 34}";
type = Stem;
},
{
horizontal = 1;
place = "{623, 20}";
type = Stem;
},
{
place = "{15, 59}";
type = Stem;
},
{
place = "{177, 59}";
type = Stem;
},
{
place = "{425, 59}";
type = Stem;
},
{
horizontal = 1;
place = "{0, 35}";
type = Stem;
},
{
horizontal = 1;
place = "{9, 21}";
type = Stem;
},
{
horizontal = 1;
place = "{383, 34}";
type = Stem;
},
{
horizontal = 1;
place = "{586, 20}";
type = Stem;
},
{
place = "{263, 59}";
type = Stem;
}
);
layerId = "D8F0BABD-30A0-4B34-9C55-2C8E337B4047";
paths = (
{
closed = 1;
nodes = (
"177 -2 LINE",
"177 -2 OFFCURVE",
"199 9 OFFCURVE",
"217 9 CURVE SMOOTH",
"235 9 OFFCURVE",
"263 -1 OFFCURVE",
"263 -1 CURVE",
"263 30 LINE",
"263 30 OFFCURVE",
"239 30 OFFCURVE",
"236 45 CURVE",
"236 607 LINE",
"239 622 OFFCURVE",
"263 623 OFFCURVE",
"263 623 CURVE",
"263 653 LINE",
"263 653 OFFCURVE",
"231 643 OFFCURVE",
"206 643 CURVE SMOOTH",
"181 643 OFFCURVE",
"150 653 OFFCURVE",
"150 653 CURVE",
"150 623 LINE",
"150 623 OFFCURVE",
"174 622 OFFCURVE",
"177 607 CURVE",
"177 438 LINE",
"162 449 OFFCURVE",
"144 454 OFFCURVE",
"124 454 CURVE SMOOTH",
"52 454 OFFCURVE",
"15 385 OFFCURVE",
"15 248 CURVE SMOOTH",
"15 104 OFFCURVE",
"49 37 OFFCURVE",
"122 37 CURVE SMOOTH",
"143 37 OFFCURVE",
"162 43 OFFCURVE",
"177 55 CURVE"
);
},
{
closed = 1;
nodes = (
"156 420 OFFCURVE",
"173 359 OFFCURVE",
"173 248 CURVE SMOOTH",
"173 120 OFFCURVE",
"159 72 OFFCURVE",
"122 72 CURVE SMOOTH",
"90 72 OFFCURVE",
"74 130 OFFCURVE",
"74 248 CURVE SMOOTH",
"74 377 OFFCURVE",
"109 420 OFFCURVE",
"124 420 CURVE SMOOTH"
);
},
{
closed = 1;
nodes = (
"425 -39 LINE",
"425 -39 OFFCURVE",
"447 -28 OFFCURVE",
"465 -28 CURVE SMOOTH",
"483 -28 OFFCURVE",
"511 -38 OFFCURVE",
"511 -38 CURVE",
"511 -7 LINE",
"511 -7 OFFCURVE",
"487 -7 OFFCURVE",
"484 8 CURVE",
"484 570 LINE",
"487 585 OFFCURVE",
"511 586 OFFCURVE",
"511 586 CURVE",
"511 616 LINE",
"511 616 OFFCURVE",
"479 606 OFFCURVE",
"454 606 CURVE SMOOTH",
"429 606 OFFCURVE",
"398 616 OFFCURVE",
"398 616 CURVE",
"398 586 LINE",
"398 586 OFFCURVE",
"422 585 OFFCURVE",
"425 570 CURVE",
"425 401 LINE",
"410 412 OFFCURVE",
"392 417 OFFCURVE",
"372 417 CURVE SMOOTH",
"300 417 OFFCURVE",
"263 348 OFFCURVE",
"263 211 CURVE SMOOTH",
"263 67 OFFCURVE",
"297 0 OFFCURVE",
"370 0 CURVE SMOOTH",
"391 0 OFFCURVE",
"410 6 OFFCURVE",
"425 18 CURVE"
);
},
{
closed = 1;
nodes = (
"404 383 OFFCURVE",
"421 322 OFFCURVE",
"421 211 CURVE SMOOTH",
"421 83 OFFCURVE",
"407 35 OFFCURVE",
"370 35 CURVE SMOOTH",
"338 35 OFFCURVE",
"322 93 OFFCURVE",
"322 211 CURVE SMOOTH",
"322 340 OFFCURVE",
"357 383 OFFCURVE",
"372 383 CURVE SMOOTH"
);
}
);
width = 514;
}
);
leftKerningGroup = d;
note = d_d;
rightKerningGroup = d;
unicode = E003;
},
{
glyphname = e_e;
layers = (
{
hints = (
{
horizontal = 1;
place = "{-2, 35}";
type = Stem;
},
{
horizontal = 1;
place = "{178, 35}";
type = Stem;
},
{
horizontal = 1;
place = "{423, 36}";
type = Stem;
},
{
place = "{3, 60}";
type = Stem;
},
{
place = "{239, 60}";
type = Stem;
},
{
place = "{398, 59}";
type = Stem;
},
{
place = "{162, 59}";
type = Stem;
},
{
horizontal = 1;
place = "{-24, 35}";
type = Stem;
},
{
horizontal = 1;
place = "{156, 35}";
type = Stem;
},
{
horizontal = 1;
place = "{401, 36}";
type = Stem;
}
);
layerId = "D8F0BABD-30A0-4B34-9C55-2C8E337B4047";
paths = (
{
closed = 1;
nodes = (
"201 -2 OFFCURVE",
"214 119 OFFCURVE",
"214 119 CURVE",
"183 119 LINE",
"183 119 OFFCURVE",
"174 33 OFFCURVE",
"112 33 CURVE SMOOTH",
"93 33 OFFCURVE",
"70 58 OFFCURVE",
"64 178 CURVE",
"218 178 LINE",
"218 178 OFFCURVE",
"221 221 OFFCURVE",
"221 240 CURVE SMOOTH",
"221 387 OFFCURVE",
"185 459 OFFCURVE",
"112 459 CURVE SMOOTH",
"39 459 OFFCURVE",
"3 387 OFFCURVE",
"3 240 CURVE SMOOTH",
"3 89 OFFCURVE",
"44 -2 OFFCURVE",
"112 -2 CURVE SMOOTH"
);
},
{
closed = 1;
nodes = (
"63 213 LINE",
"63 347 OFFCURVE",
"79 423 OFFCURVE",
"112 423 CURVE SMOOTH",
"145 423 OFFCURVE",
"162 367 OFFCURVE",
"162 213 CURVE"
);
},
{
closed = 1;
nodes = (
"437 -24 OFFCURVE",
"450 97 OFFCURVE",
"450 97 CURVE",
"419 97 LINE",
"419 97 OFFCURVE",
"410 11 OFFCURVE",
"348 11 CURVE SMOOTH",
"329 11 OFFCURVE",
"306 36 OFFCURVE",
"300 156 CURVE",
"454 156 LINE",
"454 156 OFFCURVE",
"457 199 OFFCURVE",
"457 218 CURVE SMOOTH",
"457 365 OFFCURVE",
"421 437 OFFCURVE",
"348 437 CURVE SMOOTH",
"275 437 OFFCURVE",
"239 365 OFFCURVE",
"239 218 CURVE SMOOTH",
"239 67 OFFCURVE",
"280 -24 OFFCURVE",
"348 -24 CURVE SMOOTH"
);
},
{
closed = 1;
nodes = (
"299 191 LINE",
"299 325 OFFCURVE",
"315 401 OFFCURVE",
"348 401 CURVE SMOOTH",
"381 401 OFFCURVE",
"398 345 OFFCURVE",
"398 191 CURVE"
);
}
);
width = 472;
}
);
leftKerningGroup = e;
note = e_e;
rightKerningGroup = e;
unicode = E004;
},
{
glyphname = f_f;
layers = (
{
hints = (
{
horizontal = 1;
place = "{0, 21}";
target = up;
type = BottomGhost;
},
{
horizontal = 1;
place = "{51, 20}";
type = Stem;
},
{
horizontal = 1;
place = "{428, 35}";
type = Stem;
},
{
horizontal = 1;
place = "{627, 31}";
type = Stem;
},
{
place = "{42, 59}";
type = Stem;
},
{
place = "{162, 23}";
type = Stem;
},
{
place = "{217, 59}";
type = Stem;
},
{
place = "{337, 23}";
type = Stem;
},
{
horizontal = 1;
place = "{9, 20}";
type = Stem;
},
{
horizontal = 1;
place = "{386, 35}";
type = Stem;
},
{
horizontal = 1;
place = "{585, 31}";
type = Stem;
}
);
layerId = "D8F0BABD-30A0-4B34-9C55-2C8E337B4047";
paths = (
{
closed = 1;
nodes = (
"15 41 LINE",
"15 41 OFFCURVE",
"42 51 OFFCURVE",
"67 51 CURVE SMOOTH",
"93 51 OFFCURVE",
"128 42 OFFCURVE",
"128 42 CURVE",
"128 71 LINE",
"128 71 OFFCURVE",
"104 72 OFFCURVE",
"101 87 CURVE",
"101 428 LINE",
"139 428 LINE",
"139 463 LINE",
"101 463 LINE",
"101 484 LINE SMOOTH",
"99 579 OFFCURVE",
"111 627 OFFCURVE",
"132 627 CURVE SMOOTH",
"167 627 OFFCURVE",
"162 550 OFFCURVE",
"162 550 CURVE",
"191 550 LINE",
"191 550 OFFCURVE",
"185 598 OFFCURVE",
"185 629 CURVE SMOOTH",
"185 659 OFFCURVE",
"191 707 OFFCURVE",
"191 707 CURVE",
"162 707 LINE",
"162 649 LINE",
"154 655 OFFCURVE",
"143 658 OFFCURVE",
"131 658 CURVE SMOOTH",
"61 658 OFFCURVE",
"45 605 OFFCURVE",
"43 506 CURVE SMOOTH",
"42 463 LINE",
"19 463 LINE",
"19 428 LINE",
"42 428 LINE",
"42 87 LINE",
"39 72 OFFCURVE",
"15 71 OFFCURVE",
"15 71 CURVE"
);
},
{
closed = 1;
nodes = (
"190 -1 LINE",
"190 -1 OFFCURVE",
"217 9 OFFCURVE",
"242 9 CURVE SMOOTH",
"268 9 OFFCURVE",
"303 0 OFFCURVE",
"303 0 CURVE",
"303 29 LINE",
"303 29 OFFCURVE",
"279 30 OFFCURVE",
"276 45 CURVE",
"276 386 LINE",
"314 386 LINE",
"314 421 LINE",
"276 421 LINE",
"276 442 LINE SMOOTH",
"274 537 OFFCURVE",
"286 585 OFFCURVE",
"307 585 CURVE SMOOTH",
"342 585 OFFCURVE",
"337 508 OFFCURVE",
"337 508 CURVE",
"366 508 LINE",
"366 508 OFFCURVE",
"360 556 OFFCURVE",
"360 587 CURVE SMOOTH",
"360 617 OFFCURVE",
"366 665 OFFCURVE",
"366 665 CURVE",
"337 665 LINE",
"337 607 LINE",
"329 613 OFFCURVE",
"318 616 OFFCURVE",
"306 616 CURVE SMOOTH",
"236 616 OFFCURVE",
"220 563 OFFCURVE",
"218 464 CURVE SMOOTH",
"217 421 LINE",
"194 421 LINE",
"194 386 LINE",
"217 386 LINE",
"217 45 LINE",
"214 30 OFFCURVE",
"190 29 OFFCURVE",
"190 29 CURVE"
);
}
);
width = 368;
}
);
leftKerningGroup = f;
note = f_f;
rightKerningGroup = f;
unicode = FB00;
},
{
glyphname = g_g;
layers = (
{
hints = (
{
horizontal = 1;
place = "{-135, 28}";
type = Stem;
},
{
horizontal = 1;
place = "{64, 30}";
type = Stem;
},
{
horizontal = 1;
place = "{159, 28}";
type = Stem;
},
{
horizontal = 1;
place = "{427, 28}";
type = Stem;
},
{
place = "{55, 55}";
type = Stem;
},
{
place = "{221, 23}";
type = Stem;
},
{
place = "{347, 55}";
type = Stem;
},
{
place = "{513, 23}";
type = Stem;
},
{
horizontal = 1;
place = "{101, 30}";
type = Stem;
},
{
place = "{11, 55}";
type = Stem;
},
{
place = "{239, 50}";
type = Stem;
},
{
place = "{44, 25}";
type = Stem;
},
{
place = "{198, 54}";
type = Stem;
},
{
horizontal = 1;
place = "{-172, 28}";
type = Stem;
},
{
place = "{303, 55}";
type = Stem;
},
{
place = "{531, 50}";
type = Stem;
},
{
place = "{336, 25}";
type = Stem;
},
{
horizontal = 1;
place = "{122, 28}";
type = Stem;
},
{
place = "{490, 54}";
type = Stem;
},
{
horizontal = 1;
place = "{390, 28}";
type = Stem;
}
);
layerId = "D8F0BABD-30A0-4B34-9C55-2C8E337B4047";
paths = (
{
closed = 1;
nodes = (
"206 -135 OFFCURVE",
"289 -100 OFFCURVE",
"289 -1 CURVE SMOOTH",
"289 96 OFFCURVE",
"217 131 OFFCURVE",
"150 131 CURVE SMOOTH",
"136 131 OFFCURVE",
"69 124 OFFCURVE",
"69 144 CURVE SMOOTH",
"69 164 OFFCURVE",
"138 159 OFFCURVE",
"153 159 CURVE SMOOTH",
"219 159 OFFCURVE",
"252 208 OFFCURVE",
"252 305 CURVE SMOOTH",
"252 319 OFFCURVE",
"251 333 OFFCURVE",
"250 345 CURVE",
"250 345 LINE",
"250 345 OFFCURVE",
"244 393 OFFCURVE",
"244 424 CURVE SMOOTH",
"244 454 OFFCURVE",
"250 488 OFFCURVE",
"250 488 CURVE",
"221 488 LINE",
"221 426 LINE",
"205 445 OFFCURVE",
"182 455 OFFCURVE",
"153 455 CURVE SMOOTH",
"87 455 OFFCURVE",
"55 406 OFFCURVE",
"55 305 CURVE SMOOTH",
"55 249 OFFCURVE",
"66 209 OFFCURVE",
"88 186 CURVE",
"52 179 OFFCURVE",
"44 158 OFFCURVE",
"44 146 CURVE SMOOTH",
"44 128 OFFCURVE",
"50 112 OFFCURVE",
"63 107 CURVE",
"36 90 OFFCURVE",
"11 58 OFFCURVE",
"11 -1 CURVE SMOOTH",
"11 -107 OFFCURVE",
"98 -135 OFFCURVE",
"150 -135 CURVE SMOOTH"
);
},
{
closed = 1;
nodes = (
"177 101 OFFCURVE",
"239 91 OFFCURVE",
"239 -1 CURVE SMOOTH",
"239 -105 OFFCURVE",
"154 -107 OFFCURVE",
"150 -107 CURVE SMOOTH",
"112 -107 OFFCURVE",
"66 -88 OFFCURVE",
"66 -1 CURVE SMOOTH",
"66 88 OFFCURVE",
"118 101 OFFCURVE",
"150 101 CURVE SMOOTH"
);
},
{
closed = 1;
nodes = (
"174 427 OFFCURVE",
"198 413 OFFCURVE",
"198 305 CURVE SMOOTH",
"198 223 OFFCURVE",
"175 187 OFFCURVE",
"154 187 CURVE",
"154 187 OFFCURVE",
"151 187 OFFCURVE",
"146 188 CURVE SMOOTH",
"130 191 OFFCURVE",
"110 207 OFFCURVE",
"110 305 CURVE SMOOTH",
"110 407 OFFCURVE",
"125 427 OFFCURVE",
"153 427 CURVE SMOOTH"
);
},
{
closed = 1;
nodes = (
"498 -172 OFFCURVE",
"581 -137 OFFCURVE",
"581 -38 CURVE SMOOTH",
"581 59 OFFCURVE",
"509 94 OFFCURVE",
"442 94 CURVE SMOOTH",
"428 94 OFFCURVE",
"361 87 OFFCURVE",
"361 107 CURVE SMOOTH",
"361 127 OFFCURVE",
"430 122 OFFCURVE",
"445 122 CURVE SMOOTH",
"511 122 OFFCURVE",
"544 171 OFFCURVE",
"544 268 CURVE SMOOTH",
"544 282 OFFCURVE",
"543 296 OFFCURVE",
"542 308 CURVE",
"542 308 LINE",
"542 308 OFFCURVE",
"536 356 OFFCURVE",
"536 387 CURVE SMOOTH",
"536 417 OFFCURVE",
"542 451 OFFCURVE",
"542 451 CURVE",
"513 451 LINE",
"513 389 LINE",
"497 408 OFFCURVE",
"474 418 OFFCURVE",
"445 418 CURVE SMOOTH",
"379 418 OFFCURVE",
"347 369 OFFCURVE",
"347 268 CURVE SMOOTH",
"347 212 OFFCURVE",
"358 172 OFFCURVE",
"380 149 CURVE",
"344 142 OFFCURVE",
"336 121 OFFCURVE",
"336 109 CURVE SMOOTH",
"336 91 OFFCURVE",
"342 75 OFFCURVE",
"355 70 CURVE",
"328 53 OFFCURVE",
"303 21 OFFCURVE",
"303 -38 CURVE SMOOTH",
"303 -144 OFFCURVE",
"390 -172 OFFCURVE",
"442 -172 CURVE SMOOTH"
);
},
{
closed = 1;
nodes = (
"469 64 OFFCURVE",
"531 54 OFFCURVE",
"531 -38 CURVE SMOOTH",
"531 -142 OFFCURVE",
"446 -144 OFFCURVE",
"442 -144 CURVE SMOOTH",
"404 -144 OFFCURVE",
"358 -125 OFFCURVE",
"358 -38 CURVE SMOOTH",
"358 51 OFFCURVE",
"410 64 OFFCURVE",
"442 64 CURVE SMOOTH"
);
},
{
closed = 1;
nodes = (
"466 390 OFFCURVE",
"490 376 OFFCURVE",
"490 268 CURVE SMOOTH",
"490 186 OFFCURVE",
"467 150 OFFCURVE",
"446 150 CURVE",
"446 150 OFFCURVE",
"443 150 OFFCURVE",
"438 151 CURVE SMOOTH",
"422 154 OFFCURVE",
"402 170 OFFCURVE",
"402 268 CURVE SMOOTH",
"402 370 OFFCURVE",
"417 390 OFFCURVE",
"445 390 CURVE SMOOTH"
);
}
);
width = 584;
}
);
leftKerningGroup = g;
note = g_g;
rightKerningGroup = g;
unicode = E005;
},
{
glyphname = h_h;
layers = (
{
hints = (
{
horizontal = 1;
place = "{0, 29}";
type = Stem;
},
{
horizontal = 1;
place = "{422, 34}";
type = Stem;
},
{
horizontal = 1;
place = "{625, 20}";
type = Stem;
},
{
place = "{42, 58}";
type = Stem;
},
{
place = "{203, 59}";
type = Stem;
},
{
place = "{317, 58}";
type = Stem;
},
{
place = "{478, 59}";
type = Stem;
},
{
horizontal = 1;
place = "{40, 20}";
type = Stem;
},
{
horizontal = 1;
place = "{-25, 20}";
type = Stem;
},
{
horizontal = 1;
place = "{387, 34}";
type = Stem;
},
{
horizontal = 1;
place = "{590, 20}";
type = Stem;
},
{
horizontal = 1;
place = "{10, 20}";
type = Stem;
}
);
layerId = "D8F0BABD-30A0-4B34-9C55-2C8E337B4047";
paths = (
{
closed = 1;
nodes = (
"176 30 LINE",
"176 30 OFFCURVE",
"203 40 OFFCURVE",
"228 40 CURVE SMOOTH",
"254 40 OFFCURVE",
"289 31 OFFCURVE",
"289 31 CURVE",
"289 60 LINE",
"289 60 OFFCURVE",
"266 61 OFFCURVE",
"262 75 CURVE",
"262 252 LINE SMOOTH",
"262 375 OFFCURVE",
"243 456 OFFCURVE",
"153 456 CURVE SMOOTH",
"133 456 OFFCURVE",
"115 451 OFFCURVE",
"100 440 CURVE",
"100 609 LINE",
"104 624 OFFCURVE",
"128 625 OFFCURVE",
"128 625 CURVE",
"128 655 LINE",
"128 655 OFFCURVE",
"96 645 OFFCURVE",
"71 645 CURVE SMOOTH",
"46 645 OFFCURVE",
"15 655 OFFCURVE",
"15 655 CURVE",
"15 625 LINE",
"15 625 OFFCURVE",
"39 624 OFFCURVE",
"42 609 CURVE",
"42 45 LINE",
"38 30 OFFCURVE",
"15 29 OFFCURVE",
"15 29 CURVE",
"15 -1 LINE",
"15 -1 OFFCURVE",
"41 9 OFFCURVE",
"67 9 CURVE SMOOTH",
"93 9 OFFCURVE",
"128 0 OFFCURVE",
"128 0 CURVE",
"128 29 LINE",
"128 29 OFFCURVE",
"104 30 OFFCURVE",
"100 45 CURVE",
"100 252 LINE SMOOTH",
"101 406 OFFCURVE",
"124 422 OFFCURVE",
"153 422 CURVE SMOOTH",
"188 422 OFFCURVE",
"203 373 OFFCURVE",
"203 252 CURVE SMOOTH",
"203 75 LINE",
"200 61 OFFCURVE",
"176 60 OFFCURVE",
"176 60 CURVE"
);
},
{
closed = 1;
nodes = (
"451 -35 LINE",
"451 -35 OFFCURVE",
"478 -25 OFFCURVE",
"503 -25 CURVE SMOOTH",
"529 -25 OFFCURVE",
"564 -34 OFFCURVE",
"564 -34 CURVE",
"564 -5 LINE",
"564 -5 OFFCURVE",
"541 -4 OFFCURVE",
"537 10 CURVE",
"537 217 LINE SMOOTH",
"537 340 OFFCURVE",
"518 421 OFFCURVE",
"428 421 CURVE SMOOTH",
"408 421 OFFCURVE",
"390 416 OFFCURVE",
"375 405 CURVE",
"375 574 LINE",
"379 589 OFFCURVE",
"403 590 OFFCURVE",
"403 590 CURVE",
"403 620 LINE",
"403 620 OFFCURVE",
"371 610 OFFCURVE",
"346 610 CURVE SMOOTH",
"321 610 OFFCURVE",
"290 620 OFFCURVE",
"290 620 CURVE",
"290 590 LINE",
"290 590 OFFCURVE",
"314 589 OFFCURVE",
"317 574 CURVE",
"317 46 LINE",
"313 31 OFFCURVE",
"290 30 OFFCURVE",
"290 30 CURVE",
"290 0 LINE",
"290 0 OFFCURVE",
"316 10 OFFCURVE",
"342 10 CURVE SMOOTH",
"368 10 OFFCURVE",
"403 1 OFFCURVE",
"403 1 CURVE",
"403 30 LINE",
"403 30 OFFCURVE",
"379 31 OFFCURVE",
"375 46 CURVE",
"375 217 LINE SMOOTH",
"376 371 OFFCURVE",
"399 387 OFFCURVE",
"428 387 CURVE SMOOTH",
"463 387 OFFCURVE",
"478 338 OFFCURVE",
"478 217 CURVE SMOOTH",
"478 10 LINE",
"475 -4 OFFCURVE",
"451 -5 OFFCURVE",
"451 -5 CURVE"
);
}
);
width = 579;
}
);
leftKerningGroup = h;
note = h_h;
rightKerningGroup = h;
unicode = E006;
},
{
glyphname = i_i;
layers = (
{
hints = (
{
horizontal = 1;
place = "{0, 21}";
target = up;
type = BottomGhost;
},
{
horizontal = 1;
place = "{47, 20}";
type = Stem;
},
{
horizontal = 1;
place = "{426, 21}";
type = Stem;
},
{
horizontal = 1;
place = "{479, 98}";
type = Stem;
},
{
place = "{42, 54}";
type = Stem;
},
{
place = "{166, 54}";
type = Stem;
},
{
horizontal = 1;
place = "{10, 20}";
type = Stem;
},
{
place = "{31, 76}";
type = Stem;
},
{
horizontal = 1;
place = "{389, 21}";
type = Stem;
},
{
horizontal = 1;
place = "{442, 98}";
type = Stem;
},
{
place = "{155, 76}";
type = Stem;
}
);
layerId = "D8F0BABD-30A0-4B34-9C55-2C8E337B4047";
paths = (
{
closed = 1;
nodes = (
"15 37 LINE",
"15 37 OFFCURVE",
"41 47 OFFCURVE",
"67 47 CURVE SMOOTH",
"92 47 OFFCURVE",
"123 37 OFFCURVE",
"123 37 CURVE",
"123 67 LINE",
"123 67 OFFCURVE",
"99 68 OFFCURVE",
"96 83 CURVE",
"97 447 LINE",
"97 447 OFFCURVE",
"97 447 OFFCURVE",
"76 447 CURVE SMOOTH",
"50 447 OFFCURVE",
"15 456 OFFCURVE",
"15 456 CURVE",
"15 426 LINE",
"15 426 OFFCURVE",
"38 426 OFFCURVE",
"42 411 CURVE",
"42 83 LINE",
"38 68 OFFCURVE",
"15 67 OFFCURVE",
"15 67 CURVE"
);
},
{
closed = 1;
nodes = (
"90 479 OFFCURVE",
"107 501 OFFCURVE",
"107 528 CURVE SMOOTH",
"107 555 OFFCURVE",
"90 577 OFFCURVE",
"69 577 CURVE SMOOTH",
"48 577 OFFCURVE",
"31 555 OFFCURVE",
"31 528 CURVE SMOOTH",
"31 501 OFFCURVE",
"48 479 OFFCURVE",
"69 479 CURVE SMOOTH"
);
},
{
closed = 1;
nodes = (
"139 0 LINE",
"139 0 OFFCURVE",
"165 10 OFFCURVE",
"191 10 CURVE SMOOTH",
"216 10 OFFCURVE",
"247 0 OFFCURVE",
"247 0 CURVE",
"247 30 LINE",
"247 30 OFFCURVE",
"223 31 OFFCURVE",
"220 46 CURVE",
"221 410 LINE",
"221 410 OFFCURVE",
"221 410 OFFCURVE",
"200 410 CURVE SMOOTH",
"174 410 OFFCURVE",
"139 419 OFFCURVE",
"139 419 CURVE",
"139 389 LINE",
"139 389 OFFCURVE",
"162 389 OFFCURVE",
"166 374 CURVE",
"166 46 LINE",
"162 31 OFFCURVE",
"139 30 OFFCURVE",
"139 30 CURVE"
);
},
{
closed = 1;
nodes = (
"214 442 OFFCURVE",
"231 464 OFFCURVE",
"231 491 CURVE SMOOTH",
"231 518 OFFCURVE",
"214 540 OFFCURVE",
"193 540 CURVE SMOOTH",
"172 540 OFFCURVE",
"155 518 OFFCURVE",
"155 491 CURVE SMOOTH",
"155 464 OFFCURVE",
"172 442 OFFCURVE",
"193 442 CURVE SMOOTH"
);
}
);
width = 258;
}
);
leftKerningGroup = j;
note = i_i;
rightKerningGroup = j;
unicode = E007;
},
{
glyphname = j_j;
layers = (
{
hints = (
{
horizontal = 1;
place = "{-154, 113}";
type = Stem;
},
{
horizontal = 1;
place = "{379, 21}";
type = Stem;
},
{
horizontal = 1;
place = "{461, -20}";
target = down;
type = TopGhost;
},
{
place = "{-85, 23}";
type = Stem;
},
{
place = "{51, 58}";
type = Stem;
},
{
place = "{184, 58}";
type = Stem;
},
{
horizontal = 1;
place = "{430, 21}";
type = Stem;
},
{
horizontal = 1;
place = "{480, 98}";
type = Stem;
},
{
place = "{42, 77}";
type = Stem;
},
{
horizontal = 1;
place = "{-205, 113}";
type = Stem;
},
{
place = "{48, 23}";
type = Stem;
},
{
horizontal = 1;
place = "{429, 98}";
type = Stem;
},
{
place = "{175, 77}";
type = Stem;
}
);
layerId = "D8F0BABD-30A0-4B34-9C55-2C8E337B4047";
paths = (
{
closed = 1;
nodes = (
"-62 -154 LINE",
"-62 -123 LINE",
"5 -120 OFFCURVE",
"108 -78 OFFCURVE",
"109 157 CURVE SMOOTH",
"110 415 LINE",
"113 430 OFFCURVE",
"137 430 OFFCURVE",
"137 430 CURVE",
"137 461 LINE",
"137 461 OFFCURVE",
"110 451 OFFCURVE",
"85 451 CURVE SMOOTH",
"59 451 OFFCURVE",
"24 460 OFFCURVE",
"24 460 CURVE",
"24 430 LINE",
"24 430 OFFCURVE",
"48 430 OFFCURVE",
"51 415 CURVE",
"51 157 LINE SMOOTH",
"50 1 OFFCURVE",
"10 -88 OFFCURVE",
"-62 -94 CURVE",
"-62 -41 LINE",
"-91 -41 LINE",
"-91 -41 OFFCURVE",
"-85 -63 OFFCURVE",
"-85 -88 CURVE SMOOTH",
"-85 -114 OFFCURVE",
"-91 -154 OFFCURVE",
"-91 -154 CURVE"
);
},
{
closed = 1;
nodes = (
"101 480 OFFCURVE",
"119 502 OFFCURVE",
"119 529 CURVE SMOOTH",
"119 556 OFFCURVE",
"101 578 OFFCURVE",
"80 578 CURVE SMOOTH",
"59 578 OFFCURVE",
"42 556 OFFCURVE",
"42 529 CURVE SMOOTH",
"42 502 OFFCURVE",
"59 480 OFFCURVE",
"80 480 CURVE SMOOTH"
);
},
{
closed = 1;
nodes = (
"71 -205 LINE",
"71 -174 LINE",
"138 -171 OFFCURVE",
"241 -129 OFFCURVE",
"242 106 CURVE SMOOTH",
"243 364 LINE",
"246 379 OFFCURVE",
"270 379 OFFCURVE",
"270 379 CURVE",
"270 410 LINE",
"270 410 OFFCURVE",
"243 400 OFFCURVE",
"218 400 CURVE SMOOTH",
"192 400 OFFCURVE",
"157 409 OFFCURVE",
"157 409 CURVE",
"157 379 LINE",
"157 379 OFFCURVE",
"181 379 OFFCURVE",
"184 364 CURVE",
"184 106 LINE SMOOTH",
"183 -50 OFFCURVE",
"143 -139 OFFCURVE",
"71 -145 CURVE",
"71 -92 LINE",
"42 -92 LINE",
"42 -92 OFFCURVE",
"48 -114 OFFCURVE",
"48 -139 CURVE SMOOTH",
"48 -165 OFFCURVE",
"42 -205 OFFCURVE",
"42 -205 CURVE"
);
},
{
closed = 1;
nodes = (
"234 429 OFFCURVE",
"252 451 OFFCURVE",
"252 478 CURVE SMOOTH",
"252 505 OFFCURVE",
"234 527 OFFCURVE",
"213 527 CURVE SMOOTH",
"192 527 OFFCURVE",
"175 505 OFFCURVE",
"175 478 CURVE SMOOTH",
"175 451 OFFCURVE",
"192 429 OFFCURVE",
"213 429 CURVE SMOOTH"
);
}
);
width = 270;
}
);
leftKerningGroup = j;
note = j_j;
rightKerningGroup = j;
unicode = E008;
},
{
glyphname = k_k;
layers = (
{
hints = (
{
horizontal = 1;
place = "{-12, 21}";
target = up;
type = BottomGhost;
},
{
horizontal = 1;
place = "{37, 20}";
type = Stem;
},
{
horizontal = 1;
place = "{421, 21}";
type = Stem;
},
{
horizontal = 1;
place = "{617, 20}";
type = Stem;
},
{
place = "{26, 59}";
type = Stem;
},
{
place = "{267, 59}";
type = Stem;
},
{
horizontal = 1;
place = "{-7, 30}";
type = Stem;
},
{
place = "{131, 113}";
type = Stem;
},
{
place = "{144, 100}";
type = Stem;
},
{
horizontal = 1;
place = "{-32, 20}";
type = Stem;
},
{
place = "{372, 113}";
type = Stem;
},
{
horizontal = 1;
place = "{387, 21}";
type = Stem;
},
{
horizontal = 1;
place = "{583, 20}";
type = Stem;
},
{
place = "{385, 100}";
type = Stem;
}
);
layerId = "D8F0BABD-30A0-4B34-9C55-2C8E337B4047";
paths = (
{
closed = 1;
nodes = (
"131 -8 LINE",
"131 -8 OFFCURVE",
"158 2 OFFCURVE",
"183 2 CURVE SMOOTH",
"209 2 OFFCURVE",
"244 -7 OFFCURVE",
"244 -7 CURVE",
"245 22 LINE",
"245 22 OFFCURVE",
"229 24 OFFCURVE",
"222 31 CURVE",
"119 295 LINE",
"210 402 LINE SMOOTH",
"224 420 OFFCURVE",
"244 421 OFFCURVE",
"244 421 CURVE",
"244 451 LINE",
"244 451 OFFCURVE",
"212 442 OFFCURVE",
"195 442 CURVE SMOOTH",
"177 442 OFFCURVE",
"144 449 OFFCURVE",
"144 449 CURVE",
"144 421 LINE",
"144 421 OFFCURVE",
"178 421 OFFCURVE",
"181 409 CURVE",
"85 294 LINE",
"85 601 LINE",
"88 616 OFFCURVE",
"112 617 OFFCURVE",
"112 617 CURVE",
"112 647 LINE",
"112 647 OFFCURVE",
"80 637 OFFCURVE",
"55 637 CURVE SMOOTH",
"32 637 OFFCURVE",
"-1 647 OFFCURVE",
"-1 647 CURVE",
"-1 617 LINE",
"-1 617 OFFCURVE",
"23 616 OFFCURVE",
"26 601 CURVE",
"26 73 LINE",
"23 58 OFFCURVE",
"-1 57 OFFCURVE",
"-1 57 CURVE",
"-1 27 LINE",
"-1 27 OFFCURVE",
"26 37 OFFCURVE",
"51 37 CURVE SMOOTH",
"77 37 OFFCURVE",
"112 28 OFFCURVE",
"112 28 CURVE",
"112 50 LINE",
"112 57 LINE",
"112 57 OFFCURVE",
"88 58 OFFCURVE",
"85 73 CURVE",
"85 243 LINE",
"161 37 LINE",
"157 23 OFFCURVE",
"131 22 OFFCURVE",
"131 22 CURVE"
);
},
{
closed = 1;
nodes = (
"372 -42 LINE",
"372 -42 OFFCURVE",
"399 -32 OFFCURVE",
"424 -32 CURVE SMOOTH",
"450 -32 OFFCURVE",
"485 -41 OFFCURVE",
"485 -41 CURVE",
"486 -12 LINE",
"486 -12 OFFCURVE",
"470 -10 OFFCURVE",
"463 -3 CURVE",
"360 261 LINE",
"451 368 LINE SMOOTH",
"465 386 OFFCURVE",
"485 387 OFFCURVE",
"485 387 CURVE",
"485 417 LINE",
"485 417 OFFCURVE",
"453 408 OFFCURVE",
"436 408 CURVE SMOOTH",
"418 408 OFFCURVE",
"385 415 OFFCURVE",
"385 415 CURVE",
"385 387 LINE",
"385 387 OFFCURVE",
"419 387 OFFCURVE",
"422 375 CURVE",
"326 260 LINE",
"326 567 LINE",
"329 582 OFFCURVE",
"353 583 OFFCURVE",
"353 583 CURVE",
"353 613 LINE",
"353 613 OFFCURVE",
"321 603 OFFCURVE",
"296 603 CURVE SMOOTH",
"273 603 OFFCURVE",
"240 613 OFFCURVE",
"240 613 CURVE",
"240 583 LINE",
"240 583 OFFCURVE",
"264 582 OFFCURVE",
"267 567 CURVE",
"267 39 LINE",
"264 24 OFFCURVE",
"240 23 OFFCURVE",
"240 23 CURVE",
"240 -7 LINE",
"240 -7 OFFCURVE",
"267 3 OFFCURVE",
"292 3 CURVE SMOOTH",
"318 3 OFFCURVE",
"353 -6 OFFCURVE",
"353 -6 CURVE",
"353 16 LINE",
"353 23 LINE",
"353 23 OFFCURVE",
"329 24 OFFCURVE",
"326 39 CURVE",
"326 209 LINE",
"402 3 LINE",
"398 -11 OFFCURVE",
"372 -12 OFFCURVE",
"372 -12 CURVE"
);
}
);
width = 484;
}
);
leftKerningGroup = k;
note = k_k;
rightKerningGroup = k;
unicode = E009;
},
{
glyphname = l_l;
layers = (
{
hints = (
{
horizontal = 1;
place = "{1, 21}";
target = up;
type = BottomGhost;
},
{
horizontal = 1;
place = "{48, 20}";
type = Stem;
},
{
horizontal = 1;
place = "{627, 21}";
type = Stem;
},
{
place = "{43, 58}";
type = Stem;
},
{
place = "{186, 58}";
type = Stem;
},
{
horizontal = 1;
place = "{10, 20}";
type = Stem;
},
{
horizontal = 1;
place = "{589, 21}";
type = Stem;
}
);
layerId = "D8F0BABD-30A0-4B34-9C55-2C8E337B4047";
paths = (
{
closed = 1;
nodes = (
"15 38 LINE",
"15 38 OFFCURVE",
"42 48 OFFCURVE",
"68 48 CURVE SMOOTH",
"93 48 OFFCURVE",
"128 39 OFFCURVE",
"128 39 CURVE",
"128 61 LINE",
"128 68 LINE",
"128 68 OFFCURVE",
"105 69 OFFCURVE",
"101 84 CURVE",
"101 612 LINE",
"105 627 OFFCURVE",
"128 627 OFFCURVE",
"128 627 CURVE",
"128 658 LINE",
"128 658 OFFCURVE",
"102 648 OFFCURVE",
"76 648 CURVE SMOOTH",
"50 648 OFFCURVE",
"15 657 OFFCURVE",
"15 657 CURVE",
"15 627 LINE",
"15 627 OFFCURVE",
"39 627 OFFCURVE",
"43 612 CURVE",
"43 84 LINE",
"39 69 OFFCURVE",
"15 68 OFFCURVE",
"15 68 CURVE"
);
},
{
closed = 1;
nodes = (
"158 0 LINE",
"158 0 OFFCURVE",
"185 10 OFFCURVE",
"211 10 CURVE SMOOTH",
"236 10 OFFCURVE",
"271 1 OFFCURVE",
"271 1 CURVE",
"271 23 LINE",
"271 30 LINE",
"271 30 OFFCURVE",
"248 31 OFFCURVE",
"244 46 CURVE",
"244 574 LINE",
"248 589 OFFCURVE",
"271 589 OFFCURVE",
"271 589 CURVE",
"271 620 LINE",
"271 620 OFFCURVE",
"245 610 OFFCURVE",
"219 610 CURVE SMOOTH",
"193 610 OFFCURVE",
"158 619 OFFCURVE",
"158 619 CURVE",
"158 589 LINE",
"158 589 OFFCURVE",
"182 589 OFFCURVE",
"186 574 CURVE",
"186 46 LINE",
"182 31 OFFCURVE",
"158 30 OFFCURVE",
"158 30 CURVE"
);
}
);
width = 286;
}
);
leftKerningGroup = l;
note = l_l;
rightKerningGroup = l;
unicode = E00A;
},
{
glyphname = m_m;
layers = (
{
hints = (
{
horizontal = 1;
place = "{-1, 30}";
type = Stem;
},
{
horizontal = 1;
place = "{386, 34}";
type = Stem;
},
{
horizontal = 1;
place = "{461, -20}";
target = down;
type = TopGhost;
},
{
place = "{30, 59}";
type = Stem;
},
{
place = "{192, 58}";
type = Stem;
},
{
place = "{353, 59}";
type = Stem;
},
{
place = "{476, 59}";
type = Stem;
},
{
place = "{638, 58}";
type = Stem;
},
{
place = "{799, 59}";
type = Stem;
},
{
horizontal = 1;
place = "{8, 21}";
type = Stem;
},
{
horizontal = 1;
place = "{0, 29}";
type = Stem;
},
{
horizontal = 1;
place = "{422, 34}";
type = Stem;
},
{
horizontal = 1;
place = "{44, 21}";
type = Stem;
},
{
horizontal = 1;
place = "{466, 21}";
type = Stem;
},
{
horizontal = 1;
place = "{-26, 20}";
type = Stem;
},
{
horizontal = 1;
place = "{430, 21}";
type = Stem;
}
);
layerId = "D8F0BABD-30A0-4B34-9C55-2C8E337B4047";
paths = (
{
closed = 1;
nodes = (
"164 0 LINE",
"164 0 OFFCURVE",
"191 10 OFFCURVE",
"217 10 CURVE SMOOTH",
"242 10 OFFCURVE",
"277 1 OFFCURVE",
"277 1 CURVE",
"277 23 LINE",
"277 30 LINE",
"277 30 OFFCURVE",
"254 31 OFFCURVE",
"250 45 CURVE",
"250 252 LINE",
"250 256 LINE SMOOTH",
"251 362 OFFCURVE",
"270 422 OFFCURVE",
"303 422 CURVE SMOOTH",
"338 422 OFFCURVE",
"353 373 OFFCURVE",
"353 252 CURVE SMOOTH",
"353 79 LINE",
"350 65 OFFCURVE",
"326 65 OFFCURVE",
"326 65 CURVE",
"326 34 LINE",
"326 34 OFFCURVE",
"353 44 OFFCURVE",
"378 44 CURVE SMOOTH",
"404 44 OFFCURVE",
"439 35 OFFCURVE",
"439 35 CURVE",
"439 65 LINE",
"439 65 OFFCURVE",
"416 65 OFFCURVE",
"412 79 CURVE",
"412 252 LINE SMOOTH",
"412 375 OFFCURVE",
"393 456 OFFCURVE",
"303 456 CURVE SMOOTH",
"269 456 OFFCURVE",
"242 441 OFFCURVE",
"224 410 CURVE",
"207 441 OFFCURVE",
"180 456 OFFCURVE",
"141 456 CURVE SMOOTH",
"121 456 OFFCURVE",
"103 451 OFFCURVE",
"89 440 CURVE",
"89 498 LINE",
"89 498 OFFCURVE",
"65 487 OFFCURVE",
"47 487 CURVE SMOOTH",
"30 487 OFFCURVE",
"3 497 OFFCURVE",
"3 497 CURVE",
"3 466 LINE",
"3 466 OFFCURVE",
"27 466 OFFCURVE",
"30 451 CURVE",
"30 81 LINE",
"27 66 OFFCURVE",
"3 65 OFFCURVE",
"3 65 CURVE",
"3 35 LINE",
"3 35 OFFCURVE",
"30 45 OFFCURVE",
"55 45 CURVE SMOOTH",
"81 45 OFFCURVE",
"116 36 OFFCURVE",
"116 36 CURVE",
"116 65 LINE",
"116 65 OFFCURVE",
"92 66 OFFCURVE",
"89 81 CURVE",
"89 252 LINE SMOOTH",
"89 406 OFFCURVE",
"126 422 OFFCURVE",
"141 422 CURVE SMOOTH",
"177 422 OFFCURVE",
"191 373 OFFCURVE",
"192 252 CURVE SMOOTH",
"192 45 LINE",
"188 31 OFFCURVE",
"164 30 OFFCURVE",
"164 30 CURVE"
);
},
{
closed = 1;
nodes = (
"610 -36 LINE",
"610 -36 OFFCURVE",
"637 -26 OFFCURVE",
"663 -26 CURVE SMOOTH",
"688 -26 OFFCURVE",
"723 -35 OFFCURVE",
"723 -35 CURVE",
"723 -13 LINE",
"723 -6 LINE",
"723 -6 OFFCURVE",
"700 -5 OFFCURVE",
"696 9 CURVE",
"696 216 LINE",
"696 220 LINE SMOOTH",
"697 326 OFFCURVE",
"716 386 OFFCURVE",
"749 386 CURVE SMOOTH",
"784 386 OFFCURVE",
"799 337 OFFCURVE",
"799 216 CURVE SMOOTH",
"799 43 LINE",
"796 29 OFFCURVE",
"772 29 OFFCURVE",
"772 29 CURVE",
"772 -2 LINE",
"772 -2 OFFCURVE",
"799 8 OFFCURVE",
"824 8 CURVE SMOOTH",
"850 8 OFFCURVE",
"885 -1 OFFCURVE",
"885 -1 CURVE",
"885 29 LINE",
"885 29 OFFCURVE",
"862 29 OFFCURVE",
"858 43 CURVE",
"858 216 LINE SMOOTH",
"858 339 OFFCURVE",
"839 420 OFFCURVE",
"749 420 CURVE SMOOTH",
"715 420 OFFCURVE",
"688 405 OFFCURVE",
"670 374 CURVE",
"653 405 OFFCURVE",
"626 420 OFFCURVE",
"587 420 CURVE SMOOTH",
"567 420 OFFCURVE",
"549 415 OFFCURVE",
"535 404 CURVE",
"535 462 LINE",
"535 462 OFFCURVE",
"511 451 OFFCURVE",
"493 451 CURVE SMOOTH",
"476 451 OFFCURVE",
"449 461 OFFCURVE",
"449 461 CURVE",
"449 430 LINE",
"449 430 OFFCURVE",
"473 430 OFFCURVE",
"476 415 CURVE",
"476 45 LINE",
"473 30 OFFCURVE",
"449 29 OFFCURVE",
"449 29 CURVE",
"449 -1 LINE",
"449 -1 OFFCURVE",
"476 9 OFFCURVE",
"501 9 CURVE SMOOTH",
"527 9 OFFCURVE",
"562 0 OFFCURVE",
"562 0 CURVE",
"562 29 LINE",
"562 29 OFFCURVE",
"538 30 OFFCURVE",
"535 45 CURVE",
"535 216 LINE SMOOTH",
"535 370 OFFCURVE",
"572 386 OFFCURVE",
"587 386 CURVE SMOOTH",
"623 386 OFFCURVE",
"637 337 OFFCURVE",
"638 216 CURVE SMOOTH",
"638 9 LINE",
"634 -5 OFFCURVE",
"610 -6 OFFCURVE",
"610 -6 CURVE"
);
}
);
width = 892;
}
);
leftKerningGroup = m;
note = m_m;
rightKerningGroup = m;
unicode = E00B;
},
{
glyphname = n_n;
layers = (
{
hints = (
{
horizontal = 1;
place = "{-1, 29}";
type = Stem;
},
{
horizontal = 1;
place = "{385, 34}";
type = Stem;
},
{
horizontal = 1;
place = "{461, -20}";
target = down;
type = TopGhost;
},
{
place = "{42, 58}";
type = Stem;
},
{
place = "{203, 59}";
type = Stem;
},
{
place = "{315, 58}";
type = Stem;
},
{
place = "{476, 59}";
type = Stem;
},
{
horizontal = 1;
place = "{420, 34}";
type = Stem;
},
{
horizontal = 1;
place = "{43, 20}";
type = Stem;
},
{
horizontal = 1;
place = "{464, 21}";
type = Stem;
},
{
horizontal = 1;
place = "{-27, 20}";
type = Stem;
},
{
horizontal = 1;
place = "{429, 21}";
type = Stem;
}
);
layerId = "D8F0BABD-30A0-4B34-9C55-2C8E337B4047";
paths = (
{
closed = 1;
nodes = (
"176 -2 LINE",
"176 -2 OFFCURVE",
"203 8 OFFCURVE",
"228 8 CURVE SMOOTH",
"254 8 OFFCURVE",
"289 -1 OFFCURVE",
"289 -1 CURVE",
"289 28 LINE",
"289 28 OFFCURVE",
"266 29 OFFCURVE",
"262 43 CURVE",
"262 250 LINE SMOOTH",
"262 373 OFFCURVE",
"243 454 OFFCURVE",
"153 454 CURVE SMOOTH",
"133 454 OFFCURVE",
"115 449 OFFCURVE",
"100 438 CURVE",
"100 496 LINE",
"100 496 OFFCURVE",
"77 485 OFFCURVE",
"59 485 CURVE SMOOTH",
"42 485 OFFCURVE",
"15 495 OFFCURVE",
"15 495 CURVE",
"15 464 LINE",
"15 464 OFFCURVE",
"39 464 OFFCURVE",
"42 449 CURVE",
"42 79 LINE",
"38 64 OFFCURVE",
"15 63 OFFCURVE",
"15 63 CURVE",
"15 33 LINE",
"15 33 OFFCURVE",
"41 43 OFFCURVE",
"67 43 CURVE SMOOTH",
"93 43 OFFCURVE",
"128 34 OFFCURVE",
"128 34 CURVE",
"128 63 LINE",
"128 63 OFFCURVE",
"104 64 OFFCURVE",
"100 79 CURVE",
"100 250 LINE SMOOTH",
"101 404 OFFCURVE",
"137 420 OFFCURVE",
"153 420 CURVE SMOOTH",
"188 420 OFFCURVE",
"203 371 OFFCURVE",
"203 250 CURVE SMOOTH",
"203 43 LINE",
"200 29 OFFCURVE",
"176 28 OFFCURVE",
"176 28 CURVE"
);
},
{
closed = 1;
nodes = (
"449 -37 LINE",
"449 -37 OFFCURVE",
"476 -27 OFFCURVE",
"501 -27 CURVE SMOOTH",
"527 -27 OFFCURVE",
"562 -36 OFFCURVE",
"562 -36 CURVE",
"562 -7 LINE",
"562 -7 OFFCURVE",
"539 -6 OFFCURVE",
"535 8 CURVE",
"535 215 LINE SMOOTH",
"535 338 OFFCURVE",
"516 419 OFFCURVE",
"426 419 CURVE SMOOTH",
"406 419 OFFCURVE",
"388 414 OFFCURVE",
"373 403 CURVE",
"373 461 LINE",
"373 461 OFFCURVE",
"350 450 OFFCURVE",
"332 450 CURVE SMOOTH",
"315 450 OFFCURVE",
"288 460 OFFCURVE",
"288 460 CURVE",
"288 429 LINE",
"288 429 OFFCURVE",
"312 429 OFFCURVE",
"315 414 CURVE",
"315 44 LINE",
"311 29 OFFCURVE",
"288 28 OFFCURVE",
"288 28 CURVE",
"288 -2 LINE",
"288 -2 OFFCURVE",
"314 8 OFFCURVE",
"340 8 CURVE SMOOTH",
"366 8 OFFCURVE",
"401 -1 OFFCURVE",
"401 -1 CURVE",
"401 28 LINE",
"401 28 OFFCURVE",
"377 29 OFFCURVE",
"373 44 CURVE",
"373 215 LINE SMOOTH",
"374 369 OFFCURVE",
"410 385 OFFCURVE",
"426 385 CURVE SMOOTH",
"461 385 OFFCURVE",
"476 336 OFFCURVE",
"476 215 CURVE SMOOTH",
"476 8 LINE",
"473 -6 OFFCURVE",
"449 -7 OFFCURVE",
"449 -7 CURVE"
);
}
);
width = 562;
}
);
leftKerningGroup = n;
note = n_n;
rightKerningGroup = n;
unicode = E00C;
},
{
glyphname = o_o;
layers = (
{
hints = (
{
horizontal = 1;
place = "{14, 34}";
type = Stem;
},
{
horizontal = 1;
place = "{439, 35}";
type = Stem;
},
{
place = "{15, 57}";
type = Stem;
},
{
place = "{177, 56}";
type = Stem;
},
{
place = "{419, 56}";
type = Stem;
},
{
horizontal = 1;
place = "{-26, 34}";
type = Stem;
},
{
horizontal = 1;
place = "{399, 35}";
type = Stem;
},
{
place = "{257, 57}";
type = Stem;
}
);
layerId = "D8F0BABD-30A0-4B34-9C55-2C8E337B4047";
paths = (
{
closed = 1;
nodes = (
"193 14 OFFCURVE",
"233 96 OFFCURVE",
"233 240 CURVE SMOOTH",
"233 391 OFFCURVE",
"194 474 OFFCURVE",
"124 474 CURVE SMOOTH",
"54 474 OFFCURVE",
"15 391 OFFCURVE",
"15 240 CURVE SMOOTH",
"15 94 OFFCURVE",
"54 14 OFFCURVE",
"124 14 CURVE SMOOTH"
);
},
{
closed = 1;
nodes = (
"148 439 OFFCURVE",
"177 387 OFFCURVE",
"177 240 CURVE SMOOTH",
"177 105 OFFCURVE",
"138 48 OFFCURVE",
"124 48 CURVE SMOOTH",
"101 48 OFFCURVE",
"72 98 OFFCURVE",
"72 240 CURVE SMOOTH",
"72 380 OFFCURVE",
"89 439 OFFCURVE",
"124 439 CURVE SMOOTH"
);
},
{
closed = 1;
nodes = (
"435 -26 OFFCURVE",
"475 56 OFFCURVE",
"475 200 CURVE SMOOTH",
"475 351 OFFCURVE",
"436 434 OFFCURVE",
"366 434 CURVE SMOOTH",
"296 434 OFFCURVE",
"257 351 OFFCURVE",
"257 200 CURVE SMOOTH",
"257 54 OFFCURVE",
"296 -26 OFFCURVE",
"366 -26 CURVE SMOOTH"
);
},
{
closed = 1;
nodes = (
"390 399 OFFCURVE",
"419 347 OFFCURVE",
"419 200 CURVE SMOOTH",
"419 65 OFFCURVE",
"380 8 OFFCURVE",
"366 8 CURVE SMOOTH",
"343 8 OFFCURVE",
"314 58 OFFCURVE",
"314 200 CURVE SMOOTH",
"314 340 OFFCURVE",
"331 399 OFFCURVE",
"366 399 CURVE SMOOTH"
);
}
);
width = 484;
}
);
leftKerningGroup = o;
note = o_o;
rightKerningGroup = o;
unicode = E00D;
},
{
glyphname = p_p;
layers = (
{
hints = (
{
horizontal = 1;
place = "{-124, 20}";
type = Stem;
},
{
horizontal = 1;
place = "{-1, 34}";
type = Stem;
},
{
horizontal = 1;
place = "{424, 35}";
type = Stem;
},
{
place = "{44, 59}";
type = Stem;
},
{
place = "{206, 59}";
type = Stem;
},
{
place = "{317, 59}";
type = Stem;
},
{
place = "{479, 59}";
type = Stem;
},
{
horizontal = 1;
place = "{40, 34}";
type = Stem;
},
{
horizontal = 1;
place = "{460, 26}";
type = Stem;
},
{
horizontal = 1;
place = "{-165, 20}";
type = Stem;
},
{
horizontal = 1;
place = "{383, 35}";
type = Stem;
},
{
horizontal = 1;
place = "{419, 26}";
type = Stem;
}
);
layerId = "D8F0BABD-30A0-4B34-9C55-2C8E337B4047";
paths = (
{
closed = 1;
nodes = (
"-9 -133 LINE",
"-9 -133 OFFCURVE",
"41 -124 OFFCURVE",
"74 -124 CURVE SMOOTH",
"106 -124 OFFCURVE",
"156 -133 OFFCURVE",
"156 -133 CURVE",
"156 -104 LINE",
"156 -104 OFFCURVE",
"105 -100 OFFCURVE",
"103 -87 CURVE",
"103 56 LINE",
"118 45 OFFCURVE",
"135 40 OFFCURVE",
"155 40 CURVE SMOOTH",
"228 40 OFFCURVE",
"265 109 OFFCURVE",
"265 246 CURVE SMOOTH",
"265 389 OFFCURVE",
"229 459 OFFCURVE",
"155 459 CURVE SMOOTH",
"135 459 OFFCURVE",
"118 453 OFFCURVE",
"103 442 CURVE",
"103 495 LINE",
"103 495 OFFCURVE",
"71 486 OFFCURVE",
"53 486 CURVE SMOOTH",
"35 486 OFFCURVE",
"-2 493 OFFCURVE",
"-2 493 CURVE",
"-2 460 LINE",
"-2 460 OFFCURVE",
"41 457 OFFCURVE",
"44 445 CURVE",
"44 -88 LINE",
"41 -100 OFFCURVE",
"-9 -104 OFFCURVE",
"-9 -104 CURVE"
);
},
{
closed = 1;
nodes = (
"188 424 OFFCURVE",
"206 363 OFFCURVE",
"206 246 CURVE SMOOTH",
"206 117 OFFCURVE",
"171 74 OFFCURVE",
"155 74 CURVE SMOOTH",
"124 74 OFFCURVE",
"106 135 OFFCURVE",
"106 246 CURVE SMOOTH",
"106 378 OFFCURVE",
"119 424 OFFCURVE",
"155 424 CURVE SMOOTH"
);
},
{
closed = 1;
nodes = (
"264 -174 LINE",
"264 -174 OFFCURVE",
"314 -165 OFFCURVE",
"347 -165 CURVE SMOOTH",
"379 -165 OFFCURVE",
"429 -174 OFFCURVE",
"429 -174 CURVE",
"429 -145 LINE",
"429 -145 OFFCURVE",
"378 -141 OFFCURVE",
"376 -128 CURVE",
"376 15 LINE",
"391 4 OFFCURVE",
"408 -1 OFFCURVE",
"428 -1 CURVE SMOOTH",
"501 -1 OFFCURVE",
"538 68 OFFCURVE",
"538 205 CURVE SMOOTH",
"538 348 OFFCURVE",
"502 418 OFFCURVE",
"428 418 CURVE SMOOTH",
"408 418 OFFCURVE",
"391 412 OFFCURVE",
"376 401 CURVE",
"376 454 LINE",
"376 454 OFFCURVE",
"344 445 OFFCURVE",
"326 445 CURVE SMOOTH",
"308 445 OFFCURVE",
"271 452 OFFCURVE",
"271 452 CURVE",
"271 419 LINE",
"271 419 OFFCURVE",
"314 416 OFFCURVE",
"317 404 CURVE",
"317 -129 LINE",
"314 -141 OFFCURVE",
"264 -145 OFFCURVE",
"264 -145 CURVE"
);
},
{
closed = 1;
nodes = (
"461 383 OFFCURVE",
"479 322 OFFCURVE",
"479 205 CURVE SMOOTH",
"479 76 OFFCURVE",
"444 33 OFFCURVE",
"428 33 CURVE SMOOTH",
"397 33 OFFCURVE",
"379 94 OFFCURVE",
"379 205 CURVE SMOOTH",
"379 337 OFFCURVE",
"392 383 OFFCURVE",
"428 383 CURVE SMOOTH"
);
}
);
width = 548;
}
);
leftKerningGroup = p;
note = p_p;
rightKerningGroup = p;
unicode = E00E;
},
{
glyphname = q_q;
layers = (
{
hints = (
{
horizontal = 1;
place = "{-218, 20}";
type = Stem;
},
{
horizontal = 1;
place = "{-157, 20}";
type = Stem;
},
{
horizontal = 1;
place = "{-4, 34}";
type = Stem;
},
{
horizontal = 1;
place = "{424, 35}";
type = Stem;
},
{
place = "{15, 59}";
type = Stem;
},
{
place = "{177, 59}";
type = Stem;
},
{
place = "{286, 59}";
type = Stem;
},
{
place = "{448, 59}";
type = Stem;
},
{
horizontal = 1;
place = "{437, 34}";
type = Stem;
},
{
horizontal = 1;
place = "{57, 34}";
type = Stem;
},
{
horizontal = 1;
place = "{376, 34}";
type = Stem;
},
{
horizontal = 1;
place = "{363, 35}";
type = Stem;
}
);
layerId = "D8F0BABD-30A0-4B34-9C55-2C8E337B4047";
paths = (
{
closed = 1;
nodes = (
"124 -166 LINE",
"124 -166 OFFCURVE",
"174 -157 OFFCURVE",
"206 -157 CURVE SMOOTH",
"239 -157 OFFCURVE",
"289 -166 OFFCURVE",
"289 -166 CURVE",
"289 -137 LINE",
"289 -137 OFFCURVE",
"239 -133 OFFCURVE",
"236 -121 CURVE",
"236 432 LINE",
"239 444 OFFCURVE",
"282 437 OFFCURVE",
"282 437 CURVE",
"282 475 LINE",
"282 475 OFFCURVE",
"245 471 OFFCURVE",
"227 471 CURVE SMOOTH",
"209 471 OFFCURVE",
"177 477 OFFCURVE",
"177 477 CURVE",
"177 442 LINE",
"162 453 OFFCURVE",
"145 459 OFFCURVE",
"124 459 CURVE SMOOTH",
"51 459 OFFCURVE",
"15 406 OFFCURVE",
"15 263 CURVE SMOOTH",
"15 126 OFFCURVE",
"52 57 OFFCURVE",
"124 57 CURVE SMOOTH",
"145 57 OFFCURVE",
"162 62 OFFCURVE",
"177 73 CURVE",
"177 -120 LINE",
"175 -133 OFFCURVE",
"124 -137 OFFCURVE",
"124 -137 CURVE"
);
},
{
closed = 1;
nodes = (
"161 424 OFFCURVE",
"174 395 OFFCURVE",
"174 263 CURVE SMOOTH",
"174 152 OFFCURVE",
"156 91 OFFCURVE",
"124 91 CURVE SMOOTH",
"109 91 OFFCURVE",
"74 134 OFFCURVE",
"74 263 CURVE SMOOTH",
"74 380 OFFCURVE",
"92 424 OFFCURVE",
"124 424 CURVE SMOOTH"
);
},
{
closed = 1;
nodes = (
"395 -227 LINE",
"395 -227 OFFCURVE",
"445 -218 OFFCURVE",
"477 -218 CURVE SMOOTH",
"510 -218 OFFCURVE",
"560 -227 OFFCURVE",
"560 -227 CURVE",
"560 -198 LINE",
"560 -198 OFFCURVE",
"510 -194 OFFCURVE",
"507 -182 CURVE",
"507 371 LINE",
"510 383 OFFCURVE",
"553 376 OFFCURVE",
"553 376 CURVE",
"553 414 LINE",
"553 414 OFFCURVE",
"516 410 OFFCURVE",
"498 410 CURVE SMOOTH",
"480 410 OFFCURVE",
"448 416 OFFCURVE",
"448 416 CURVE",
"448 381 LINE",
"433 392 OFFCURVE",
"416 398 OFFCURVE",
"395 398 CURVE SMOOTH",
"322 398 OFFCURVE",
"286 345 OFFCURVE",
"286 202 CURVE SMOOTH",
"286 65 OFFCURVE",
"323 -4 OFFCURVE",
"395 -4 CURVE SMOOTH",
"416 -4 OFFCURVE",
"433 1 OFFCURVE",
"448 12 CURVE",
"448 -181 LINE",
"446 -194 OFFCURVE",
"395 -198 OFFCURVE",
"395 -198 CURVE"
);
},
{
closed = 1;
nodes = (
"432 363 OFFCURVE",
"445 334 OFFCURVE",
"445 202 CURVE SMOOTH",
"445 91 OFFCURVE",
"427 30 OFFCURVE",
"395 30 CURVE SMOOTH",
"380 30 OFFCURVE",
"345 73 OFFCURVE",
"345 202 CURVE SMOOTH",
"345 319 OFFCURVE",
"363 363 OFFCURVE",
"395 363 CURVE SMOOTH"
);
}
);
width = 560;
}
);
leftKerningGroup = q;
note = q_q;
rightKerningGroup = q;
unicode = E00F;
},
